<svg width="616" height="392" viewBox="0 0 616 392" fill="none" xmlns="http://www.w3.org/2000/svg">
<g clip-path="url(#clip0_0_374)">
<path d="M512.544 14.6183H465.997V102.189H512.544V14.6183Z" fill="#E6E6E6"/>
<path d="M510.256 14.6183H455.58V102.189H510.256V14.6183Z" fill="#F0F0F0"/>
<path d="M501.923 22.4022H463.889V94.4133H501.923V22.4022Z" fill="white"/>
<path d="M490.776 43.8794H475.987V71.8719H490.776V43.8794Z" fill="#EBEBEB"/>
<path d="M148.326 14.6183H101.779V102.189H148.326V14.6183Z" fill="#E6E6E6"/>
<path d="M146.038 14.6183H91.3621V102.189H146.038V14.6183Z" fill="#F0F0F0"/>
<path d="M137.713 22.4022H99.6791V94.4133H137.713V22.4022Z" fill="white"/>
<path d="M126.558 43.8794H111.769V71.8719H126.558V43.8794Z" fill="#EBEBEB"/>
<path d="M552.875 225.086H404.636C403.362 225.084 402.141 224.578 401.24 223.679C400.339 222.78 399.832 221.561 399.83 220.289V4.79637C399.832 3.52496 400.339 2.30624 401.24 1.40722C402.141 0.50819 403.362 0.00216411 404.636 0L552.875 0C554.15 -1.84699e-06 555.374 0.505068 556.276 1.40433C557.179 2.30359 557.687 3.52354 557.689 4.79637V220.289C557.687 221.562 557.179 222.782 556.276 223.681C555.374 224.581 554.15 225.086 552.875 225.086ZM404.636 0.204623C403.416 0.204623 402.246 0.688396 401.383 1.54952C400.52 2.41064 400.035 3.57857 400.035 4.79637V220.289C400.035 221.507 400.52 222.675 401.383 223.536C402.246 224.397 403.416 224.881 404.636 224.881H552.875C554.096 224.881 555.267 224.398 556.131 223.537C556.995 222.676 557.482 221.508 557.484 220.289V4.79637C557.482 3.57781 556.995 2.4099 556.131 1.54902C555.267 0.688132 554.096 0.204622 552.875 0.204623H404.636Z" fill="#E0E0E0"/>
<path d="M381.925 225.086H233.67C232.396 225.084 231.175 224.578 230.274 223.679C229.373 222.78 228.866 221.561 228.864 220.289V4.79637C228.866 3.52496 229.373 2.30624 230.274 1.40722C231.175 0.50819 232.396 0.00216411 233.67 0L381.925 0C383.199 0.00216411 384.42 0.50819 385.321 1.40722C386.222 2.30624 386.729 3.52496 386.731 4.79637V220.289C386.729 221.561 386.222 222.78 385.321 223.679C384.42 224.578 383.199 225.084 381.925 225.086ZM233.67 0.204623C232.457 0.217541 231.299 0.706751 230.445 1.56624C229.592 2.42574 229.112 3.58627 229.11 4.79637V220.289C229.112 221.507 229.597 222.673 230.46 223.534C231.322 224.395 232.491 224.879 233.711 224.881H381.925C383.144 224.879 384.313 224.395 385.176 223.534C386.038 222.673 386.524 221.507 386.526 220.289V4.79637C386.524 3.57923 386.038 2.41256 385.176 1.55191C384.313 0.691254 383.144 0.206787 381.925 0.204623H233.67Z" fill="#E0E0E0"/>
<path d="M211.065 225.086H62.8266C61.5511 225.086 60.3277 224.581 59.425 223.681C58.5224 222.782 58.0141 221.562 58.012 220.289V4.79637C58.0141 3.52354 58.5224 2.30359 59.425 1.40433C60.3277 0.505068 61.5511 -1.84699e-06 62.8266 0L211.065 0C212.339 0.00216411 213.56 0.50819 214.461 1.40722C215.362 2.30624 215.869 3.52496 215.871 4.79637V220.289C215.869 221.561 215.362 222.78 214.461 223.679C213.56 224.578 212.339 225.084 211.065 225.086ZM62.8266 0.204623C61.6055 0.204622 60.4343 0.688132 59.57 1.54902C58.7058 2.4099 58.2192 3.57781 58.217 4.79637V220.289C58.2192 221.508 58.7058 222.676 59.57 223.537C60.4343 224.398 61.6055 224.881 62.8266 224.881H211.065C212.285 224.881 213.456 224.397 214.319 223.536C215.181 222.675 215.666 221.507 215.666 220.289V4.79637C215.666 3.57857 215.181 2.41064 214.319 1.54952C213.456 0.688396 212.285 0.204623 211.065 0.204623H62.8266Z" fill="#E0E0E0"/>
<path d="M615.433 275.071H0.268555V275.169H615.433V275.071Z" fill="#E0E0E0"/>
<path d="M582.099 299.11H536.388V299.454H582.099V299.11Z" fill="#EBEBEB"/>
<path d="M418.309 302.851H406.31V303.195H418.309V302.851Z" fill="#EBEBEB"/>
<path d="M93.2076 288.642H33.6023V288.986H93.2076V288.642Z" fill="#EBEBEB"/>
<path d="M114.246 288.642H105.503V288.986H114.246V288.642Z" fill="#EBEBEB"/>
<path d="M271.925 294.453H142.65V294.797H271.925V294.453Z" fill="#EBEBEB"/>
<path d="M195.874 52.3018C193.857 55.3728 192.441 58.7971 191.699 62.3938L186.048 62.9258V73.8445L191.699 74.3765C192.441 77.9732 193.857 81.3975 195.874 84.4686L192.265 88.8229L200 96.5413L204.364 92.94C207.442 94.9515 210.873 96.3649 214.477 97.1061L215.01 102.746H225.952L226.485 97.1061C230.091 96.365 233.525 94.9515 236.606 92.94L240.962 96.5413L248.696 88.8229L245.088 84.4686C247.108 81.3992 248.525 77.9743 249.262 74.3765L254.914 73.8445V62.9258L249.262 62.3938C248.525 58.796 247.108 55.3711 245.088 52.3018L248.696 47.9474L240.962 40.229L236.606 43.8303C233.527 41.8153 230.092 40.4016 226.485 39.6642L225.952 34.0248H215.01L214.477 39.6642C210.873 40.4054 207.442 41.8189 204.364 43.8303L200 40.229L192.265 47.9474L195.874 52.3018ZM230.955 57.933C233.027 60.0003 234.438 62.6341 235.009 65.5016C235.581 68.369 235.288 71.3413 234.167 74.0424C233.045 76.7435 231.147 79.0521 228.711 80.6764C226.275 82.3008 223.411 83.1677 220.481 83.1677C217.551 83.1677 214.687 82.3008 212.251 80.6764C209.815 79.0521 207.916 76.7435 206.795 74.0424C205.674 71.3413 205.381 68.369 205.952 65.5016C206.524 62.6341 207.935 60.0003 210.007 57.933C212.785 55.161 216.552 53.6037 220.481 53.6037C224.41 53.6037 228.177 55.161 230.955 57.933Z" fill="#EBEBEB"/>
<path d="M217.225 184.006C216.223 185.549 215.524 187.268 215.166 189.072L212.336 189.334V194.802L215.166 195.063C215.534 196.863 216.241 198.577 217.249 200.114L215.445 202.283L219.316 206.146L221.49 204.345C223.03 205.351 224.747 206.057 226.551 206.424L226.813 209.248H232.284L232.546 206.424C234.35 206.057 236.067 205.351 237.607 204.345L239.781 206.146L243.652 202.283L241.848 200.114C242.854 198.576 243.561 196.863 243.931 195.063L246.761 194.802V189.318L243.874 189.072C243.502 187.273 242.795 185.56 241.79 184.022L243.595 181.853L239.772 177.973L237.599 179.774C236.057 178.771 234.341 178.066 232.538 177.695L232.276 174.871H226.805L226.542 177.695C224.74 178.066 223.023 178.771 221.482 179.774L219.308 177.973L215.437 181.837L217.225 184.006ZM234.761 186.821C235.788 187.853 236.487 189.166 236.767 190.594C237.048 192.021 236.899 193.5 236.339 194.843C235.779 196.186 234.833 197.334 233.62 198.141C232.407 198.948 230.982 199.379 229.524 199.379C228.066 199.379 226.641 198.948 225.428 198.141C224.215 197.334 223.269 196.186 222.708 194.843C222.148 193.5 221.999 192.021 222.28 190.594C222.561 189.166 223.259 187.853 224.287 186.821C224.973 186.132 225.789 185.585 226.688 185.212C227.586 184.839 228.55 184.646 229.524 184.646C230.497 184.646 231.461 184.839 232.36 185.212C233.259 185.585 234.075 186.132 234.761 186.821Z" fill="#EBEBEB"/>
<path d="M61.3421 127.047C59.7557 129.474 58.6426 132.179 58.0612 135.019L53.5992 135.436V144.055L58.0612 144.472C58.6411 147.312 59.7543 150.017 61.3421 152.444L58.5041 155.882L64.6065 161.972L68.0514 159.132C70.4814 160.715 73.1891 161.825 76.0322 162.406L76.4587 166.858H85.0956L85.5139 162.406C88.3591 161.824 91.0692 160.713 93.5028 159.132L96.9396 161.972L103.05 155.882L100.204 152.444C101.793 150.018 102.906 147.313 103.485 144.472L107.947 144.055V135.436L103.485 135.019C102.903 132.179 101.79 129.475 100.204 127.047L103.042 123.593L96.9314 117.495L93.4946 120.335C91.061 118.753 88.3509 117.643 85.5057 117.061L85.0874 112.617H76.4505L76.024 117.045C73.1809 117.625 70.4732 118.736 68.0432 120.319L64.5983 117.478L58.5041 123.593L61.3421 127.047ZM89.0326 131.499C90.6692 133.131 91.7839 135.211 92.2358 137.475C92.6878 139.74 92.4566 142.087 91.5716 144.22C90.6865 146.353 89.1874 148.176 87.2638 149.459C85.3402 150.742 83.0785 151.427 80.7648 151.427C78.4512 151.427 76.1895 150.742 74.2659 149.459C72.3423 148.176 70.8431 146.353 69.9581 144.22C69.0731 142.087 68.8419 139.74 69.2938 137.475C69.7458 135.211 70.8605 133.131 72.497 131.499C73.5825 130.415 74.8714 129.555 76.29 128.969C77.7086 128.382 79.2292 128.08 80.7648 128.08C82.3005 128.08 83.8211 128.382 85.2397 128.969C86.6583 129.555 87.9472 130.415 89.0326 131.499Z" fill="#EBEBEB"/>
<path d="M530.86 109.433C530.112 110.567 529.589 111.834 529.318 113.165L527.226 113.361V117.397L529.318 117.593C529.589 118.924 530.112 120.191 530.86 121.325L529.523 122.962L532.386 125.819L534.026 124.485C535.163 125.231 536.432 125.753 537.766 126.024L537.963 128.111H542.007L542.204 126.024C543.536 125.751 544.806 125.229 545.944 124.485L547.584 125.819L550.439 122.962L549.11 121.325C549.854 120.189 550.377 118.923 550.652 117.593L552.735 117.397V113.361L550.652 113.165C550.377 111.835 549.854 110.569 549.11 109.433L550.439 107.796L547.584 104.947L545.944 106.273C544.806 105.529 543.536 105.007 542.204 104.734L542.007 102.647H537.963L537.766 104.734C536.432 105.005 535.163 105.527 534.026 106.273L532.386 104.939L529.523 107.796L530.86 109.433ZM543.819 111.52C544.585 112.283 545.106 113.256 545.318 114.315C545.529 115.374 545.421 116.472 545.007 117.47C544.593 118.468 543.892 119.32 542.992 119.92C542.092 120.52 541.034 120.841 539.952 120.841C538.87 120.841 537.812 120.52 536.912 119.92C536.013 119.32 535.311 118.468 534.897 117.47C534.483 116.472 534.375 115.374 534.587 114.315C534.798 113.256 535.319 112.283 536.085 111.52C536.592 111.012 537.195 110.61 537.859 110.335C538.522 110.06 539.234 109.919 539.952 109.919C540.671 109.919 541.382 110.06 542.046 110.335C542.709 110.61 543.312 111.012 543.819 111.52Z" fill="#EBEBEB"/>
<path d="M376.7 58.9806C375.952 60.1151 375.428 61.3821 375.158 62.713L373.066 62.9094V66.9446L375.158 67.141C375.431 68.4686 375.954 69.7324 376.7 70.8652L375.363 72.5021L378.225 75.3014L379.866 73.9754C381.005 74.7176 382.274 75.2396 383.606 75.5142L383.803 77.5932H387.847L388.043 75.5142C389.376 75.2396 390.644 74.7176 391.784 73.9754L393.424 75.3014L396.278 72.453L394.95 70.816C395.672 69.6864 396.176 68.4315 396.434 67.1165L398.518 66.92V62.9094L396.434 62.713C396.159 61.3834 395.636 60.1174 394.892 58.9806L396.221 57.3436L393.367 54.4871L391.726 55.8212C390.589 55.0748 389.32 54.5525 387.986 54.2825L387.789 52.1953H383.745L383.549 54.2825C382.215 54.5525 380.945 55.0748 379.808 55.8212L378.168 54.4871L375.305 57.3436L376.7 58.9806ZM389.659 61.0596C390.425 61.823 390.946 62.7957 391.157 63.8548C391.369 64.9139 391.261 66.0118 390.847 67.0095C390.433 68.0073 389.731 68.8601 388.832 69.4602C387.932 70.0602 386.874 70.3804 385.792 70.3804C384.71 70.3804 383.652 70.0602 382.752 69.4602C381.852 68.8601 381.151 68.0073 380.737 67.0095C380.323 66.0118 380.215 64.9139 380.426 63.8548C380.638 62.7957 381.159 61.823 381.925 61.0596C382.95 60.0365 384.342 59.4617 385.792 59.4617C387.242 59.4617 388.633 60.0365 389.659 61.0596Z" fill="#F5F5F5"/>
<path d="M106.142 174.765C105.394 175.899 104.871 177.166 104.6 178.497L102.509 178.694V182.729L104.6 182.925C104.871 184.256 105.394 185.523 106.142 186.658L104.805 188.295L107.668 191.151L109.308 189.817C110.445 190.563 111.715 191.086 113.049 191.356L113.246 193.443H117.281L117.478 191.356C118.812 191.086 120.081 190.563 121.218 189.817L122.858 191.151L125.713 188.295L124.384 186.658C125.124 185.519 125.647 184.254 125.926 182.925L128.009 182.729V178.694L125.926 178.497C125.648 177.167 125.122 175.901 124.376 174.765L125.713 173.128L122.858 170.271L121.218 171.605C120.081 170.859 118.812 170.337 117.478 170.067L117.281 167.979H113.213L113.016 170.067C111.682 170.337 110.413 170.859 109.276 171.605L107.635 170.271L104.773 173.128L106.142 174.765ZM119.102 176.852C119.866 177.616 120.386 178.589 120.597 179.647C120.807 180.706 120.698 181.803 120.284 182.8C119.87 183.798 119.169 184.65 118.269 185.249C117.37 185.849 116.312 186.169 115.23 186.169C114.149 186.169 113.091 185.849 112.192 185.249C111.292 184.65 110.591 183.798 110.177 182.8C109.763 181.803 109.654 180.706 109.864 179.647C110.075 178.589 110.595 177.616 111.359 176.852C112.386 175.828 113.779 175.253 115.23 175.253C116.682 175.253 118.075 175.828 119.102 176.852Z" fill="#F5F5F5"/>
<path d="M471.894 125.704C470.615 127.658 469.716 129.835 469.245 132.121L465.661 132.457V139.389L469.245 139.725C469.715 142.009 470.614 144.184 471.894 146.134L469.606 148.9L474.527 153.811L477.3 151.52C479.254 152.8 481.433 153.699 483.722 154.171L484.058 157.748H491.005L491.342 154.171C493.631 153.699 495.81 152.8 497.764 151.52L500.536 153.811L505.458 148.9L503.169 146.134C504.45 144.184 505.349 142.009 505.819 139.725L509.403 139.389V132.457L505.819 132.121C505.348 129.834 504.446 127.656 503.161 125.704L505.458 122.946L500.536 118.035L497.748 120.319C495.793 119.041 493.614 118.144 491.325 117.675L490.989 114.098H484.042L483.706 117.675C481.417 118.144 479.238 119.041 477.283 120.319L474.511 118.035L469.59 122.946L471.894 125.704ZM494.163 129.322C495.48 130.634 496.378 132.307 496.742 134.129C497.106 135.95 496.92 137.838 496.208 139.555C495.497 141.271 494.291 142.738 492.744 143.77C491.196 144.802 489.377 145.353 487.515 145.353C485.654 145.353 483.835 144.802 482.287 143.77C480.74 142.738 479.534 141.271 478.822 139.555C478.111 137.838 477.925 135.95 478.289 134.129C478.653 132.307 479.551 130.634 480.868 129.322C482.632 127.564 485.023 126.577 487.515 126.577C490.008 126.577 492.399 127.564 494.163 129.322Z" fill="#EBEBEB"/>
<path d="M333.802 164.583C332.514 166.549 331.607 168.74 331.128 171.041L327.52 171.384V178.366L331.128 178.71C331.608 181.01 332.515 183.201 333.802 185.168L331.498 187.951L336.419 192.862L339.208 190.554C341.179 191.845 343.377 192.75 345.687 193.222L346.024 196.831H353.028L353.365 193.222C355.675 192.75 357.874 191.845 359.844 190.554L362.633 192.862L367.554 187.951L365.241 185.168C366.53 183.201 367.437 181.011 367.915 178.71L371.524 178.366V171.384L367.973 171.065C367.494 168.764 366.587 166.574 365.299 164.607L367.604 161.824L362.682 156.913L359.894 159.222C357.923 157.93 355.724 157.025 353.414 156.553L353.078 152.944H346.073L345.737 156.553C343.428 157.025 341.23 157.928 339.257 159.213L336.468 156.913L331.547 161.824L333.802 164.583ZM356.252 168.184C357.579 169.507 358.483 171.193 358.849 173.029C359.216 174.864 359.029 176.767 358.312 178.497C357.594 180.226 356.379 181.704 354.819 182.744C353.26 183.785 351.426 184.34 349.551 184.34C347.675 184.34 345.841 183.785 344.282 182.744C342.722 181.704 341.507 180.226 340.79 178.497C340.072 176.767 339.885 174.864 340.252 173.029C340.618 171.193 341.522 169.507 342.849 168.184C344.627 166.414 347.035 165.42 349.546 165.42C352.058 165.42 354.466 166.414 356.244 168.184H356.252Z" fill="#EBEBEB"/>
<path d="M354.324 230.439C352.16 233.741 350.638 237.42 349.838 241.284L343.776 241.857V253.578L349.838 254.151C350.639 258.014 352.161 261.693 354.324 264.996L350.453 269.661L358.762 277.952L363.437 274.089C366.74 276.247 370.422 277.763 374.288 278.558L374.863 284.615H386.592L387.166 278.566C391.052 277.771 394.753 276.252 398.075 274.089L402.75 277.952L411.059 269.661L407.187 264.996C409.351 261.693 410.872 258.014 411.674 254.151L417.735 253.578V241.857L411.674 241.284C410.872 237.42 409.351 233.741 407.187 230.439L411.059 225.773L402.75 217.482L398.075 221.345C394.76 219.197 391.071 217.69 387.199 216.901L386.624 210.844H374.879L374.288 216.901C370.417 217.701 366.73 219.219 363.42 221.378L358.745 217.507L350.436 225.798L354.324 230.439ZM391.997 236.496C394.221 238.715 395.736 241.543 396.35 244.622C396.964 247.7 396.649 250.891 395.445 253.791C394.242 256.692 392.203 259.17 389.588 260.914C386.972 262.658 383.897 263.589 380.752 263.589C377.606 263.589 374.531 262.658 371.916 260.914C369.3 259.17 367.262 256.692 366.058 253.791C364.854 250.891 364.54 247.7 365.153 244.622C365.767 241.543 367.282 238.715 369.506 236.496C370.982 235.02 372.735 233.85 374.665 233.051C376.594 232.252 378.663 231.841 380.752 231.841C382.841 231.841 384.909 232.252 386.839 233.051C388.768 233.85 390.521 235.02 391.997 236.496Z" fill="#EBEBEB"/>
<path d="M574.84 328.257C574.84 331.032 458.976 333.283 316.053 333.283C173.13 333.283 57.2656 331.032 57.2656 328.257C57.2656 325.482 173.13 323.24 316.053 323.24C458.976 323.24 574.84 325.49 574.84 328.257Z" fill="#F5F5F5"/>
<path d="M96.2998 185.651C81.339 203.109 76.9754 228.949 85.3663 250.312C94.684 242.012 101.254 229.358 101.664 218.284C102.074 207.21 99.1788 196.348 96.2998 185.651Z" fill="#407BFF"/>
<path d="M93.6915 252.358C88.5954 260.197 86.2075 269.484 86.8919 278.804C94.9792 275.996 102.107 266.886 106.38 259.479C110.654 252.072 113.04 243.764 115.214 235.497C106.39 238.627 98.8325 244.547 93.6915 252.358Z" fill="#407BFF"/>
<path d="M91.8214 216.14C85.8143 237.728 82.779 260.032 82.799 282.438C82.799 288.805 83.0533 295.162 83.5618 301.509C83.5618 301.901 84.2016 301.901 84.177 301.509C82.406 279.161 83.703 256.676 88.032 234.678C89.2514 228.496 90.7114 222.371 92.4119 216.303C92.4257 216.227 92.4102 216.148 92.3687 216.082C92.3272 216.017 92.2625 215.969 92.1875 215.949C92.1125 215.928 92.0325 215.936 91.9632 215.972C91.8939 216.007 91.8404 216.067 91.8132 216.14H91.8214Z" fill="#263238"/>
<path d="M83.7012 286.105C89.9326 271.573 97.8321 257.813 107.241 245.098C107.471 244.771 106.938 244.468 106.708 244.787C99.3547 254.752 92.899 265.346 87.4168 276.446C85.8912 279.573 84.4558 282.738 83.1107 285.941C82.9548 286.309 83.5536 286.465 83.7012 286.105Z" fill="#263238"/>
<path d="M74.9987 264.447C79.2363 270.979 81.2206 278.713 80.65 286.473C73.9078 284.132 67.9612 276.528 64.4015 270.357C60.8417 264.185 58.8486 257.261 57.0195 250.361C64.3931 252.971 70.7077 257.919 74.9987 264.447Z" fill="#407BFF"/>
<path d="M83.5208 291.613C78.4024 279.735 71.9145 268.492 64.1882 258.112C63.9504 257.793 63.4172 258.112 63.6551 258.415C71.3542 268.752 77.8227 279.948 82.9302 291.777C83.0779 292.129 83.6766 291.973 83.5208 291.613Z" fill="#263238"/>
<path d="M83.7586 295.583C93.2732 285.81 102.985 276.242 112.466 266.469C112.509 266.409 112.529 266.336 112.523 266.263C112.517 266.189 112.485 266.12 112.433 266.068C112.381 266.016 112.312 265.984 112.238 265.978C112.165 265.972 112.092 265.992 112.032 266.035C102.517 275.808 92.8057 285.376 83.3239 295.149C83.2811 295.209 83.261 295.282 83.2671 295.355C83.2732 295.429 83.3052 295.497 83.3573 295.549C83.4095 295.601 83.4784 295.633 83.5519 295.639C83.6253 295.645 83.6986 295.625 83.7586 295.583Z" fill="#263238"/>
<path d="M112.86 261.983C104.598 269.933 97.0861 278.624 90.4188 287.946H91.9362C95.0893 287.799 98.1751 286.985 100.989 285.558C103.803 284.131 106.281 282.123 108.26 279.669C110.238 277.214 111.671 274.368 112.464 271.319C113.257 268.27 113.392 265.088 112.86 261.983Z" fill="#407BFF"/>
<path d="M73.7848 243.035C77.3281 248.819 80.6664 254.723 83.7996 260.748C83.9801 261.1 84.505 260.789 84.3246 260.437C81.1968 254.434 77.8613 248.533 74.3179 242.733C74.1046 242.389 73.5797 242.733 73.7848 243.035Z" fill="#263238"/>
<path d="M65.2381 213.832C63.8847 219.905 62.5396 227.795 62.5314 234.114C62.5232 240.433 64.4507 246.596 68.0432 250.827C71.6358 255.059 78.9029 256.917 81.8311 254.494L65.2381 213.832Z" fill="#407BFF"/>
<path d="M101.106 298.398H65.0494V305.069H101.106V298.398Z" fill="#263238"/>
<path d="M95.2745 328.83H72.8825L68.806 303.538H98.4816L95.2745 328.83Z" fill="#263238"/>
<path opacity="0.2" d="M69.0767 305.192H98.2765L97.9156 308.057H69.536L69.0767 305.192Z" fill="black"/>
<path d="M521.255 154.278C524.26 152.559 527.679 151.693 531.142 151.773C534.604 151.853 537.979 152.876 540.901 154.732C543.824 156.587 546.182 159.205 547.72 162.301C549.259 165.398 549.921 168.855 549.633 172.3C549.345 175.744 548.119 179.044 546.087 181.844C544.055 184.643 541.295 186.835 538.105 188.182C534.915 189.529 531.417 189.98 527.989 189.486C524.561 188.992 521.333 187.573 518.655 185.381L513.02 186.265L514.357 180.396C514.308 180.306 514.242 180.224 514.185 180.134C511.69 175.769 511.033 170.594 512.359 165.746C513.685 160.898 516.884 156.773 521.255 154.278Z" fill="#407BFF"/>
<path d="M524.626 150.071C521.59 150.69 518.754 152.046 516.368 154.019C513.982 155.992 512.119 158.521 510.945 161.382" stroke="#407BFF" stroke-width="0.5" stroke-linecap="round" stroke-linejoin="round"/>
<path d="M509.994 164.042C509.578 164.891 509.344 165.816 509.305 166.76" stroke="#407BFF" stroke-width="0.5" stroke-linecap="round" stroke-linejoin="round"/>
<path d="M528.457 177.9L520.435 170.599L522.986 167.808L528.366 172.702L537.307 163.993L539.948 166.703L528.457 177.9Z" fill="white"/>
<path d="M325.551 33.2063C328.708 31.3727 332.307 30.4351 335.959 30.4949C339.612 30.5546 343.178 31.6095 346.273 33.5454C349.368 35.4814 351.874 38.2247 353.52 41.4788C355.165 44.733 355.889 48.3742 355.611 52.0087C355.333 55.6432 354.065 59.1328 351.944 62.1002C349.822 65.0677 346.928 67.4 343.575 68.8452C340.222 70.2903 336.536 70.7932 332.917 70.2996C329.298 69.8059 325.883 68.3345 323.041 66.0443L317.103 67.0183L318.514 60.8223C318.449 60.7326 318.388 60.6397 318.333 60.544C315.659 55.9633 314.917 50.5104 316.27 45.384C317.624 40.2576 320.962 35.8774 325.551 33.2063Z" fill="#407BFF"/>
<path d="M352.963 35.8418C350.985 33.2453 348.395 31.1768 345.423 29.8203C342.451 28.4637 339.189 27.8611 335.927 28.0661" stroke="#407BFF" stroke-width="0.5" stroke-linecap="round" stroke-linejoin="round"/>
<path d="M332.966 28.3853C331.969 28.3779 330.982 28.5816 330.07 28.9828" stroke="#407BFF" stroke-width="0.5" stroke-linecap="round" stroke-linejoin="round"/>
<path d="M344.309 47.62H325.584V52.2936H344.309V47.62Z" fill="white"/>
<path d="M342.579 54.8391V45.4019L347.188 50.1164L342.579 54.8391Z" fill="white"/>
<path d="M448.174 152.002C448.174 152.002 447.673 160.572 443.482 175.591C440.848 184.874 437.654 193.99 433.918 202.888C431.819 207.914 429.424 213.25 426.668 218.865C425.421 221.419 424.092 224.014 422.698 226.674C421.098 272.141 395.524 318.345 395.524 318.345C394.105 319.073 389.159 318.279 389.192 316.839C392.981 310.848 400.429 252.587 405.235 224.947C405.531 221.19 405.965 217.212 406.498 213.005C407.901 201.849 409.984 189.719 412.027 179.046C415.209 162.234 418.228 149.056 418.228 149.056L426.651 149.874L448.174 152.002Z" fill="#EEC1BB"/>
<path d="M395.245 328.167H393.81L393.399 326.358L388.527 328.568H376.183C376.183 328.568 374.223 326.603 380.096 325.04C380.379 324.961 380.654 324.854 380.916 324.721C384.049 323.256 388.495 318.304 388.495 318.304H395.261C395.468 318.618 395.652 318.946 395.811 319.286C396.566 320.743 397.837 323.902 395.245 328.167Z" fill="#263238"/>
<path d="M395.819 319.27C394.941 318.271 390.898 322.634 387.896 324.123C385.238 325.441 382.253 326.031 380.924 324.688C384.057 323.223 389.635 316.348 389.635 316.348L394.417 316.822C394.417 316.822 395.516 318.623 395.819 319.27Z" fill="#EEC1BB"/>
<path d="M458.221 214.945C457.549 219.856 456.674 225.089 455.597 230.643C464.734 261.05 445.951 320.408 445.951 320.408C442.768 321.038 439.955 320.629 438.569 319.589C442.112 301.705 439.57 255.206 436.814 227.427C436.568 224.906 436.256 222.131 435.928 219.176C435.362 214.159 434.689 208.634 433.967 202.921C432.745 193.369 431.384 183.318 430.162 174.405C428.652 163.633 427.348 154.515 426.668 149.932C426.397 147.926 426.225 146.789 426.225 146.789L452.595 149.637C452.595 149.637 459.304 157.134 460.346 180.568C460.675 192.067 459.964 203.573 458.221 214.945Z" fill="#EEC1BB"/>
<path d="M446.599 328.167H445.131L444.721 326.358L439.857 328.568H427.553C427.553 328.568 425.593 326.603 431.474 325.04C431.757 324.96 432.032 324.853 432.294 324.721C435.411 323.256 439.873 318.304 439.873 318.304H446.64C446.842 318.62 447.026 318.948 447.189 319.286C447.919 320.743 449.158 323.902 446.599 328.167Z" fill="#263238"/>
<path d="M447.173 319.27C446.279 318.271 442.252 322.634 439.241 324.123C436.584 325.441 433.59 326.031 432.278 324.688C435.395 323.223 440.324 316.823 440.324 316.823H445.762C445.762 316.823 446.853 318.623 447.173 319.27Z" fill="#EEC1BB"/>
<path d="M465.144 85.9419C463.791 84.7796 461.609 85.2216 459.747 85.0088C458.395 84.7889 457.115 84.2492 456.015 83.4346C454.915 82.6201 454.026 81.5545 453.423 80.327C452.209 78.0107 451.856 75.4161 451.422 72.8951C450.987 70.3741 450.429 67.7795 448.871 65.6351C447.312 63.4906 443.58 60.8387 440.865 62.4593L437.232 68.0824C439.409 74.653 441.184 81.3497 442.547 88.1355C443.154 91.1557 443.753 94.356 445.951 96.7051C448.149 99.0542 451.512 100.135 454.858 100.356C456.55 100.519 458.256 100.304 459.854 99.7253C460.613 99.4593 461.3 99.0195 461.858 98.4409C462.416 97.8624 462.831 97.1614 463.069 96.3941C463.233 95.6213 463.116 94.8154 462.739 94.1209C462.361 93.4265 461.749 92.8888 461.01 92.6044C462.554 92.0867 463.957 91.2213 465.111 90.0753C466.153 88.8557 466.358 86.9732 465.144 85.9419Z" fill="#263238"/>
<path d="M413.052 57.9412C411.412 59.4453 410.182 61.3412 409.479 63.4505C408.776 65.5597 408.622 67.8128 409.033 69.9976C410.427 74.3275 412.543 77.184 414.528 81.2683L421.566 53.2021C418.917 54.2416 417.571 53.8979 413.052 57.9412Z" fill="#263238"/>
<path d="M425.593 53.0303C433.705 53.194 441.858 59.9711 442.498 66.5354C443.138 73.0997 436.658 81.5875 435.444 82.0868L431.597 83.4864C431.597 83.4864 435.838 73.6645 434.058 71.0862C432.278 68.508 431.023 68.4425 431.023 68.4425L425.593 53.0303Z" fill="#263238"/>
<path d="M418.703 54.5854C422.927 51.606 427.914 53.3167 430.867 54.5854C432.517 55.5338 433.946 56.821 435.061 58.3618C436.175 59.9026 436.948 61.6619 437.33 63.5233C437.978 67.051 438.758 71.3317 436.953 73.5662C436.459 74.1969 435.84 74.7188 435.134 75.0991C434.428 75.4795 433.651 75.71 432.852 75.7762L412.404 62.844C413.768 59.6028 415.936 56.761 418.703 54.5854Z" fill="#263238"/>
<path d="M426.946 102.426C428.546 103.572 429.694 102.885 431.359 101.821C441.341 96.0421 437.24 91.4667 437.24 91.4667C434.779 89.4614 434.173 86.6376 434.123 82.1768C434.116 82.047 434.097 81.9183 434.066 81.7921C433.955 81.2174 433.669 80.6911 433.246 80.2861C432.7 79.7463 431.963 79.4434 431.195 79.4434C430.427 79.4434 429.69 79.7463 429.145 80.2861L424.609 82.5206V82.7334C425.027 85.107 425.429 86.9322 425.675 88.381C425.693 88.5569 425.72 88.7318 425.757 88.9048C425.768 89.087 425.795 89.2678 425.839 89.445C426.085 91.4503 423.255 94.9698 422.009 95.9029C421.246 96.5086 421.533 98.5876 426.946 102.426Z" fill="#EEC1BB"/>
<path opacity="0.2" d="M424.592 82.4305C424.601 82.5039 424.601 82.578 424.592 82.6515C425.011 85.0169 425.413 86.8503 425.659 88.2991C425.699 88.4715 425.726 88.6465 425.741 88.8229C425.753 89.011 425.753 89.1996 425.741 89.3877C429.191 87.7362 432.053 85.0716 433.943 81.7511C433.825 81.1767 433.54 80.6498 433.123 80.2369C432.585 79.6903 431.853 79.3769 431.086 79.3646C430.318 79.3524 429.577 79.6422 429.022 80.1714L424.592 82.4305Z" fill="black"/>
<path d="M434.739 65.013C436.043 73.1979 436.781 76.6438 433.697 81.7839C429.063 89.5105 418.933 89.5187 415.217 81.9149C411.936 75.0559 410.296 62.8276 417.333 57.6793C424.371 52.5309 433.426 56.8117 434.739 65.013Z" fill="#EEC1BB"/>
<path d="M439.635 71.3481C439.186 73.0682 438.071 74.54 436.535 75.4406C434.542 76.5538 432.508 73.4189 432.655 71.078C432.733 70.0184 433.19 69.022 433.943 68.2707C434.696 67.5194 435.694 67.0633 436.756 66.9856C438.905 66.871 440.218 69.1628 439.635 71.3481Z" fill="#EEC1BB"/>
<path opacity="0.2" d="M434.985 72.142C434.831 71.3549 434.99 70.5391 435.427 69.8666C435.875 69.2001 436.567 68.7357 437.355 68.5734" stroke="black" stroke-width="0.5" stroke-linecap="round" stroke-linejoin="round"/>
<path d="M424.715 70.4724C424.912 71.3318 424.642 72.1585 424.108 72.314C423.575 72.4695 422.993 71.8965 422.804 71.0289C422.616 70.1613 422.886 69.3428 423.411 69.1873C423.936 69.0318 424.527 69.572 424.715 70.4724Z" fill="#263238"/>
<path d="M416.735 72.6004C416.923 73.4189 416.645 74.2374 416.12 74.4011C415.595 74.5648 415.012 74 414.832 73.1569C414.651 72.3139 414.922 71.52 415.447 71.3644C415.972 71.2089 416.554 71.7655 416.735 72.6004Z" fill="#263238"/>
<path d="M425.601 67.0428C425.501 67.0837 425.389 67.0837 425.29 67.0428C424.848 66.8057 424.355 66.6815 423.854 66.6815C423.353 66.6815 422.86 66.8057 422.419 67.0428C422.374 67.0705 422.325 67.0889 422.273 67.0968C422.222 67.1048 422.169 67.1022 422.118 67.0892C422.068 67.0762 422.02 67.053 421.979 67.0211C421.937 66.9892 421.903 66.9493 421.877 66.9036C421.83 66.8034 421.82 66.6892 421.85 66.5823C421.88 66.4754 421.948 66.3831 422.041 66.3225C422.598 66.0202 423.221 65.8618 423.854 65.8618C424.487 65.8618 425.111 66.0202 425.667 66.3225C425.76 66.3788 425.829 66.4688 425.858 66.5739C425.887 66.679 425.874 66.7911 425.823 66.8873C425.766 66.9598 425.689 67.0139 425.601 67.0428Z" fill="#263238"/>
<path d="M412.953 69.2773C412.909 69.2741 412.865 69.2615 412.826 69.2403C412.786 69.2192 412.751 69.1899 412.724 69.1545C412.665 69.0674 412.638 68.9624 412.649 68.8577C412.659 68.7531 412.706 68.6554 412.781 68.5816C413.178 68.1368 413.683 67.8016 414.248 67.608C414.813 67.4145 415.418 67.3693 416.005 67.4766C416.052 67.4939 416.095 67.5204 416.132 67.5546C416.169 67.5887 416.198 67.6299 416.219 67.6757C416.24 67.7214 416.251 67.7708 416.252 67.821C416.253 67.8711 416.245 67.921 416.226 67.9677C416.204 68.0659 416.145 68.1518 416.061 68.2069C415.976 68.2619 415.874 68.2819 415.775 68.2624C415.309 68.185 414.83 68.2278 414.385 68.3868C413.94 68.5458 413.543 68.8157 413.232 69.1709C413.196 69.2067 413.152 69.2345 413.104 69.2528C413.056 69.2711 413.005 69.2795 412.953 69.2773Z" fill="#263238"/>
<path d="M418.802 71.6182C418.543 73.537 418.087 75.424 417.44 77.2494C417.404 77.343 417.39 77.4436 417.4 77.5433C417.41 77.6431 417.443 77.7392 417.496 77.8241C417.549 77.909 417.622 77.9805 417.707 78.0327C417.793 78.085 417.89 78.1166 417.99 78.1252C418.751 78.1474 419.504 77.9575 420.163 77.5768L418.802 71.6182Z" fill="#D4827D"/>
<path d="M423.731 69.1382L421.755 69.2037C421.755 69.2037 423.141 70.3086 423.731 69.1382Z" fill="#263238"/>
<path d="M415.644 71.3318L413.667 71.3973C413.667 71.3973 415.061 72.5022 415.644 71.3318Z" fill="#263238"/>
<path d="M432.27 67.5257C432.27 67.5257 426.618 63.0404 425.642 58.5223C425.642 58.5223 408.237 57.8593 412.412 71.9865C412.412 71.9865 406.523 60.1839 419.794 55.6658C433.065 51.1477 439.184 68.4343 434.164 75.768C434.082 75.7025 435.805 70.3332 432.27 67.5257Z" fill="#263238"/>
<path d="M413.93 58.5632C412.444 60.6128 411.651 63.0811 411.666 65.6104C411.994 67.3866 414.651 68.2296 414.651 68.2296L416.94 63.8425L417.555 67.2474C419.568 66.7384 421.395 65.6698 422.823 64.1659C424.252 62.662 425.224 60.7845 425.626 58.7515L422.041 54.4216C422.041 54.4216 415.299 56.8853 413.93 58.5632Z" fill="#263238"/>
<path d="M423.559 79.0419C423.833 79.0869 424.114 79.067 424.379 78.9838C424.644 78.9005 424.885 78.7563 425.084 78.5627C425.283 78.3691 425.433 78.1316 425.523 77.8694C425.613 77.6071 425.64 77.3275 425.601 77.053" stroke="#263238" stroke-width="0.5" stroke-linecap="round" stroke-linejoin="round"/>
<path opacity="0.2" d="M439.775 76.3818C439.775 76.3818 445.91 68.7944 441.103 62.3201C441.103 62.3201 444.647 64.7756 443.974 68.9417C443.441 72.2402 442.006 74.9085 439.775 76.3818Z" fill="black"/>
<path opacity="0.2" d="M458.221 214.945C451.008 217.373 443.491 218.786 435.887 219.143C435.321 214.126 434.648 208.601 433.927 202.888C431.835 207.914 429.432 213.25 426.676 218.865C419.64 218.228 412.793 216.247 406.507 213.029C407.909 201.873 409.993 189.743 412.043 179.078C414.848 177.437 417.88 176.218 421.041 175.46C424.025 174.738 427.083 174.362 430.153 174.339C434.639 174.322 439.116 174.733 443.523 175.567C449.247 176.624 454.847 178.27 460.231 180.478C460.604 192.004 459.931 203.54 458.221 214.945Z" fill="black"/>
<path d="M417.76 146.756H452.775L453.727 151.258C453.727 151.258 466.588 169.019 460.067 213.316C460.067 213.316 431.892 216.59 405.358 210.86C405.358 210.86 411.321 165.352 417.539 150.496L417.76 146.756Z" fill="#263238"/>
<path d="M450.962 133.013L453.423 151.593L415.037 150.054C414.938 146.06 418.506 135.469 418.088 132.571C416.923 128.995 411.026 123.568 409.459 119.271C407.819 113.263 411.239 96.7623 412.371 96.2385C413.733 95.6 415.439 95.6573 416.472 95.199C420.573 94.2413 429.817 90.9346 433.967 90.419C434.788 90.3453 435.567 90.2062 436.362 90.1079C436.362 90.1079 452.07 89.3549 452.767 95.731C450.503 108.023 449.896 120.561 450.962 133.013Z" fill="#407BFF"/>
<path opacity="0.2" d="M450.659 129.076L450.347 123.985L444.532 108.172L449.092 126.793L434.648 131.835L450.659 129.076Z" fill="black"/>
<path opacity="0.2" d="M433.943 145.692C434.46 145.626 439.012 140.683 439.012 140.683L452.053 141.174L451.422 136.467C451.807 136.165 436.19 136.877 436.19 136.877L433.943 141.73V145.692Z" fill="black"/>
<path d="M446.886 91.5894C447.558 91.6795 450.282 90.1325 455.211 96.4513C460.141 102.77 465.669 126.842 465.981 130.362C466.374 134.822 463.397 137.016 460.42 137.507C451.512 138.98 435.058 139.275 435.058 139.275V131.712L451.463 128.004C451.463 128.004 442.145 105.627 443.621 99.8562C445.098 94.0859 446.886 91.5894 446.886 91.5894Z" fill="#407BFF"/>
<path d="M439.504 90.0915C438.916 93.2247 437.439 96.1239 435.25 98.4451C433.061 100.766 430.25 102.412 427.151 103.187C424.929 103.719 422.435 102.492 420.68 101.035C418.899 99.5498 417.711 97.4759 417.333 95.1908C425.06 92.1623 432.056 89.5513 439.504 90.0915Z" fill="#EEC1BB"/>
<path opacity="0.2" d="M451.471 128.004C451.471 128.004 454.137 127.849 455.269 129.306C455.269 129.306 454.588 126.523 451.102 127.104L451.471 128.004Z" fill="black"/>
<path d="M429.752 176.533V92.2279H345.359V125.925C346.893 126.506 351.921 126.891 353.406 126.318C356.071 125.328 354.332 122.267 356.908 121.063C360.697 119.279 365.43 121.792 367.415 125.475C368.957 128.332 369.244 129.83 369.105 132.301C369.244 134.757 368.957 136.263 367.415 139.128C365.43 142.811 360.697 145.324 356.908 143.539C354.332 142.328 356.424 139.34 353.758 138.35C352.241 137.785 346.893 138.096 345.359 138.677V176.565H383.089C383.151 177.398 383.036 178.235 382.753 179.021C381.761 181.681 378.931 183.261 377.717 185.831C375.929 189.612 378.447 194.335 382.138 196.316C385 197.855 386.501 198.149 388.978 198.002C391.439 198.149 392.957 197.855 395.819 196.316C399.51 194.335 402.028 189.612 400.24 185.831C399.034 183.261 396.196 181.681 395.204 179.021C394.921 178.235 394.806 177.398 394.868 176.565L429.752 176.533Z" fill="#407BFF"/>
<path d="M433.943 176.533V92.2279H349.551V125.925C351.054 126.547 352.733 126.603 354.275 126.081C356.941 125.09 358.524 122.267 361.091 121.063C364.889 119.279 369.613 121.792 371.606 125.475C373.148 128.332 373.435 129.83 373.296 132.301C373.435 134.757 373.148 136.263 371.606 139.128C369.613 142.811 364.889 145.324 361.091 143.539C358.524 142.328 356.941 139.504 354.275 138.514C352.732 137.995 351.053 138.053 349.551 138.677V176.565H387.281C387.342 177.398 387.228 178.235 386.944 179.021C385.952 181.681 383.114 183.261 381.908 185.831C380.12 189.612 382.638 194.335 386.329 196.316C389.192 197.855 390.693 198.149 393.17 198.002C395.63 198.149 397.14 197.855 400.01 196.316C403.701 194.335 406.22 189.612 404.431 185.831C403.218 183.261 400.388 181.681 399.395 179.021C399.112 178.235 398.997 177.398 399.059 176.565L433.943 176.533Z" fill="#407BFF"/>
<g opacity="0.3">
<path d="M433.943 176.533V92.2279H349.551V125.925C351.054 126.547 352.733 126.603 354.275 126.081C356.941 125.09 358.524 122.267 361.091 121.063C364.889 119.279 369.613 121.792 371.606 125.475C373.148 128.332 373.435 129.83 373.296 132.301C373.435 134.757 373.148 136.263 371.606 139.128C369.613 142.811 364.889 145.324 361.091 143.539C358.524 142.328 356.941 139.504 354.275 138.514C352.732 137.995 351.053 138.053 349.551 138.677V176.565H387.281C387.342 177.398 387.228 178.235 386.944 179.021C385.952 181.681 383.114 183.261 381.908 185.831C380.12 189.612 382.638 194.335 386.329 196.316C389.192 197.855 390.693 198.149 393.17 198.002C395.63 198.149 397.14 197.855 400.01 196.316C403.701 194.335 406.22 189.612 404.431 185.831C403.218 183.261 400.388 181.681 399.395 179.021C399.112 178.235 398.997 177.398 399.059 176.565L433.943 176.533Z" fill="white"/>
</g>
<path d="M433.943 133.193C433.943 133.193 428.283 134.601 427.66 135.935C427.037 137.27 429.136 137.163 429.136 137.163C429.136 137.163 426.832 137.417 426.807 138.399C426.807 139.586 428.981 139.471 428.981 139.471C428.981 139.471 427.11 139.758 427.143 140.634C427.176 141.509 429.67 141.591 429.67 141.591C429.67 141.591 428.398 142.041 428.767 142.639C429.136 143.236 434.419 143.457 435.969 142.451C437.519 141.444 437.535 134.699 437.232 133.218C436.928 131.737 435.805 130.951 433.951 128.708V133.193H433.943Z" fill="#EEC1BB"/>
<path opacity="0.2" d="M429.136 137.27L433.123 136.639C433.15 136.632 433.174 136.614 433.189 136.59C433.204 136.566 433.21 136.537 433.205 136.508C433.201 136.482 433.187 136.457 433.165 136.441C433.144 136.424 433.117 136.416 433.09 136.418L429.104 137.049C429.089 137.052 429.076 137.057 429.064 137.065C429.052 137.074 429.042 137.084 429.034 137.097C429.027 137.109 429.022 137.122 429.019 137.137C429.017 137.151 429.018 137.166 429.022 137.18C429.046 137.237 429.087 137.278 429.136 137.27Z" fill="black"/>
<path opacity="0.2" d="M429.095 139.578L432.967 139.275C432.981 139.273 432.994 139.268 433.007 139.261C433.019 139.254 433.029 139.244 433.038 139.233C433.046 139.221 433.052 139.208 433.056 139.194C433.059 139.18 433.059 139.166 433.057 139.152C433.057 139.139 433.054 139.125 433.049 139.113C433.043 139.1 433.035 139.089 433.025 139.08C433.015 139.07 433.004 139.063 432.991 139.059C432.978 139.055 432.964 139.053 432.95 139.054L429.079 139.357C429.055 139.363 429.033 139.378 429.018 139.398C429.003 139.418 428.995 139.442 428.995 139.467C428.995 139.492 429.003 139.517 429.018 139.537C429.033 139.557 429.055 139.571 429.079 139.578H429.095Z" fill="black"/>
<path opacity="0.2" d="M429.809 141.698L432.696 141.559C432.724 141.555 432.749 141.541 432.767 141.52C432.785 141.499 432.795 141.472 432.795 141.444C432.795 141.378 432.745 141.329 432.688 141.338L429.801 141.477C429.787 141.478 429.774 141.481 429.762 141.488C429.749 141.494 429.739 141.503 429.73 141.514C429.722 141.525 429.716 141.537 429.712 141.551C429.709 141.564 429.708 141.578 429.711 141.591C429.711 141.657 429.76 141.706 429.809 141.698Z" fill="black"/>
<path d="M369.162 130.959C369.162 130.959 375.232 132.653 375.855 133.979C376.478 135.305 374.379 135.207 374.379 135.207C374.379 135.207 376.675 135.461 376.7 136.451C376.7 137.638 374.534 137.523 374.534 137.523C374.534 137.523 376.405 137.802 376.364 138.686C376.323 139.57 373.837 139.643 373.837 139.643C373.837 139.643 375.117 140.093 374.748 140.691C374.379 141.288 369.096 141.509 367.538 140.495C365.98 139.48 365.98 132.743 366.283 131.27C366.587 129.797 366.71 130.034 368.571 127.792L368.908 129.044C369 129.387 369.061 129.737 369.088 130.091L369.162 130.959Z" fill="#EEC1BB"/>
<path opacity="0.2" d="M374.37 135.322L370.384 134.691C370.358 134.684 370.336 134.667 370.321 134.645C370.306 134.622 370.299 134.595 370.302 134.569C370.303 134.555 370.307 134.541 370.313 134.528C370.32 134.516 370.328 134.505 370.339 134.496C370.35 134.486 370.362 134.48 370.375 134.475C370.389 134.471 370.403 134.469 370.417 134.47L374.403 135.109C374.429 135.116 374.452 135.133 374.467 135.155C374.482 135.178 374.488 135.205 374.485 135.232C374.48 135.257 374.465 135.281 374.444 135.297C374.423 135.314 374.397 135.322 374.37 135.322Z" fill="black"/>
<path opacity="0.2" d="M374.411 137.621L370.532 137.319C370.483 137.319 370.442 137.261 370.442 137.204C370.443 137.176 370.455 137.15 370.475 137.131C370.494 137.111 370.521 137.1 370.548 137.098L374.428 137.4C374.442 137.402 374.455 137.407 374.468 137.415C374.48 137.422 374.49 137.431 374.499 137.443C374.507 137.454 374.513 137.467 374.517 137.481C374.52 137.495 374.52 137.509 374.518 137.523C374.518 137.537 374.515 137.55 374.51 137.563C374.504 137.575 374.496 137.587 374.486 137.596C374.476 137.605 374.464 137.612 374.452 137.617C374.439 137.621 374.425 137.623 374.411 137.621Z" fill="black"/>
<path opacity="0.2" d="M373.698 139.75L370.811 139.602C370.761 139.602 370.72 139.545 370.72 139.488C370.72 139.46 370.732 139.432 370.752 139.413C370.772 139.393 370.799 139.381 370.827 139.381L373.714 139.529C373.741 139.533 373.765 139.547 373.782 139.568C373.799 139.589 373.807 139.616 373.804 139.643C373.804 139.671 373.793 139.699 373.773 139.719C373.753 139.738 373.726 139.75 373.698 139.75Z" fill="black"/>
<path d="M244.841 318.738L253.216 319.556L259.409 298.39L246.662 297.007L244.841 318.738Z" fill="#EEC1BB"/>
<path d="M254.43 315.865H251.444C251.11 315.869 250.782 315.952 250.486 316.105C250.19 316.258 249.934 316.479 249.738 316.749C248.016 319.098 246.72 318.214 244.817 316.004C243.627 315.865 243.308 317.232 243.176 317.6L240.937 325.711C240.891 325.873 240.877 326.041 240.896 326.208C240.915 326.375 240.967 326.536 241.048 326.683C241.13 326.829 241.239 326.959 241.371 327.063C241.502 327.167 241.653 327.245 241.815 327.291C241.935 327.323 242.059 327.34 242.184 327.34H265.937C269.702 327.34 270.49 323.551 268.931 323.199C261.918 321.668 256.997 319.605 254.856 317.576C254.454 317.224 254.864 316.962 254.43 315.865Z" fill="#263238"/>
<path d="M260.918 318.173C261.074 318.063 261.201 317.917 261.29 317.747C261.378 317.578 261.425 317.39 261.426 317.199C261.44 317.096 261.424 316.992 261.38 316.898C261.337 316.803 261.267 316.723 261.18 316.667C260.245 316.004 256.505 317.756 256.087 317.96C256.063 317.967 256.042 317.98 256.025 317.997C256.008 318.014 255.995 318.035 255.988 318.059C255.975 318.1 255.977 318.145 255.995 318.184C256.014 318.224 256.046 318.255 256.087 318.271C257.007 318.485 257.947 318.606 258.892 318.631C259.599 318.695 260.308 318.535 260.918 318.173ZM260.918 316.954C260.954 316.977 260.982 317.01 261 317.049C261.017 317.089 261.023 317.132 261.016 317.175C261.007 317.312 260.97 317.447 260.906 317.569C260.843 317.692 260.755 317.8 260.647 317.887C259.827 318.525 257.744 318.247 256.644 318.042C258.227 317.363 260.434 316.593 260.951 316.954H260.918Z" fill="#407BFF"/>
<path d="M256.218 318.304C257.342 317.838 259.687 315.996 259.564 315.03C259.564 314.825 259.4 314.588 258.892 314.514C256.841 314.285 255.964 317.952 255.964 318.108C255.952 318.139 255.951 318.173 255.96 318.205C255.969 318.238 255.987 318.266 256.013 318.288H256.128L256.218 318.304ZM258.818 314.809C259.204 314.85 259.204 314.989 259.204 315.03C259.31 315.628 257.604 317.158 256.382 317.797C256.636 316.978 257.383 314.801 258.687 314.801L258.818 314.809Z" fill="#407BFF"/>
<path d="M256.505 318.165C255.989 318.238 255.495 318.423 255.057 318.706C254.62 318.988 254.249 319.362 253.97 319.802" stroke="#407BFF" stroke-width="0.5" stroke-linecap="round" stroke-linejoin="round"/>
<path d="M258.367 319.565C257.85 319.639 257.355 319.824 256.917 320.106C256.478 320.389 256.105 320.762 255.824 321.202" stroke="#407BFF" stroke-width="0.5" stroke-linecap="round" stroke-linejoin="round"/>
<path d="M260.68 320.735C260.163 320.808 259.668 320.993 259.229 321.275C258.79 321.558 258.417 321.932 258.137 322.372" stroke="#407BFF" stroke-width="0.5" stroke-linecap="round" stroke-linejoin="round"/>
<path opacity="0.3" d="M256.136 309.579L255.373 312.174L245.522 310.659L245.703 308.531L256.136 309.579Z" fill="black"/>
<path d="M293.603 318.738L301.978 319.556L308.162 298.39L295.424 297.007L293.603 318.738Z" fill="#EEC1BB"/>
<path d="M303.192 315.865H300.198C299.864 315.87 299.537 315.952 299.24 316.106C298.944 316.259 298.688 316.479 298.492 316.749C296.769 319.098 295.474 318.214 293.571 316.004C292.373 315.865 292.053 317.232 291.93 317.6L289.699 325.711C289.653 325.873 289.639 326.041 289.658 326.208C289.677 326.375 289.729 326.536 289.81 326.683C289.892 326.829 290.001 326.959 290.133 327.063C290.264 327.167 290.415 327.245 290.577 327.291C290.697 327.324 290.821 327.341 290.946 327.34H314.642C318.407 327.34 319.186 323.551 317.636 323.199C310.656 321.66 305.71 319.605 303.553 317.584C303.216 317.224 303.627 316.962 303.192 315.865Z" fill="#263238"/>
<path d="M309.68 318.173C309.834 318.06 309.959 317.914 310.047 317.745C310.136 317.576 310.184 317.389 310.188 317.199C310.2 317.096 310.183 316.993 310.14 316.899C310.096 316.805 310.028 316.725 309.942 316.667C309.007 316.004 305.267 317.756 304.849 317.96C304.824 317.967 304.802 317.98 304.784 317.997C304.765 318.014 304.751 318.035 304.742 318.059C304.729 318.101 304.733 318.147 304.752 318.186C304.772 318.226 304.807 318.256 304.849 318.271C305.766 318.485 306.703 318.606 307.646 318.631C308.355 318.695 309.067 318.535 309.68 318.173ZM309.68 316.954C309.718 316.975 309.747 317.008 309.765 317.048C309.783 317.088 309.787 317.132 309.778 317.175C309.771 317.313 309.734 317.447 309.67 317.57C309.607 317.693 309.518 317.801 309.409 317.887C308.589 318.525 306.514 318.247 305.406 318.042C306.981 317.363 309.188 316.593 309.704 316.954H309.68Z" fill="#407BFF"/>
<path d="M304.972 318.304C306.095 317.838 308.449 315.996 308.318 315.03C308.318 314.825 308.154 314.588 307.646 314.514C305.595 314.285 304.717 317.952 304.717 318.108C304.708 318.139 304.708 318.173 304.717 318.205C304.725 318.236 304.743 318.265 304.767 318.288H304.881L304.972 318.304ZM307.58 314.809C307.957 314.85 307.957 314.989 307.957 315.03C308.064 315.628 306.358 317.158 305.136 317.797C305.39 316.978 306.145 314.801 307.441 314.801L307.58 314.809Z" fill="#407BFF"/>
<path d="M305.267 318.165C304.75 318.238 304.255 318.423 303.816 318.705C303.377 318.988 303.004 319.362 302.724 319.802" stroke="#407BFF" stroke-width="0.5" stroke-linecap="round" stroke-linejoin="round"/>
<path d="M307.121 319.565C306.605 319.639 306.112 319.824 305.674 320.107C305.237 320.389 304.866 320.763 304.586 321.202" stroke="#407BFF" stroke-width="0.5" stroke-linecap="round" stroke-linejoin="round"/>
<path d="M309.434 320.735C308.918 320.809 308.424 320.993 307.986 321.276C307.549 321.558 307.178 321.932 306.899 322.372" stroke="#407BFF" stroke-width="0.5" stroke-linecap="round" stroke-linejoin="round"/>
<path opacity="0.3" d="M304.89 309.579L304.135 312.174L294.276 310.659L294.456 308.531L304.89 309.579Z" fill="black"/>
<path d="M311.501 159.263C311.501 159.263 318.448 189.891 321.794 216.508C322.803 224.627 322.992 235.489 321.212 243.518L307.834 309.898L290.995 308.212C293.644 279.565 297.327 244.28 298.377 229.252C294.67 211.646 286.779 190.341 279.02 169.142L311.501 159.263Z" fill="#407BFF"/>
<g opacity="0.2">
<path d="M311.501 159.263C311.501 159.263 318.448 189.891 321.794 216.508C322.803 224.627 322.992 235.489 321.212 243.518L307.834 309.898L290.995 308.212C293.644 279.565 297.327 244.28 298.377 229.252C294.67 211.646 286.779 190.341 279.02 169.142L311.501 159.263Z" fill="black"/>
</g>
<path d="M256.177 234.564C256.554 232.927 257.161 229.547 257.907 225.11H257.842C258.383 219.25 259.4 192.043 261.262 174.683C262.689 163.633 265.519 156.152 268.373 152.485C268.513 152.297 268.652 152.133 268.775 151.978C269.251 151.389 269.538 151.061 269.538 151.061C270.08 151.2 270.613 151.323 271.179 151.438L271.777 151.569C284.312 154.036 297.241 153.667 309.614 150.488C311.468 155.055 312.846 164.796 314.199 174.888C312.099 177.196 302.855 180.183 292.258 182.164L289.232 195.808C287.64 204.263 285.606 212.563 283.867 220.028L282.055 228.212C281.948 228.744 281.833 229.276 281.735 229.8C280.816 234.507 258.933 310.283 258.933 310.283L244.677 309.464C244.677 309.464 251.018 257.007 256.177 234.564Z" fill="#407BFF"/>
<path opacity="0.2" d="M256.177 234.564C256.554 232.927 257.161 229.547 257.907 225.11H257.842C258.383 219.25 259.4 192.043 261.262 174.683C262.689 163.633 265.519 156.152 268.373 152.485C268.513 152.297 268.652 152.133 268.775 151.978C269.251 151.389 269.538 151.061 269.538 151.061C270.08 151.2 270.613 151.323 271.179 151.438L271.777 151.569C284.312 154.036 297.241 153.667 309.614 150.488C311.468 155.055 312.846 164.796 314.199 174.888C312.099 177.196 302.855 180.183 292.258 182.164L289.232 195.808C287.64 204.263 285.606 212.563 283.867 220.028L282.055 228.212C281.948 228.744 281.833 229.276 281.735 229.8C280.816 234.507 258.933 310.283 258.933 310.283L244.677 309.464C244.677 309.464 251.018 257.007 256.177 234.564Z" fill="black"/>
<path opacity="0.2" d="M288.986 197.052C288.928 197.331 295.547 173.447 295.547 173.447C295.547 173.447 301.092 194.769 292.652 208.11L288.986 197.052Z" fill="black"/>
<path d="M274.845 89.2894C274.845 89.2894 278.192 91.8595 282.506 95.5673C283.407 96.3381 284.392 97.0052 285.442 97.5562C288.264 99.0541 290.839 99.9135 291.537 98.5548C291.695 98.2473 291.818 97.9234 291.906 97.589C292.496 95.3136 292.25 92.1132 290.405 90.6563C288.329 89.0193 287.329 87.587 287.698 85.3525C287.94 84.0266 288.342 82.7348 288.895 81.5056L287.255 79.5985L278.7 70.9797C278.913 76.7337 279.356 86.1628 274.845 89.2894Z" fill="#EEC1BB"/>
<path opacity="0.2" d="M287.632 85.8437C285.278 84.4522 282.711 82.0295 283.006 79.2957C283.11 78.2828 283.333 77.2856 283.671 76.3246L288.452 82.6352C288.069 83.6735 287.794 84.7487 287.632 85.8437Z" fill="black"/>
<path d="M276.28 61.7389C277.101 70.5132 277.24 74.2291 281.776 78.8291C288.6 85.7535 299.099 83.4208 300.903 74.7366C302.544 66.9118 300.944 53.8814 292.316 50.1818C283.687 46.4822 275.477 52.9647 276.28 61.7389Z" fill="#EEC1BB"/>
<path d="M287.23 64.5055C287.28 65.324 287.78 66.0034 288.362 66.0116C288.945 66.0197 289.371 65.3731 289.322 64.5464C289.273 63.7198 288.772 63.024 288.165 63.024C287.558 63.024 287.181 63.687 287.23 64.5055Z" fill="#263238"/>
<path d="M296.368 64.3827C296.368 65.2012 296.917 65.8315 297.491 65.8478C298.065 65.8642 298.5 65.2176 298.451 64.4237C298.402 63.6297 297.901 62.9749 297.327 62.9586C296.753 62.9422 296.294 63.5888 296.368 64.3827Z" fill="#263238"/>
<path d="M285.836 61.3871C285.892 61.3929 285.948 61.3872 286.002 61.3703C286.056 61.3534 286.105 61.3257 286.148 61.2889C286.526 60.9253 286.988 60.6604 287.493 60.5176C287.998 60.3748 288.53 60.3586 289.043 60.4704C289.096 60.4863 289.151 60.4913 289.206 60.485C289.261 60.4786 289.314 60.461 289.362 60.4334C289.409 60.4058 289.451 60.3686 289.483 60.3243C289.516 60.2799 289.539 60.2294 289.552 60.1757C289.573 60.0612 289.551 59.9428 289.491 59.8432C289.43 59.7436 289.335 59.6697 289.224 59.6355C288.578 59.4807 287.903 59.4894 287.261 59.661C286.619 59.8325 286.031 60.1614 285.549 60.6177C285.493 60.6801 285.455 60.7567 285.439 60.8392C285.424 60.9216 285.431 61.0067 285.461 61.0853C285.491 61.1638 285.541 61.2327 285.607 61.2844C285.673 61.3362 285.753 61.3689 285.836 61.3789V61.3871Z" fill="#263238"/>
<path d="M299.156 60.9287C299.26 60.9531 299.369 60.9355 299.46 60.8796C299.507 60.8483 299.548 60.8079 299.579 60.7607C299.611 60.7136 299.632 60.6606 299.643 60.605C299.654 60.5493 299.653 60.4921 299.642 60.4366C299.63 60.3812 299.607 60.3287 299.575 60.2821C299.219 59.6889 298.731 59.1849 298.15 58.8089C297.568 58.433 296.908 58.1949 296.22 58.1131C296.165 58.1096 296.11 58.1177 296.058 58.1369C296.006 58.1562 295.959 58.186 295.919 58.2246C295.88 58.2632 295.849 58.3097 295.829 58.361C295.808 58.4123 295.799 58.4673 295.802 58.5223C295.805 58.6386 295.851 58.7495 295.932 58.834C296.012 58.9185 296.12 58.9707 296.236 58.9807C296.782 59.0554 297.304 59.2545 297.76 59.5624C298.217 59.8704 298.596 60.2791 298.869 60.7568C298.943 60.8448 299.044 60.9054 299.156 60.9287Z" fill="#263238"/>
<path d="M280.029 67.2392C280.029 67.2392 282.736 63.1467 281.62 55.1828C281.518 54.5432 281.668 53.889 282.038 53.3568C282.407 52.8245 282.969 52.4554 283.605 52.3263C287.403 51.5896 292.472 46.8178 298.656 56.296C298.656 56.296 295.703 44.9435 278.429 49.5188C263.058 53.6113 273.582 66.5926 275.148 67.9268C276.715 69.2609 280.029 67.2392 280.029 67.2392Z" fill="#263238"/>
<path d="M273.623 68.8927C274.561 70.5022 276.096 71.6785 277.896 72.1667C280.217 72.7478 281.423 69.0155 280.628 66.6827C280.253 65.6371 279.517 64.7588 278.552 64.2054C277.587 63.6519 276.456 63.4595 275.362 63.6625C273.131 64.1536 272.434 66.8301 273.623 68.8927Z" fill="#EEC1BB"/>
<path d="M294.12 72.9523C293.518 73.9881 292.992 75.0659 292.545 76.1772C292.34 76.1772 292.135 76.0954 291.93 76.0381C289.133 75.3833 288.051 74.1637 287.698 73.0014C287.537 72.4308 287.518 71.8298 287.64 71.2499C287.699 70.9202 287.804 70.6005 287.952 70.3004C289.223 71.5282 291.791 72.3385 293.177 72.7559C293.751 72.8459 294.12 72.9523 294.12 72.9523Z" fill="#263238"/>
<path d="M293.177 72.715L292.685 73.6562C290.052 73.0342 288.28 72.2402 287.64 71.2499C287.699 70.9202 287.804 70.6005 287.952 70.3004C289.223 71.5282 291.791 72.3385 293.177 72.715Z" fill="white"/>
<path d="M291.93 76.0381C289.133 75.3833 288.051 74.1637 287.698 73.0015C288.745 73.2749 289.736 73.7292 290.626 74.3438C291.23 74.756 291.687 75.3494 291.93 76.0381Z" fill="#DC5753"/>
<path d="M293.981 64.1372C294.768 66.0115 295.746 67.7998 296.901 69.4738C296.963 69.5578 297.005 69.6553 297.023 69.7584C297.041 69.8615 297.035 69.9674 297.005 70.0676C296.974 70.1678 296.921 70.2596 296.849 70.3355C296.777 70.4115 296.688 70.4695 296.589 70.5051C295.817 70.7218 294.999 70.7218 294.227 70.5051L293.981 64.1372Z" fill="#D4827D"/>
<path d="M288.018 63.024L290.035 62.5411C290.035 62.5411 288.928 64.0472 288.018 63.024Z" fill="#263238"/>
<path d="M297.089 63.024L299.107 62.5493C299.107 62.5493 298.008 64.0062 297.089 63.024Z" fill="#263238"/>
<path d="M300.198 60.012C300.198 60.012 305.521 53.726 301.97 48.5531C300.633 46.6051 298.18 46.3186 296.015 45.361C291.028 43.1674 286.992 42.7254 280.611 48.9542C273.984 55.4366 272.786 57.622 280.094 65.6023C280.094 65.6023 279.274 64.5628 282.006 62.1892C284.737 59.8156 287.69 57.6957 286.246 55.3957C286.246 55.3957 288.493 56.2142 288.649 58.3914L292.603 57.2946C292.429 56.2026 292.014 55.1628 291.389 54.2498C292.563 54.9535 293.506 55.9831 294.104 57.2128L297.516 57.8594C297.516 57.8594 297.016 54.7327 296.056 53.6032C296.056 53.6114 299.181 56.8281 300.198 60.012Z" fill="#263238"/>
<path opacity="0.2" d="M278.848 68.6307C278.773 67.7922 278.394 67.0098 277.782 66.4298C277.171 65.8498 276.369 65.512 275.526 65.4795" stroke="black" stroke-width="0.5" stroke-linecap="round" stroke-linejoin="round"/>
<path d="M320.638 141.428C320.14 141.043 319.671 140.621 319.235 140.167C318.858 139.774 318.604 139.275 318.694 139.275C318.674 139.218 318.65 139.163 318.62 139.111L318.464 138.743L318.079 137.761C317.825 137.057 317.57 136.287 317.324 135.51C316.799 133.955 316.315 132.342 315.84 130.722C314.88 127.448 313.961 124.174 313.034 120.851L311.328 113.91C311.082 112.788 310.705 111.143 310.196 109.277C308.81 104.178 306.497 97.3844 303.471 94.6752C298.779 91.0902 295.777 95.4937 293.85 100.11C291.988 104.522 296.573 116.586 296.573 116.586L302.15 116.185C302.856 118.747 303.594 121.301 304.324 123.904C305.275 127.309 306.399 130.64 307.531 133.979C308.113 135.616 308.712 137.327 309.368 139.013C309.754 139.831 310.106 140.715 310.5 141.608C310.689 142.05 310.91 142.516 311.148 142.983L311.566 143.76C311.738 144.085 311.933 144.396 312.149 144.693C312.956 145.737 313.976 146.596 315.142 147.214C316.013 147.702 316.938 148.087 317.898 148.36C319.63 148.857 321.43 149.073 323.23 148.999L324.239 144.137C323.033 143.236 321.712 142.303 320.638 141.428Z" fill="#263238"/>
<path opacity="0.5" d="M320.638 141.428C320.14 141.043 319.671 140.621 319.235 140.167C318.858 139.774 318.604 139.275 318.694 139.275C318.674 139.218 318.65 139.163 318.62 139.111L318.464 138.743L318.079 137.761C317.825 137.057 317.57 136.287 317.324 135.51C316.799 133.955 316.315 132.342 315.84 130.722C314.88 127.448 313.961 124.174 313.034 120.851L311.328 113.91C311.082 112.788 310.705 111.143 310.196 109.277C308.81 104.178 306.497 97.3844 303.471 94.6752C298.779 91.0902 295.777 95.4937 293.85 100.11C291.988 104.522 296.573 116.586 296.573 116.586L302.15 116.185C302.856 118.747 303.594 121.301 304.324 123.904C305.275 127.309 306.399 130.64 307.531 133.979C308.113 135.616 308.712 137.327 309.368 139.013C309.754 139.831 310.106 140.715 310.5 141.608C310.689 142.05 310.91 142.516 311.148 142.983L311.566 143.76C311.738 144.085 311.933 144.396 312.149 144.693C312.956 145.737 313.976 146.596 315.142 147.214C316.013 147.702 316.938 148.087 317.898 148.36C319.63 148.857 321.43 149.073 323.23 148.999L324.239 144.137C323.033 143.236 321.712 142.303 320.638 141.428Z" fill="white"/>
<g opacity="0.3">
<path d="M304.504 102.5C305.313 103.869 305.936 105.338 306.358 106.871C306.948 108.721 307.621 118.723 304.234 121.669V114.745C304.357 110.497 304.381 106.748 304.504 102.5Z" fill="black"/>
</g>
<path d="M262.911 115.146L257.67 97.3271C260.951 92.4161 277.355 88.6019 277.355 88.6019L285.762 91.5403L288.165 89.2158C288.165 89.2158 292.316 90.1407 295.867 91.2948C300.608 92.8417 303.175 94.0777 304.307 96.705C304.307 96.705 306.284 102.525 305.128 114.515C304.799 117.789 305.177 134.978 306.095 140.625L311.681 158.272C291.955 173.611 264.338 159.287 264.338 159.287C265.224 156.586 268.177 148.27 268.579 145.626C268.292 142.246 268.693 137.04 267.258 131.131C266.963 129.969 263.387 116.226 262.911 115.146Z" fill="#263238"/>
<path opacity="0.5" d="M262.911 115.146L257.67 97.3271C260.951 92.4161 277.355 88.6019 277.355 88.6019L285.762 91.5403L288.165 89.2158C288.165 89.2158 292.316 90.1407 295.867 91.2948C300.608 92.8417 303.175 94.0777 304.307 96.705C304.307 96.705 306.284 102.525 305.128 114.515C304.799 117.789 305.177 134.978 306.095 140.625L311.681 158.272C291.955 173.611 264.338 159.287 264.338 159.287C265.224 156.586 268.177 148.27 268.579 145.626C268.292 142.246 268.693 137.04 267.258 131.131C266.963 129.969 263.387 116.226 262.911 115.146Z" fill="white"/>
<path d="M322.852 134.331C323.148 130.738 324.67 127.354 327.164 124.745C329.659 122.137 332.975 120.461 336.558 119.999L335.041 122.52L337.928 120.81L324.682 137.392L322.852 134.331Z" fill="#407BFF"/>
<path opacity="0.8" d="M322.852 134.331C323.148 130.738 324.67 127.354 327.164 124.745C329.659 122.137 332.975 120.461 336.558 119.999L335.041 122.52L337.928 120.81L324.682 137.392L322.852 134.331Z" fill="white"/>
<path d="M302.109 120.72L306.67 120.581L328.463 127.947L308.597 158.231L289.043 153.32C288.777 153.248 288.529 153.125 288.311 152.956C288.094 152.788 287.912 152.578 287.776 152.339C287.64 152.1 287.553 151.837 287.52 151.564C287.487 151.291 287.508 151.015 287.583 150.75C287.624 150.583 287.691 150.423 287.78 150.276L295.679 136.026C295.755 135.886 295.796 135.73 295.796 135.571C295.796 135.412 295.755 135.256 295.679 135.117L294.604 133.218C294.496 133.026 294.439 132.809 294.439 132.588C294.439 132.367 294.496 132.15 294.604 131.958L299.903 122.046C300.131 121.659 300.452 121.336 300.838 121.104C301.223 120.873 301.66 120.74 302.109 120.72Z" fill="#407BFF"/>
<path d="M328.455 127.963L340.864 119.999L320.449 150.267L308.581 158.248L328.455 127.963Z" fill="#407BFF"/>
<path opacity="0.2" d="M328.455 127.963L340.864 119.999L320.449 150.267L308.581 158.248L328.455 127.963Z" fill="black"/>
<path d="M326.01 142.033C326.01 142.033 321.187 140.781 320.154 141.599C319.12 142.418 320.539 143.236 320.539 143.236C320.539 143.236 318.899 142.492 318.39 143.286C317.792 144.235 319.317 145.053 319.317 145.053C319.317 145.053 317.931 144.505 317.529 145.242C317.127 145.978 318.751 147.067 318.751 147.067C318.751 147.067 317.677 146.903 317.636 147.542C317.595 148.18 321.032 150.529 322.557 150.365C324.083 150.202 327.364 144.701 327.88 143.376C328.397 142.05 328.34 141.018 327.364 140.102L326.043 142.066L326.01 142.033Z" fill="#EEC1BB"/>
<path opacity="0.2" d="M320.466 143.302L323.443 144.44C323.484 144.44 323.533 144.44 323.558 144.374C323.582 144.309 323.558 144.26 323.558 144.251L320.589 143.114C320.548 143.114 320.498 143.114 320.474 143.179C320.449 143.245 320.433 143.286 320.466 143.302Z" fill="black"/>
<path opacity="0.2" d="M319.334 145.16L322.073 146.519C322.114 146.519 322.164 146.519 322.188 146.461C322.204 146.443 322.213 146.42 322.213 146.396C322.213 146.372 322.204 146.348 322.188 146.33L319.44 144.98C319.44 144.98 319.35 144.98 319.326 145.037C319.301 145.094 319.285 145.144 319.334 145.16Z" fill="black"/>
<path opacity="0.2" d="M318.768 147.182L320.769 148.262C320.81 148.262 320.859 148.262 320.892 148.205C320.908 148.187 320.917 148.163 320.917 148.139C320.917 148.115 320.908 148.092 320.892 148.074L318.891 147.001C318.891 147.001 318.801 147.001 318.776 147.059C318.751 147.116 318.735 147.165 318.768 147.182Z" fill="black"/>
<path d="M291.266 89.9442L287.624 86.4247L285.77 91.5403L277.683 85.1069L273.582 89.6005L283.744 96.6641L285.77 92.1787L291.266 96.2876V89.9442Z" fill="#263238"/>
<path opacity="0.3" d="M291.266 89.9443C291.528 90.3372 291.266 96.2877 291.266 96.2877L285.779 92.1952L283.744 96.6805L273.984 89.9607L283.974 98.6449L285.779 93.3738L291.906 98.6449L291.266 89.9443Z" fill="black"/>
<path opacity="0.3" d="M296.466 117.536L268.48 144.448V139.144C268.48 139.144 293.669 116.12 293.981 116.087C294.853 116.49 295.685 116.975 296.466 117.536Z" fill="black"/>
<path opacity="0.3" d="M270.186 119.672L267.151 107.19L266.553 121.677L270.186 119.672Z" fill="black"/>
<path d="M275.206 71.9783C275.198 72.3118 275.289 72.6401 275.469 72.9214C275.649 73.2026 275.909 73.4241 276.215 73.5574C276.521 73.6906 276.861 73.7298 277.19 73.6697C277.518 73.6097 277.822 73.4532 278.061 73.2202C278.3 72.9873 278.465 72.6885 278.533 72.3619C278.601 72.0354 278.57 71.6959 278.444 71.3869C278.318 71.0779 278.103 70.8134 277.826 70.6272C277.548 70.4409 277.222 70.3414 276.887 70.3413C276.448 70.3412 276.027 70.5123 275.713 70.8182C275.399 71.1241 275.217 71.5404 275.206 71.9783Z" fill="#407BFF"/>
<path d="M257.67 97.3271C257.67 97.3271 253.888 101.002 252.617 113.542C251.699 122.545 249.394 141.951 256.398 144.448C263.403 146.944 293.981 117.773 293.981 117.773L289.059 109.269L266.594 121.669C266.594 121.669 268.882 101.117 264.953 99.2342C262.677 98.1214 260.201 97.473 257.67 97.3271Z" fill="#263238"/>
<path opacity="0.5" d="M257.67 97.3271C257.67 97.3271 253.888 101.002 252.617 113.542C251.699 122.545 249.394 141.951 256.398 144.448C263.403 146.944 293.981 117.773 293.981 117.773L289.059 109.269L266.594 121.669C266.594 121.669 268.882 101.117 264.953 99.2342C262.677 98.1214 260.201 97.473 257.67 97.3271Z" fill="white"/>
<path d="M290.938 108.639C290.938 108.639 293.882 102.746 295.285 102.492C296.13 102.339 297.001 102.409 297.811 102.696C297.811 102.696 307.342 97.0898 307.974 98.604C308.318 99.4225 306.202 101.166 301.658 103.752C301.658 103.752 304.274 104.71 303.216 106.208C303.473 106.317 303.703 106.479 303.891 106.684C304.079 106.89 304.221 107.133 304.306 107.398C304.392 107.662 304.419 107.942 304.387 108.219C304.355 108.495 304.263 108.761 304.119 108.999C304.119 108.999 305.004 110.685 303.889 111.765C302.773 112.846 297.54 115.858 294.514 116.259C291.487 116.66 289.707 110.824 289.707 110.824L290.938 108.639Z" fill="#EEC1BB"/>
<path d="M323.131 277.019C325.699 278.231 327.282 281.054 329.947 282.045C331.466 282.559 333.119 282.512 334.606 281.914V243.993H298.238C298.176 243.16 298.291 242.323 298.574 241.537C299.566 238.877 302.396 237.298 303.61 234.728C305.398 230.946 302.88 226.223 299.189 224.243C296.318 222.704 294.826 222.409 292.349 222.557C289.888 222.409 288.37 222.704 285.508 224.243C281.817 226.223 279.299 230.946 281.087 234.728C282.293 237.298 285.131 238.877 286.123 241.537C286.406 242.323 286.521 243.16 286.459 243.993H250.091V328.298H334.573V294.576C333.087 293.974 331.433 293.927 329.915 294.445C327.249 295.435 325.658 298.235 323.099 299.462C319.678 301.099 314.593 298.726 312.583 295.051C311.033 292.202 310.754 290.696 310.894 288.224C310.754 285.769 311.041 284.263 312.583 281.398C314.609 277.748 319.334 275.235 323.131 277.019Z" fill="#407BFF"/>
<path opacity="0.4" d="M323.131 277.019C325.699 278.231 327.282 281.054 329.947 282.045C331.466 282.559 333.119 282.512 334.606 281.914V243.993H298.238C298.176 243.16 298.291 242.323 298.574 241.537C299.566 238.877 302.396 237.298 303.61 234.728C305.398 230.946 302.88 226.223 299.189 224.243C296.318 222.704 294.826 222.409 292.349 222.557C289.888 222.409 288.37 222.704 285.508 224.243C281.817 226.223 279.299 230.946 281.087 234.728C282.293 237.298 285.131 238.877 286.123 241.537C286.406 242.323 286.521 243.16 286.459 243.993H250.091V328.298H334.573V294.576C333.087 293.974 331.433 293.927 329.915 294.445C327.249 295.435 325.658 298.235 323.099 299.462C319.678 301.099 314.593 298.726 312.583 295.051C311.033 292.202 310.754 290.696 310.894 288.224C310.754 285.769 311.041 284.263 312.583 281.398C314.609 277.748 319.334 275.235 323.131 277.019Z" fill="black"/>
<path d="M327.273 277.019C329.841 278.231 331.432 281.054 334.089 282.045C335.608 282.559 337.261 282.512 338.748 281.914V243.993H302.38C302.318 243.16 302.433 242.323 302.716 241.537C303.709 238.877 306.547 237.298 307.752 234.728C309.54 230.946 307.022 226.223 303.331 224.243C300.469 222.704 298.968 222.409 296.491 222.557C294.03 222.409 292.513 222.704 289.65 224.243C285.959 226.223 283.441 230.946 285.229 234.728C286.443 237.298 289.273 238.877 290.265 241.537C290.548 242.323 290.663 243.16 290.601 243.993H254.233V328.298H338.716V294.576C337.229 293.974 335.575 293.927 334.057 294.445C331.399 295.435 329.8 298.235 327.241 299.462C323.829 301.099 318.735 298.726 316.725 295.051C315.175 292.202 314.896 290.696 315.036 288.224C314.896 285.769 315.183 284.263 316.725 281.398C318.751 277.748 323.476 275.235 327.273 277.019Z" fill="#407BFF"/>
<path opacity="0.4" d="M324.714 300.084C324.714 300.084 327.643 305.315 332.67 304.881C337.698 304.447 338.748 302.262 338.748 302.262L338.674 295.067L327.462 299.348C327.081 299.655 326.639 299.879 326.166 300.006C325.693 300.132 325.199 300.159 324.714 300.084Z" fill="black"/>
<path d="M428.784 255.566L457.672 244.492L474.355 228.36C474.823 227.82 479.654 219.504 479.654 219.504L487.856 236.995C487.856 236.995 467.506 257.4 460.05 259.782C454.03 261.697 432.696 266.911 432.696 266.911L428.784 255.566Z" fill="#407BFF"/>
<path opacity="0.4" d="M446.468 263.457C446.468 263.457 449.954 249.829 457.737 246.997C465.521 244.165 475.585 248.634 475.298 248.798C475.011 248.961 466.579 256.827 466.276 256.917C465.972 257.007 455.342 260.764 449.798 262.589L446.468 263.457Z" fill="black"/>
<path d="M394.048 244.427C393.985 245.26 394.1 246.096 394.384 246.882C395.376 249.542 398.214 251.122 399.42 253.692C401.208 257.482 398.69 262.196 394.999 264.177C392.136 265.716 390.635 266.01 388.158 265.863C385.698 266.01 384.188 265.716 381.318 264.177C377.627 262.196 375.109 257.482 376.897 253.692C378.111 251.122 380.94 249.542 381.933 246.882C382.217 246.096 382.331 245.26 382.269 244.427H344.605V282.315C343.102 282.94 341.423 282.998 339.88 282.479C337.215 281.488 335.632 278.664 333.056 277.453C329.267 275.669 324.534 278.181 322.549 281.865C321.007 284.729 320.72 286.227 320.859 288.691C320.72 291.146 321.007 292.661 322.549 295.517C324.534 299.2 329.267 301.713 333.056 299.929C335.632 298.726 337.215 295.902 339.88 294.911C341.422 294.39 343.101 294.445 344.605 295.067V328.764L428.825 329.141V244.836L394.048 244.427Z" fill="#263238"/>
<g opacity="0.4">
<path d="M394.048 244.427C393.985 245.26 394.1 246.096 394.384 246.882C395.376 249.542 398.214 251.122 399.42 253.692C401.208 257.482 398.69 262.196 394.999 264.177C392.136 265.716 390.635 266.01 388.158 265.863C385.698 266.01 384.188 265.716 381.318 264.177C377.627 262.196 375.109 257.482 376.897 253.692C378.111 251.122 380.94 249.542 381.933 246.882C382.217 246.096 382.331 245.26 382.269 244.427H344.605V282.315C343.102 282.94 341.423 282.998 339.88 282.479C337.215 281.488 335.632 278.664 333.056 277.453C329.267 275.669 324.534 278.181 322.549 281.865C321.007 284.729 320.72 286.227 320.859 288.691C320.72 291.146 321.007 292.661 322.549 295.517C324.534 299.2 329.267 301.713 333.056 299.929C335.632 298.726 337.215 295.902 339.88 294.911C341.422 294.39 343.101 294.445 344.605 295.067V328.764L428.825 329.141V244.836L394.048 244.427Z" fill="black"/>
</g>
<path d="M397.771 244.427C397.712 245.26 397.829 246.097 398.116 246.882C399.108 249.542 401.938 251.122 403.152 253.692C404.94 257.482 402.422 262.196 398.723 264.177C395.86 265.716 394.359 266.01 391.89 265.863C389.43 266.01 387.912 265.716 385.05 264.177C381.359 262.196 378.841 257.482 380.629 253.692C381.834 251.122 384.664 249.542 385.657 246.882C385.943 246.097 386.06 245.26 386.001 244.427H348.328V282.315C346.826 282.94 345.146 282.998 343.604 282.479C340.946 281.488 339.355 278.664 336.788 277.453C332.99 275.669 328.266 278.181 326.273 281.865C324.731 284.729 324.444 286.227 324.583 288.691C324.444 291.146 324.731 292.661 326.273 295.517C328.266 299.2 332.99 301.713 336.788 299.929C339.355 298.726 340.946 295.902 343.604 294.911C345.145 294.389 346.825 294.444 348.328 295.067V328.764L432.548 329.141V244.836L397.771 244.427Z" fill="#263238"/>
<path d="M457.13 301.279L470.377 300.461C468.261 312.108 466.079 319.663 467.006 325.638L461.666 329.206L456.745 324.353C456.204 316.665 456.333 308.945 457.13 301.279Z" fill="#E9B376"/>
<path d="M455.892 316.192L460.707 316.25C463.036 320.277 464.652 319.327 467.121 316.487C468.515 316.34 468.876 317.944 468.983 318.378L471.443 327.905C471.495 328.094 471.51 328.292 471.485 328.486C471.461 328.681 471.398 328.869 471.3 329.039C471.203 329.21 471.072 329.359 470.917 329.479C470.761 329.599 470.583 329.687 470.393 329.738C470.252 329.778 470.106 329.797 469.959 329.796L458.41 329.657L442.227 329.468C437.814 329.419 436.953 324.967 438.774 324.557C446.976 322.855 452.783 320.522 455.334 318.181C455.851 317.788 455.367 317.477 455.892 316.192Z" fill="#407BFF"/>
<path d="M453.431 318.861C454.035 318.954 454.611 319.177 455.121 319.513C455.63 319.849 456.061 320.291 456.384 320.809" stroke="#263238" stroke-width="0.5" stroke-linecap="round" stroke-linejoin="round"/>
<path d="M451.241 320.473C451.843 320.567 452.417 320.789 452.925 321.124C453.433 321.458 453.863 321.898 454.186 322.413" stroke="#263238" stroke-width="0.5" stroke-linecap="round" stroke-linejoin="round"/>
<path d="M448.518 321.815C449.121 321.909 449.696 322.132 450.204 322.468C450.712 322.804 451.142 323.246 451.463 323.763" stroke="#263238" stroke-width="0.5" stroke-linecap="round" stroke-linejoin="round"/>
<path opacity="0.7" d="M470.434 329.738C470.293 329.778 470.147 329.797 470 329.796L458.451 329.657L442.268 329.468C441.387 329.527 440.509 329.307 439.759 328.84C439.01 328.373 438.427 327.682 438.093 326.865C438.766 326.865 470.902 327.504 471.345 327.365L471.517 328.077C471.574 328.438 471.495 328.808 471.295 329.115C471.095 329.422 470.789 329.644 470.434 329.738Z" fill="white"/>
<path d="M507.828 266.215C507.828 266.215 471.648 247.578 464.603 247.046C457.557 246.514 450.831 250.32 449.486 264.873C448.141 279.426 450.831 316.864 450.831 316.864L470.344 317.199L472.764 273.819C472.764 273.819 502.989 295.861 503.883 295.64C504.777 295.419 516.58 294.879 516.58 294.879L507.828 266.215Z" fill="#263238"/>
<path opacity="0.3" d="M507.828 266.215C507.828 266.215 471.648 247.578 464.603 247.046C457.557 246.514 450.831 250.32 449.486 264.873C448.141 279.426 450.831 316.864 450.831 316.864L470.344 317.199L472.764 273.819C472.764 273.819 502.989 295.861 503.883 295.64C504.777 295.419 516.58 294.879 516.58 294.879L507.828 266.215Z" fill="white"/>
<path opacity="0.4" d="M471.657 294.109C471.657 294.109 455.712 299.683 455.539 312.804C455.367 325.924 469.434 323.444 469.434 323.444L471.657 294.109Z" fill="black"/>
<path d="M521.674 328.298L518.089 315.284C530.63 313.933 539.005 317.011 544.828 314.269L550.078 318.623L546.616 325.114C546.616 325.114 537.373 328.216 521.674 328.298Z" fill="#E9B376"/>
<path d="M538.504 328.388L537.11 323.477C540.522 319.892 539.07 318.566 535.42 316.929C534.854 315.546 536.38 314.703 536.79 314.473L545.813 309.055C546.172 308.834 546.604 308.764 547.015 308.86C547.425 308.957 547.781 309.213 548.003 309.571C548.086 309.702 548.147 309.845 548.183 309.996L551.456 321.733L556.139 338.251C557.419 342.761 553.137 344.979 552.186 343.235C547.978 335.419 543.844 330.205 540.703 328.314C540.153 327.954 539.973 328.535 538.504 328.388Z" fill="#407BFF"/>
<path d="M541.974 330.09C541.887 329.449 541.94 328.797 542.13 328.178C542.32 327.559 542.642 326.988 543.073 326.505" stroke="#263238" stroke-width="0.5" stroke-linecap="round" stroke-linejoin="round"/>
<path d="M544.279 331.842C544.192 331.199 544.245 330.546 544.435 329.925C544.624 329.305 544.946 328.733 545.378 328.249" stroke="#263238" stroke-width="0.5" stroke-linecap="round" stroke-linejoin="round"/>
<path d="M546.469 334.207C546.382 333.565 546.436 332.911 546.625 332.291C546.815 331.671 547.137 331.099 547.568 330.614" stroke="#263238" stroke-width="0.5" stroke-linecap="round" stroke-linejoin="round"/>
<path opacity="0.7" d="M547.962 309.513C548.045 309.644 548.106 309.788 548.142 309.939L551.456 321.734L556.139 338.251C556.828 340.706 555.893 342.45 554.737 343.285C554.548 342.597 545.493 309.726 545.23 309.309L545.903 308.916C546.258 308.74 546.668 308.703 547.049 308.814C547.43 308.925 547.756 309.174 547.962 309.513Z" fill="white"/>
<path d="M547.478 273.328L549.052 281.194C549.052 281.194 553.072 296.802 547.412 304.643C544.196 309.112 539.457 312.255 534.083 313.483L535.724 328.535L534.083 329.55C534.083 329.55 523.675 329.55 502.374 328.584C482.139 327.66 464.742 326.694 461.15 320.399C457.557 314.105 456.737 311.085 462.601 303.604C467.908 296.851 508.312 286.89 509.715 286.489L509.157 283.052L508.501 280.596L547.478 273.328Z" fill="#263238"/>
<path opacity="0.3" d="M547.478 273.328L549.052 281.194C549.052 281.194 553.072 296.802 547.412 304.643C544.196 309.112 539.457 312.255 534.083 313.483L535.724 328.535L534.083 329.55C534.083 329.55 523.675 329.55 502.374 328.584C482.139 327.66 464.742 326.694 461.15 320.399C457.557 314.105 456.737 311.085 462.601 303.604C467.908 296.851 508.312 286.89 509.715 286.489L509.157 283.052L508.501 280.596L547.478 273.328Z" fill="white"/>
<path opacity="0.4" d="M534.083 313.483C532.845 313.811 488.971 312.395 488.971 312.395C488.971 312.395 501.947 314.613 511.536 315.423C521.124 316.233 534.083 313.483 534.083 313.483Z" fill="black"/>
<path opacity="0.4" d="M509.715 286.473L534.986 282.069C534.986 282.069 516.777 281.799 509.715 286.473Z" fill="black"/>
<path d="M445.295 268.638C445.295 268.638 443.187 265.364 440.045 264.774C436.904 264.185 434.574 262.81 432.204 262.507C429.834 262.204 431.991 264.594 433.385 265.642C434.78 266.69 436.363 267.877 435.411 268.801C434.46 269.726 423.37 272.526 422.197 273.958C421.024 275.39 422.952 275.489 422.952 275.489C422.952 275.489 420.278 276.242 420.286 277.387C420.286 277.682 420.778 278.361 422.05 278.206C424.912 277.862 430.875 276.831 430.875 276.831C430.531 276.888 423.255 278.681 422.206 279.098C420.828 279.63 420.45 280.588 420.787 281.374C421.271 282.495 430.367 280.555 430.81 280.76C430.81 280.76 425.536 281.693 425.068 283.215C424.601 284.738 427.922 284.296 430.81 283.379C433.451 282.56 438.864 281.578 441.472 280.465C444.688 279.09 446.533 277.445 446.607 274.179C446.656 272.25 446.204 270.341 445.295 268.638Z" fill="#E9B376"/>
<path d="M441.825 268.572L449.921 265.339L452.718 274.073L443.22 277.453L441.825 268.572Z" fill="#E9B376"/>
<path d="M500.528 208.151C500.528 208.151 498.33 203.199 498.798 193.418C498.798 193.418 498.256 193.312 498.256 193.304C498.314 191.929 498.42 190.652 498.543 189.539L487.831 200.285C488.832 203.15 489.135 209.068 489.078 211.613C489.078 211.613 488.528 216.32 494.352 215.133C498.609 214.2 500.528 208.151 500.528 208.151Z" fill="#E9B376"/>
<path opacity="0.2" d="M488.602 204.394L495.451 201.047C495.328 203.445 493.975 206.58 488.996 208.004C488.963 206.792 488.831 205.585 488.602 204.394Z" fill="black"/>
<path d="M497.182 183.343C498.24 191.528 499.003 196.07 495.706 200.957C490.784 208.323 480.302 206.572 476.84 198.878C473.699 191.953 472.493 179.782 479.81 175.141C481.43 174.116 483.283 173.517 485.198 173.399C487.112 173.281 489.026 173.648 490.76 174.467C492.493 175.286 493.992 176.529 495.115 178.081C496.238 179.632 496.949 181.443 497.182 183.343Z" fill="#E9B376"/>
<path d="M494.04 171.884C490.259 167.464 483.213 171.335 480.54 174.2C480.138 174.634 487.38 176.656 486.954 176.606L489.242 178.497C489.537 178.374 490.144 181.174 490.661 183.605C491.135 185.832 492.207 187.888 493.761 189.555C495.274 191.201 496.957 192.682 498.781 193.975C501.332 192.068 500.553 187.132 500.881 184.047C501.357 179.447 501.25 170.844 494.04 171.884Z" fill="#263238"/>
<path d="M501.66 189.457C501.541 190.471 501.22 191.451 500.716 192.339C500.212 193.228 499.534 194.006 498.724 194.63C496.542 196.267 495.139 193.811 494.877 191.249C494.639 188.925 494.77 186.011 497.379 185.372C499.987 184.734 501.947 186.944 501.66 189.457Z" fill="#E9B376"/>
<path d="M486.068 187.902C486.224 188.72 485.92 189.473 485.379 189.539C484.838 189.604 484.263 189.056 484.108 188.229C483.952 187.402 484.255 186.658 484.797 186.592C485.338 186.527 485.912 187.075 486.068 187.902Z" fill="#263238"/>
<path d="M477.997 189.62C478.153 190.439 477.841 191.192 477.3 191.257C476.758 191.323 476.192 190.766 476.028 189.948C475.864 189.129 476.184 188.376 476.726 188.27C477.267 188.164 477.833 188.794 477.997 189.62Z" fill="#263238"/>
<path d="M480.54 188.655C480.54 188.655 478.719 193.255 478.202 195.088C479.555 195.907 481.442 195.088 481.442 195.088L480.54 188.655Z" fill="#D58745"/>
<path d="M487.339 183.629C487.278 183.665 487.209 183.684 487.138 183.684C487.067 183.684 486.998 183.665 486.937 183.629C486.501 183.396 486.016 183.265 485.522 183.248C485.027 183.231 484.534 183.328 484.083 183.531C484.038 183.557 483.989 183.575 483.937 183.582C483.886 183.59 483.833 183.587 483.783 183.574C483.733 183.561 483.686 183.538 483.644 183.507C483.603 183.476 483.568 183.436 483.542 183.392C483.491 183.3 483.478 183.193 483.505 183.092C483.533 182.991 483.599 182.905 483.689 182.851C484.255 182.58 484.876 182.446 485.503 182.46C486.131 182.475 486.746 182.637 487.298 182.933C487.345 182.957 487.386 182.989 487.42 183.029C487.454 183.068 487.48 183.114 487.496 183.163C487.512 183.213 487.518 183.265 487.513 183.317C487.509 183.369 487.494 183.419 487.47 183.465C487.443 183.531 487.398 183.588 487.339 183.629Z" fill="#263238"/>
<path d="M484.657 197.151C485.303 196.995 485.911 196.71 486.444 196.313C486.977 195.916 487.424 195.416 487.757 194.842" stroke="#263238" stroke-width="0.75" stroke-linecap="round" stroke-linejoin="round"/>
<path opacity="0.2" d="M499.388 187.591C499.168 187.394 498.894 187.268 498.602 187.229C498.31 187.19 498.012 187.239 497.748 187.37C497.219 187.644 496.802 188.092 496.567 188.638C496.264 189.285 496.131 189.997 496.181 190.709" stroke="black" stroke-width="0.5" stroke-linecap="round" stroke-linejoin="round"/>
<path d="M473.748 186.829C473.669 186.828 473.591 186.802 473.527 186.756C473.442 186.695 473.385 186.604 473.367 186.501C473.348 186.399 473.37 186.294 473.428 186.207C473.771 185.688 474.234 185.259 474.778 184.955C475.322 184.652 475.931 184.483 476.553 184.464C476.658 184.47 476.756 184.516 476.828 184.592C476.899 184.668 476.939 184.769 476.939 184.873C476.935 184.976 476.89 185.073 476.815 185.143C476.74 185.214 476.64 185.252 476.537 185.25C476.043 185.269 475.562 185.407 475.133 185.652C474.705 185.897 474.342 186.242 474.076 186.658C474.04 186.711 473.991 186.754 473.934 186.784C473.877 186.814 473.813 186.83 473.748 186.829Z" fill="#263238"/>
<path d="M494.04 171.884C492.344 170.014 490.171 168.639 487.752 167.907C485.334 167.175 482.761 167.112 480.31 167.726C473.313 169.363 469.647 174.487 469.524 179.373C469.445 181.016 469.774 182.652 470.484 184.137C470.577 184.319 470.723 184.469 470.902 184.567C471.082 184.665 471.288 184.707 471.491 184.686C471.695 184.666 471.888 184.585 472.045 184.453C472.202 184.321 472.315 184.145 472.37 183.948C472.445 183.695 472.535 183.446 472.641 183.204C472.666 183.261 472.696 183.315 472.731 183.367C472.842 183.552 473.01 183.697 473.209 183.781C473.409 183.864 473.629 183.882 473.84 183.832C474.05 183.782 474.239 183.666 474.379 183.501C474.519 183.337 474.602 183.132 474.618 182.917C474.624 182.601 474.66 182.286 474.724 181.976C474.835 182.139 474.99 182.266 475.172 182.342C475.354 182.418 475.554 182.438 475.748 182.402C475.942 182.365 476.12 182.273 476.262 182.136C476.404 181.999 476.502 181.824 476.545 181.632C476.807 180.645 477.274 179.724 477.915 178.928C478.557 178.133 479.358 177.48 480.269 177.014C481.179 176.547 482.177 176.276 483.198 176.218C484.22 176.161 485.242 176.318 486.199 176.68L489.226 178.473C492.695 176.475 494.04 171.884 494.04 171.884Z" fill="#263238"/>
<path opacity="0.4" d="M507.09 280.858L506.614 284.05L492.498 288.29L495.755 290.369L509.715 286.497L510.297 280.293L507.09 280.858Z" fill="black"/>
<path d="M517.63 209.158C511.298 205.106 500.126 207.03 500.126 207.03L479.621 219.504L493.63 252.35C493.63 252.35 499.47 266.321 502.653 275.628C503.473 277.936 504.925 281.153 507.344 280.833L546.247 273.819C546.696 273.739 547.123 273.566 547.502 273.311C547.88 273.057 548.201 272.727 548.444 272.341C548.687 271.956 548.847 271.525 548.914 271.075C548.98 270.624 548.952 270.165 548.831 269.726C545.074 256.189 523.306 212.808 517.63 209.158Z" fill="#407BFF"/>
<path opacity="0.4" d="M521.288 227.427C516.664 235.545 510.859 242.935 504.063 249.354C501.083 252.323 498.559 255.715 496.575 259.422L493.835 252.423L521.288 227.427Z" fill="black"/>
<path d="M502.005 218.407L475.487 251.4L444.319 265.511L447.419 278.37C447.419 278.37 472.665 271.568 482.812 265.274C492.958 258.98 509.682 241.316 509.682 241.316C509.682 241.316 524.306 229.628 523.609 220.175C522.912 210.721 509.026 208.511 502.005 218.407Z" fill="#407BFF"/>
<path d="M487.61 214.658C487.61 214.658 488.594 209.616 489.07 209.813C489.546 210.009 494.286 212.857 494.286 212.857L499.593 204.934L502.776 207.038L495.451 222.188L487.61 214.658Z" fill="#407BFF"/>
<path opacity="0.4" d="M485.28 235.808L479.162 227.427L484.099 240.547L486.511 237.993L503.399 216.688L485.28 235.808Z" fill="black"/>
<path opacity="0.4" d="M487.61 214.658C487.872 214.748 492.269 217.703 492.023 217.752C491.777 217.801 493.876 214.216 493.876 214.216L498.527 215.984L502.349 206.76L498.593 217.4L494.18 215.272L492.023 219.168L487.61 214.658Z" fill="black"/>
<path d="M185.408 151.921C185.47 151.088 185.356 150.251 185.072 149.465C184.08 146.805 181.25 145.225 180.036 142.655C178.248 138.866 180.766 134.151 184.457 132.17C187.319 130.632 188.82 130.337 191.298 130.476C193.758 130.337 195.276 130.632 198.138 132.17C201.829 134.151 204.347 138.866 202.559 142.655C201.353 145.225 198.515 146.805 197.523 149.465C197.239 150.251 197.125 151.088 197.187 151.921H234.851V114.024C236.356 113.406 238.033 113.351 239.576 113.869C242.241 114.859 243.824 117.683 246.4 118.894C250.189 120.679 254.922 118.166 256.907 114.475C258.449 111.618 258.744 110.12 258.596 107.657C258.744 105.201 258.449 103.687 256.907 100.83C254.922 97.1471 250.189 94.6343 246.4 96.4186C243.824 97.6218 242.241 100.446 239.576 101.436C238.034 101.958 236.355 101.902 234.851 101.28V67.583L150.631 67.2065V151.511L185.408 151.921Z" fill="#263238"/>
<g opacity="0.4">
<path d="M185.408 151.921C185.47 151.088 185.356 150.251 185.072 149.465C184.08 146.805 181.25 145.225 180.036 142.655C178.248 138.866 180.766 134.151 184.457 132.17C187.319 130.632 188.82 130.337 191.298 130.476C193.758 130.337 195.276 130.632 198.138 132.17C201.829 134.151 204.347 138.866 202.559 142.655C201.353 145.225 198.515 146.805 197.523 149.465C197.239 150.251 197.125 151.088 197.187 151.921H234.851V114.024C236.356 113.406 238.033 113.351 239.576 113.869C242.241 114.859 243.824 117.683 246.4 118.894C250.189 120.679 254.922 118.166 256.907 114.475C258.449 111.618 258.744 110.12 258.596 107.657C258.744 105.201 258.449 103.687 256.907 100.83C254.922 97.1471 250.189 94.6343 246.4 96.4186C243.824 97.6218 242.241 100.446 239.576 101.436C238.034 101.958 236.355 101.902 234.851 101.28V67.583L150.631 67.2065V151.511L185.408 151.921Z" fill="black"/>
</g>
<path d="M187.967 151.921C188.027 151.087 187.909 150.25 187.623 149.465C186.631 146.805 183.801 145.225 182.587 142.655C180.799 138.866 183.317 134.151 187.016 132.17C189.879 130.632 191.38 130.337 193.848 130.476C196.309 130.337 197.827 130.632 200.689 132.17C204.38 134.151 206.898 138.866 205.11 142.655C203.904 145.225 201.075 146.805 200.082 149.465C199.796 150.25 199.678 151.087 199.738 151.921H237.41V114.024C238.915 113.406 240.593 113.351 242.135 113.869C244.792 114.859 246.383 117.683 248.951 118.894C252.748 120.679 257.473 118.166 259.466 114.475C261.008 111.618 261.295 110.12 261.156 107.657C261.295 105.201 261.008 103.687 259.466 100.83C257.473 97.1471 252.748 94.6343 248.951 96.4186C246.383 97.6218 244.792 100.446 242.135 101.436C240.593 101.959 238.914 101.903 237.41 101.28V67.583L153.19 67.2065V151.511L187.967 151.921Z" fill="#263238"/>
<path d="M131.963 106.781C131.963 106.781 125.819 128.52 129.748 132.301C133.677 136.083 147.449 133.57 146.751 133.284C146.054 132.997 150.262 106.854 150.541 107.804C150.82 108.753 131.963 106.781 131.963 106.781Z" fill="#B97964"/>
<path d="M139.616 303.096V321.922L148.392 322.601L151.476 304.889C147.449 302.024 143.495 301.337 139.616 303.096Z" fill="#B97964"/>
<path d="M139.517 320.031C138.656 322.486 138.598 332.701 138.598 332.701H157.201C158.308 329.018 156.602 326.505 154.429 326.153C153.494 326.014 152.403 324.975 151.599 324.074C151.599 323.96 150.459 318.296 149.753 318.026C149.753 318.026 149.27 317.436 148.859 318.026C148.491 318.82 148.232 319.659 148.088 320.522C145.185 316.626 142.339 317.15 139.517 320.031Z" fill="#263238"/>
<path d="M139.296 322.945C140.314 322.533 141.423 322.397 142.51 322.55C143.598 322.704 144.625 323.143 145.488 323.821C145.808 324.058 146.112 323.493 145.792 323.248C144.861 322.524 143.755 322.057 142.587 321.893C141.418 321.73 140.226 321.875 139.132 322.315C138.771 322.454 138.927 323.092 139.296 322.945Z" fill="white"/>
<path d="M157.152 331.195H138.82C138.733 331.195 138.649 331.161 138.588 331.099C138.526 331.038 138.492 330.955 138.492 330.868C138.492 330.781 138.526 330.698 138.588 330.636C138.649 330.575 138.733 330.541 138.82 330.541H157.152C157.239 330.541 157.322 330.575 157.384 330.636C157.445 330.698 157.48 330.781 157.48 330.868C157.48 330.955 157.445 331.038 157.384 331.099C157.322 331.161 157.239 331.195 157.152 331.195Z" fill="white"/>
<path d="M177.485 300.633V321.914L185.925 322.609L190.084 302.687C186.671 299.97 182.734 298.636 177.485 300.633Z" fill="#B97964"/>
<path d="M177.075 320.031C176.214 322.487 176.156 332.71 176.156 332.71H197.531C198.639 329.026 196.325 326.841 194.152 326.505C193.225 326.366 189.961 324.999 189.157 324.091C189.157 323.976 188.017 318.32 187.311 318.05C187.311 318.05 186.827 317.461 186.417 318.05C186.049 318.847 185.79 319.689 185.646 320.555C182.743 316.675 179.897 317.191 177.075 320.031Z" fill="#263238"/>
<path d="M176.853 322.986C177.871 322.574 178.98 322.438 180.068 322.591C181.156 322.745 182.183 323.183 183.046 323.862C183.366 324.107 183.669 323.534 183.35 323.297C182.419 322.572 181.314 322.103 180.146 321.938C178.977 321.773 177.785 321.917 176.689 322.356C176.329 322.503 176.484 323.174 176.853 322.986Z" fill="white"/>
<path d="M197.531 331.245H176.378C176.299 331.232 176.227 331.192 176.174 331.131C176.122 331.07 176.094 330.993 176.094 330.913C176.094 330.833 176.122 330.756 176.174 330.695C176.227 330.634 176.299 330.594 176.378 330.582H197.531C197.573 330.583 197.614 330.592 197.652 330.609C197.69 330.626 197.724 330.651 197.752 330.681C197.781 330.712 197.802 330.748 197.817 330.787C197.831 330.826 197.837 330.867 197.835 330.909C197.837 330.951 197.831 330.993 197.817 331.032C197.803 331.072 197.781 331.108 197.753 331.14C197.725 331.171 197.69 331.196 197.652 331.214C197.614 331.232 197.573 331.242 197.531 331.245Z" fill="white"/>
<path d="M135.982 312.386L154.683 313.385C158.874 299.814 163.025 251.179 163.451 236.553C163.968 219.094 170.226 175.289 164.69 166.162C159.153 157.036 134.104 164.313 134.104 164.313C134.104 164.313 137.229 217.646 135.982 234.662C134.899 249.411 133.226 292.751 135.982 312.386Z" fill="#263238"/>
<path d="M156.701 308.466L155.487 314.703L135.219 314.048L134.473 308.057L156.701 308.466Z" fill="#407BFF"/>
<path d="M173.335 312.386L191.872 313.385C194.127 298.365 203.199 243.657 202.453 233.172C201.542 220.371 190.805 164.967 186.811 160.695C182.816 156.422 153.584 167.497 153.584 167.497C153.584 167.497 165.6 215.141 175.074 235.751C177.042 240.031 171.809 294.118 173.335 312.386Z" fill="#263238"/>
<path d="M193.996 308.932L193.045 314.703L172.441 313.385L172.031 307.344L193.996 308.932Z" fill="#407BFF"/>
<path opacity="0.3" d="M165.28 209.502L159.834 191.347L150.172 188.196L157.726 194.04L163.804 227.14L165.28 209.502Z" fill="black"/>
<path d="M175.697 48.6676C175.697 49.4861 176.041 50.0427 176.517 50.1246C176.993 50.2064 177.469 49.5516 177.51 48.7577C177.551 47.9637 177.182 47.3826 176.689 47.3008C176.197 47.2189 175.795 47.9146 175.697 48.6676Z" fill="#263238"/>
<path d="M176.017 48.5613C176.285 51.0915 176.909 53.5714 177.871 55.9277C177.258 56.1552 176.602 56.246 175.95 56.1936C175.299 56.1413 174.666 55.9472 174.098 55.6249L176.017 48.5613Z" fill="#A24E3F"/>
<path d="M174.278 46.1549C174.178 46.1628 174.078 46.1399 173.991 46.0894C173.905 46.0035 173.857 45.8873 173.857 45.7661C173.857 45.6449 173.905 45.5287 173.991 45.4428C174.443 44.88 175.024 44.4338 175.685 44.1418C176.346 43.8498 177.067 43.7205 177.789 43.7649C177.905 43.7753 178.012 43.831 178.087 43.9198C178.162 44.0087 178.2 44.1236 178.19 44.2396C178.172 44.3576 178.109 44.4641 178.015 44.5371C177.92 44.6102 177.801 44.6443 177.682 44.6325C177.109 44.6087 176.539 44.7209 176.019 44.96C175.498 45.1991 175.042 45.5581 174.688 46.0075C174.639 46.0666 174.575 46.1115 174.503 46.1374C174.431 46.1634 174.353 46.1694 174.278 46.1549Z" fill="#263238"/>
<path d="M176.025 59.0788C175.924 59.4953 175.798 59.9053 175.648 60.3066C174.791 62.6128 173.259 64.6088 171.251 66.036C170.729 66.3994 170.18 66.7249 169.611 67.01C167.464 68.1361 165.01 68.5419 162.614 68.1675C160.218 67.793 158.006 66.6581 156.307 64.9311C151.853 60.5276 151.968 55.4284 151.468 46.8096C151.332 44.9557 151.638 43.096 152.362 41.383C153.623 38.4747 155.979 36.1774 158.922 34.9863C161.864 33.7951 165.158 33.8055 168.094 35.0151C176.714 38.4692 177.903 51.3031 176.025 59.0788Z" fill="#B97964"/>
<path opacity="0.2" d="M171.219 66.0606C170.696 66.424 170.148 66.7495 169.578 67.0346C168.1 67.8044 166.471 68.24 164.805 68.3108C163.139 68.3815 161.479 68.0855 159.941 67.4439C160.342 66.4086 160.871 65.4271 161.515 64.5219C164.831 64.1054 168.196 64.6391 171.219 66.0606Z" fill="black"/>
<path d="M153.526 77.2413C157.865 81.0964 168.471 79.6968 168.471 79.6968C168.471 79.6968 175.09 77.9125 173.687 75.8908C169.8 75.2523 167.905 73.4353 167.126 71.1762C166.701 69.7635 166.567 68.2795 166.732 66.8137C166.795 65.9897 166.905 65.1699 167.06 64.3582L153.953 54.8391C155.659 61.117 157.751 72.6905 153.526 77.2413Z" fill="#B97964"/>
<path d="M171.219 51.2295L173.113 51.9252L172.17 48.1274C172.17 48.1274 174.942 43.9776 172.17 40.3844C172.17 40.3844 179.823 38.1008 175.5 34.1557C173.86 32.6824 171.891 34.1557 166.609 31.9048C163.738 30.6689 154.773 30.5789 154.306 34.1557C154.306 34.1557 147.842 34.1557 147.145 44.9434C146.946 48.115 147.456 51.2912 148.639 54.2415C149.822 57.1919 151.649 59.8424 153.986 62.0009C153.986 62.0009 161.852 63.8425 165.641 60.7322C169.431 57.6219 171.219 51.2295 171.219 51.2295Z" fill="#263238"/>
<path d="M166.223 51.8434C166.395 52.6561 166.746 53.4203 167.251 54.0802C167.756 54.7402 168.403 55.2791 169.143 55.6576C170.931 56.4025 172.113 53.9306 171.85 51.3442C171.604 49.036 170.39 45.803 168.479 46.2368C166.568 46.6706 165.6 49.5189 166.223 51.8434Z" fill="#B97964"/>
<path d="M140.198 75.1704C140.198 75.1704 137.147 76.1199 135.605 76.6437C132.447 77.7978 130.363 81.3091 129.223 84.755C126.426 93.1773 121.915 113.108 121.915 113.108L138.32 116.545L147.088 97.7608L140.198 75.1704Z" fill="#407BFF"/>
<path opacity="0.5" d="M140.198 75.1704C140.198 75.1704 135.81 75.9889 133.505 77.8878C131.75 79.3284 130.347 81.4319 129.248 84.755C126.451 93.1773 121.94 113.108 121.94 113.108L138.344 116.545L147.088 97.7608L140.198 75.1704Z" fill="white"/>
<path d="M179.896 76.12C175.065 75.5961 160.211 72.2485 140.223 75.1541L135.539 148.876C135.13 155.898 134.342 162.892 133.177 169.829C153.477 178.53 177.469 176.042 191.084 168.733C190.928 169.035 190.477 160.99 189.78 149.211C188.558 128.446 186.548 96.0667 183.957 77.3232C183.858 76.873 180.348 76.1854 179.896 76.12Z" fill="#407BFF"/>
<g opacity="0.5">
<path d="M179.896 76.12C175.065 75.5961 160.211 72.2485 140.223 75.1541L135.539 148.876C135.13 155.898 134.342 162.892 133.177 169.829C153.477 178.53 177.469 176.042 191.084 168.733C190.928 169.035 190.477 160.99 189.78 149.211C188.558 128.446 186.548 96.0667 183.957 77.3232C183.858 76.873 180.348 76.1854 179.896 76.12Z" fill="white"/>
</g>
<path d="M153.305 74.4011C153.695 72.9665 154.541 71.697 155.716 70.7833L166.847 71.6018L172.063 75.0313L153.305 74.4011Z" fill="#407BFF"/>
<path opacity="0.5" d="M153.305 74.4011C153.695 72.9665 154.541 71.697 155.716 70.7833L166.847 71.6018L172.063 75.0313L153.305 74.4011Z" fill="white"/>
<path opacity="0.2" d="M179.355 99.0786C181.135 107.386 183.694 123.633 188.533 129.363L187.377 112.895L179.355 99.0786Z" fill="black"/>
<path opacity="0.2" d="M137.278 116.316L137.704 95.0271L133.226 115.301L137.278 116.316Z" fill="black"/>
<path d="M187.885 105.643C187.254 105.889 199.303 132.94 204.216 133.177C209.129 133.415 232.153 122.962 232.153 122.962L226.985 116.807L209.572 117.806L200.697 98.9396L187.885 105.643Z" fill="#B97964"/>
<path d="M181.824 77.0612C175.574 81.1536 172.474 90.509 189.206 119.295L207.3 108.27C203.634 101.534 199.762 96.6313 195.448 86.8749C186.786 74.4011 181.824 77.0612 181.824 77.0612Z" fill="#407BFF"/>
<path opacity="0.5" d="M181.824 77.0612C175.574 81.1536 172.474 90.509 189.206 119.295L207.3 108.27C203.634 101.534 199.762 96.6313 195.448 86.8749C186.786 74.4011 181.824 77.0612 181.824 77.0612Z" fill="white"/>
<path d="M240.265 116.627C240.265 115.048 239.781 113.353 238.928 113.28C238.075 113.206 233.522 113.28 233.522 113.28C233.522 112.011 235.917 110.611 235.163 109.744C234.146 108.606 228.248 113.46 227.879 114.45C227.608 115.308 227.239 116.132 226.78 116.905L229.897 124.043C229.897 124.043 235.639 127.832 237 126.498C237.384 126.146 237.691 125.719 237.902 125.243C238.112 124.767 238.221 124.252 238.222 123.732C238.222 123.732 239.559 121.882 239.436 120.662C239.313 119.443 240.265 118.207 240.265 116.627Z" fill="#B97964"/>
</g>
<g opacity="0.7" filter="url(#filter0_f_0_374)">
<ellipse cx="308.4" cy="355.915" rx="268.585" ry="12.0836" fill="url(#paint0_radial_0_374)"/>
</g>
<defs>
<filter id="filter0_f_0_374" x="15.8145" y="319.832" width="585.17" height="72.1671" filterUnits="userSpaceOnUse" color-interpolation-filters="sRGB">
<feFlood flood-opacity="0" result="BackgroundImageFix"/>
<feBlend mode="normal" in="SourceGraphic" in2="BackgroundImageFix" result="shape"/>
<feGaussianBlur stdDeviation="12" result="effect1_foregroundBlur_0_374"/>
</filter>
<radialGradient id="paint0_radial_0_374" cx="0" cy="0" r="1" gradientUnits="userSpaceOnUse" gradientTransform="translate(308.4 355.915) rotate(90) scale(12.0836 268.585)">
<stop stop-opacity="0.5"/>
<stop offset="1" stop-opacity="0"/>
</radialGradient>
<clipPath id="clip0_0_374">
<rect width="615.164" height="343.833" fill="white" transform="translate(0.268555)"/>
</clipPath>
</defs>
</svg>
