<svg width="14" height="14" viewBox="0 0 14 14" fill="none" xmlns="http://www.w3.org/2000/svg">
<path d="M10.7738 9.81784L11.0013 11.6612C11.0596 12.1453 10.5404 12.4836 10.1263 12.2328L7.68208 10.7803C7.41375 10.7803 7.15126 10.7628 6.89459 10.7278C7.32626 10.2203 7.58292 9.57865 7.58292 8.88448C7.58292 7.22781 6.14792 5.88617 4.37459 5.88617C3.69792 5.88617 3.07375 6.07866 2.55459 6.41699C2.53709 6.27116 2.53125 6.12532 2.53125 5.97365C2.53125 3.31949 4.83542 1.16699 7.68208 1.16699C10.5288 1.16699 12.8329 3.31949 12.8329 5.97365C12.8329 7.54865 12.0221 8.94284 10.7738 9.81784Z" stroke="white" stroke-linecap="round" stroke-linejoin="round"/>
<path d="M7.58268 8.88405C7.58268 9.57822 7.32602 10.2199 6.89435 10.7274C6.31685 11.4274 5.40102 11.8766 4.37435 11.8766L2.85185 12.7807C2.59518 12.9382 2.26851 12.7224 2.30351 12.4249L2.44935 11.2757C1.66768 10.7332 1.16602 9.86405 1.16602 8.88405C1.16602 7.85738 1.71435 6.95323 2.55435 6.41656C3.07352 6.07823 3.69768 5.88574 4.37435 5.88574C6.14768 5.88574 7.58268 7.22738 7.58268 8.88405Z" stroke="white" stroke-linecap="round" stroke-linejoin="round"/>
</svg>
