<svg width="1712" height="699" viewBox="0 0 1712 699" fill="none" xmlns="http://www.w3.org/2000/svg">
<rect width="1712" height="699" fill="#2B3694"/>
<mask id="mask0_2_53" style="mask-type:alpha" maskUnits="userSpaceOnUse" x="0" y="0" width="1712" height="699">
<rect width="1712" height="699" fill="#2B3694"/>
</mask>
<g mask="url(#mask0_2_53)">
<path opacity="0.54" d="M1151.52 728.152C1120.34 691.026 1139.43 633.671 1179.63 604.5C1219.84 575.306 1273.99 567.89 1325.5 565.246C1377.01 562.58 1429.98 563.397 1478.25 546.994C1578.16 513.029 1631.21 416.506 1672.01 327.422C1712.81 238.337 1758.26 140.675 1853.4 96.928C1928 62.6399 2016.77 69.7555 2098.84 54.9224C2242.12 29.0397 2366.16 -70.4926 2411.43 -195.972" stroke="url(#paint0_linear_2_53)" stroke-width="0.8669" stroke-miterlimit="10"/>
<path opacity="0.54" d="M1157.21 739.63C1126.03 702.569 1144.69 645.344 1184.46 615.849C1188.01 613.205 1191.7 610.754 1195.46 608.433C1233.88 584.958 1282.7 578.1 1329.43 575.22C1338.45 574.661 1347.52 574.209 1356.59 573.758C1399.18 571.651 1442.05 569.458 1481.7 555.764C1494.56 551.336 1506.65 545.854 1518.03 539.491C1594.82 496.604 1639.28 413.41 1674.11 335.676C1676.63 330.022 1679.18 324.347 1681.75 318.65C1719.81 234.316 1764.23 146.908 1850.45 103.527C1875.11 91.1229 1901.32 82.61 1929.29 77.3217C1962.3 71.066 1997.03 69.3247 2031.1 67.2825C2054.35 65.8852 2077.42 64.3159 2100.1 61.0698C2110.77 59.5435 2121.36 57.6088 2131.86 55.2441C2198.7 40.2175 2261.23 7.67063 2311.36 -36.0333C2361.61 -79.8447 2399.67 -134.641 2420.72 -194.79" stroke="url(#paint1_linear_2_53)" stroke-width="0.8669" stroke-miterlimit="10"/>
<path opacity="0.54" d="M1162.9 751.11C1131.7 714.092 1149.93 657.017 1189.28 627.2C1192.8 624.534 1196.44 622.041 1200.18 619.698C1238.24 595.922 1286.8 588.569 1333.39 585.194C1342.38 584.549 1351.4 584.012 1360.45 583.475C1402.89 580.959 1445.67 578.423 1485.18 564.557C1497.99 560.064 1510.06 554.561 1521.41 548.155C1598.04 504.988 1642.14 421.815 1676.26 343.952C1678.73 338.298 1681.23 332.602 1683.73 326.905C1720.91 242.464 1764.23 155.83 1847.6 110.17C1871.95 96.8198 1897.75 86.6516 1926.29 80.6539C1960.02 73.5598 1996.04 72.3129 2030.88 71.2166C2054.66 70.4642 2078.18 69.7333 2101.39 67.2396C2112.32 66.0572 2123.15 64.4664 2133.96 62.3812C2202.72 49.1389 2267.95 15.9256 2319.32 -29.3046C2370.8 -74.6208 2408.94 -131.567 2429.98 -193.63" stroke="url(#paint2_linear_2_53)" stroke-width="0.8669" stroke-miterlimit="10"/>
<path opacity="0.54" d="M1168.57 762.591C1137.36 725.637 1155.14 668.691 1194.08 638.573C1197.56 635.886 1201.15 633.35 1204.87 630.985C1242.6 606.886 1290.87 599.04 1337.31 595.192C1346.26 594.461 1355.28 593.816 1364.28 593.193C1406.58 590.269 1449.24 587.388 1488.63 573.351C1501.39 568.815 1513.41 563.268 1524.74 556.841C1601.18 513.416 1644.95 430.265 1678.35 352.252C1680.78 346.576 1683.21 340.879 1685.66 335.183C1721.96 250.613 1764.21 164.688 1844.67 116.814C1868.73 102.496 1894.11 90.7159 1923.24 84.0088C1957.69 76.0548 1994.99 75.3239 2030.62 75.1949C2054.95 75.0875 2078.9 75.2164 2102.63 73.4537C2113.79 72.6368 2124.91 71.3684 2136 69.5627C2206.7 58.1046 2274.61 24.2465 2327.22 -22.5101C2379.94 -69.3526 2418.15 -128.427 2439.21 -192.403" stroke="url(#paint3_linear_2_53)" stroke-width="0.8669" stroke-miterlimit="10"/>
<path opacity="0.54" d="M1174.25 774.093C1143.05 737.183 1160.4 680.387 1198.89 649.947C1202.34 647.217 1205.89 644.68 1209.55 642.272C1246.92 617.851 1294.94 609.532 1341.24 605.211C1350.16 604.373 1359.14 603.663 1368.13 602.954C1410.29 599.622 1452.85 596.376 1492.13 582.187C1504.84 577.587 1516.84 572.019 1528.12 565.549C1604.39 521.866 1647.78 438.715 1680.51 360.572C1682.89 354.897 1685.27 349.179 1687.65 343.461C1723.07 258.783 1764.23 173.417 1841.81 123.479C1865.56 108.173 1890.56 94.7803 1920.26 87.3852C1955.45 78.5714 1994.01 78.3564 2030.43 79.1733C2055.28 79.7322 2079.68 80.6781 2103.96 79.6677C2115.36 79.1948 2126.76 78.2489 2138.16 76.7441C2210.79 67.0918 2281.39 32.5457 2335.24 -15.7156C2389.2 -64.0629 2427.48 -125.287 2448.57 -191.176" stroke="url(#paint4_linear_2_53)" stroke-width="0.8669" stroke-miterlimit="10"/>
<path opacity="0.54" d="M1179.95 785.569C1148.72 748.723 1165.64 692.034 1203.7 661.293C1207.11 658.542 1210.63 655.962 1214.27 653.533C1251.29 628.79 1299.04 619.997 1345.19 615.182C1354.1 614.257 1363.05 613.462 1372 612.667C1414.01 608.926 1456.48 605.336 1495.61 590.976C1508.27 586.333 1520.22 580.722 1531.51 574.208C1607.61 530.246 1650.64 447.138 1682.66 368.845C1684.99 363.148 1687.3 357.451 1689.63 351.712C1724.17 266.926 1764.21 182.012 1838.93 130.096C1862.43 113.78 1886.97 98.8179 1917.25 90.692C1953.14 81.0397 1992.99 81.3192 2030.22 83.082C2055.62 84.2858 2080.47 86.0701 2105.25 85.8121C2116.91 85.6831 2128.55 85.0812 2140.26 83.8559C2214.82 75.9879 2288.11 40.7969 2343.19 -8.99073C2398.37 -58.8643 2436.74 -122.217 2457.85 -190.019" stroke="url(#paint5_linear_2_53)" stroke-width="0.8669" stroke-miterlimit="10"/>
<path opacity="0.54" d="M1185.63 797.05C1154.4 760.247 1170.87 703.709 1208.53 672.645C1211.88 669.872 1215.38 667.25 1218.98 664.799C1255.66 639.755 1303.12 630.446 1349.11 625.18C1357.99 624.169 1366.89 623.266 1375.82 622.385C1417.69 618.258 1460.04 614.302 1499.05 599.77C1511.67 595.062 1523.6 589.408 1534.83 582.873C1610.76 538.653 1653.44 455.545 1684.75 377.123C1687.03 371.426 1689.29 365.708 1691.55 359.968C1725.21 275.075 1764.13 190.505 1836 136.741C1859.21 119.392 1883.32 102.861 1914.19 94.047C1950.8 83.5348 1991.94 84.3302 2029.95 87.0604C2055.87 88.9092 2081.18 91.5318 2106.48 92.0263C2118.38 92.2627 2130.31 91.9832 2142.33 91.0374C2218.81 84.9536 2294.79 49.0962 2351.11 -2.1962C2407.53 -53.5746 2445.97 -119.077 2467.11 -188.792" stroke="url(#paint6_linear_2_53)" stroke-width="0.8669" stroke-miterlimit="10"/>
<path opacity="0.54" d="M1191.3 808.53C1160.04 771.792 1176.11 715.383 1213.32 684.018C1216.65 681.224 1220.1 678.579 1223.67 676.086C1259.99 650.719 1307.2 640.938 1353.04 635.177C1361.88 634.08 1370.78 633.091 1379.66 632.124C1421.41 627.588 1463.64 623.267 1502.51 608.584C1515.08 603.834 1526.98 598.137 1538.17 591.559C1613.93 547.081 1656.26 463.994 1686.85 385.421C1689.06 379.703 1691.27 373.985 1693.49 368.245C1726.26 283.245 1763.99 198.911 1833.07 143.384C1856 124.961 1879.68 106.925 1911.15 97.3798C1948.47 86.0078 1990.89 87.3191 2029.69 90.9951C2056.16 93.4888 2081.89 96.9499 2107.74 98.1967C2119.91 98.7771 2132.07 98.8416 2144.4 98.1752C2222.81 93.8973 2301.48 57.3734 2359.04 4.55468C2416.69 -48.3501 2455.21 -115.98 2476.35 -187.609" stroke="url(#paint7_linear_2_53)" stroke-width="0.8669" stroke-miterlimit="10"/>
<path opacity="0.54" d="M1196.98 820.03C1165.73 783.355 1181.35 727.076 1218.15 695.389C1221.43 692.551 1224.86 689.885 1228.38 687.37C1264.37 661.681 1311.27 651.405 1356.99 645.171C1365.8 643.967 1374.66 642.892 1383.51 641.839C1425.12 636.895 1467.25 632.23 1505.98 617.375C1518.53 612.581 1530.36 606.842 1541.54 600.242C1617.12 555.485 1659.11 472.419 1688.99 393.718C1691.15 387.999 1693.32 382.26 1695.46 376.498C1727.33 291.391 1763.87 207.229 1830.19 150.025C1852.83 130.505 1876.11 110.964 1908.12 100.732C1946.16 88.5213 1989.87 90.3271 2029.45 94.949C2056.45 98.0876 2082.63 102.409 2109 104.408C2121.41 105.332 2133.86 105.741 2146.47 105.354C2226.81 102.86 2308.15 65.6697 2366.97 11.3462C2425.86 -43.0634 2464.44 -112.865 2485.6 -186.386" stroke="url(#paint8_linear_2_53)" stroke-width="0.8669" stroke-miterlimit="10"/>
<path opacity="0.54" d="M1202.67 831.509C1171.39 794.878 1186.6 738.749 1222.95 706.739C1226.21 703.88 1229.59 701.171 1233.07 698.635C1268.7 672.644 1315.33 661.874 1360.92 655.167C1369.7 653.877 1378.53 652.717 1387.36 651.577C1428.83 646.224 1470.84 641.215 1509.45 626.189C1521.95 621.331 1533.76 615.569 1544.9 608.927C1620.31 563.911 1661.94 480.868 1691.12 402.016C1693.24 396.297 1695.34 390.536 1697.43 384.775C1728.43 299.56 1763.7 215.462 1827.31 156.689C1849.63 136.052 1872.51 115.027 1905.12 104.085C1943.87 91.0149 1988.86 93.3151 2029.26 98.9044C2056.8 102.709 2083.41 107.847 2110.33 110.599C2122.97 111.889 2135.71 112.62 2148.63 112.512C2230.9 111.824 2314.93 73.9676 2374.98 18.1177C2435.11 -37.7966 2473.79 -109.748 2494.96 -185.182" stroke="url(#paint9_linear_2_53)" stroke-width="0.8669" stroke-miterlimit="10"/>
<path opacity="0.54" d="M1208.36 842.99C1177.08 806.423 1191.84 750.401 1227.76 718.112C1230.98 715.232 1234.31 712.502 1237.78 709.922C1273.09 683.609 1319.43 672.345 1364.87 665.165C1373.61 663.789 1382.42 662.542 1391.22 661.317C1432.55 655.577 1474.47 650.181 1512.93 635.004C1525.38 630.103 1537.14 624.299 1548.26 617.613C1623.5 572.34 1664.78 489.317 1693.25 410.315C1695.32 404.575 1697.36 398.814 1699.39 393.053C1729.5 307.73 1763.47 223.611 1824.41 163.333C1846.42 141.556 1868.89 119.092 1902.1 107.44C1941.57 93.51 1987.84 96.3261 2029.02 102.883C2057.11 107.333 2084.15 113.309 2111.6 116.813C2124.5 118.447 2137.47 119.522 2150.71 119.694C2234.9 120.79 2321.62 82.2669 2382.91 24.8907C2444.28 -32.5499 2483.03 -106.629 2504.22 -183.977" stroke="url(#paint10_linear_2_53)" stroke-width="0.8669" stroke-miterlimit="10"/>
<path opacity="0.54" d="M1214.03 854.47C1182.72 817.946 1197.05 762.075 1232.57 729.463C1235.74 726.54 1239.04 723.788 1242.47 721.187C1277.42 694.552 1323.5 682.814 1368.77 675.161C1377.49 673.699 1386.27 672.345 1395.03 671.034C1436.21 664.886 1478.03 659.146 1516.38 643.797C1528.78 638.831 1540.52 633.005 1551.61 626.277C1626.69 580.724 1667.58 497.723 1695.36 418.592C1697.39 412.852 1699.36 407.069 1701.34 401.286C1730.57 315.856 1763.16 231.673 1821.5 169.954C1843.18 147.017 1865.27 123.112 1899.05 110.751C1939.23 95.9823 1986.79 99.2929 2028.76 106.795C2057.37 111.89 2084.86 118.705 2112.83 122.961C2125.97 124.961 2139.23 126.358 2152.78 126.809C2238.9 129.69 2328.31 90.5005 2390.84 31.6195C2453.44 -27.3259 2492.27 -103.555 2513.48 -182.816" stroke="url(#paint11_linear_2_53)" stroke-width="0.8669" stroke-miterlimit="10"/>
<path opacity="0.54" d="M1219.72 865.969C1188.42 829.51 1202.32 773.768 1237.38 740.834C1240.52 737.889 1243.78 735.094 1247.19 732.45C1281.77 705.492 1327.6 693.26 1372.73 685.134C1381.42 683.565 1390.15 682.146 1398.89 680.749C1439.93 674.192 1481.63 668.109 1519.86 652.588C1532.21 647.579 1543.93 641.689 1554.97 634.938C1629.88 589.128 1670.42 506.148 1697.48 426.866C1699.46 421.105 1701.39 415.322 1703.29 409.54C1731.64 323.981 1762.78 239.668 1818.6 176.574C1839.95 152.454 1861.68 127.152 1896.03 114.081C1936.93 98.4529 1985.77 102.279 2028.55 110.728C2057.71 116.468 2085.65 124.142 2114.15 129.13C2127.55 131.473 2141.07 133.214 2154.9 133.945C2242.95 138.631 2335.05 98.7754 2398.82 38.3681C2462.66 -22.1037 2501.55 -100.461 2522.76 -181.635" stroke="url(#paint12_linear_2_53)" stroke-width="0.8669" stroke-miterlimit="10"/>
<path opacity="0.54" d="M1225.41 877.451C1194.08 841.035 1207.55 785.443 1242.21 752.186C1245.31 749.22 1248.54 746.404 1251.9 743.717C1286.15 716.458 1331.69 703.732 1376.68 695.133C1385.35 693.478 1394.03 691.951 1402.75 690.489C1443.64 683.524 1485.25 677.075 1523.34 661.404C1535.64 656.352 1547.31 650.418 1558.33 643.625C1633.05 597.557 1673.25 514.577 1699.6 435.167C1701.51 429.405 1703.39 423.601 1705.24 417.818C1732.71 332.152 1762.35 247.667 1815.72 183.24C1836.69 157.916 1858.09 131.217 1893.03 117.437C1934.64 100.949 1984.77 105.291 2028.33 114.707C2058.02 121.113 2086.42 129.605 2115.43 135.344C2129.07 138.032 2142.85 140.095 2156.99 141.127C2246.97 147.598 2341.76 107.075 2406.77 45.1634C2471.85 -16.8132 2510.81 -97.3204 2532.05 -180.407" stroke="url(#paint13_linear_2_53)" stroke-width="0.8669" stroke-miterlimit="10"/>
<path opacity="0.54" d="M1231.07 888.929C1199.75 852.577 1212.77 797.114 1247 763.557C1250.04 760.569 1253.26 757.71 1256.57 755.001C1290.46 727.42 1335.74 714.199 1380.58 705.127C1389.2 703.386 1397.89 701.774 1406.58 700.204C1447.35 692.852 1488.84 686.038 1526.79 670.194C1539.05 665.078 1550.69 659.123 1561.68 652.309C1636.24 605.982 1676.09 523.024 1701.75 443.463C1703.6 437.68 1705.44 431.876 1707.22 426.093C1733.81 340.319 1761.9 255.598 1812.84 189.881C1833.43 163.332 1854.5 135.278 1890.01 120.789C1932.33 103.462 1983.73 108.299 2028.1 118.661C2058.33 125.712 2087.15 135.042 2116.72 141.534C2130.6 144.587 2144.66 146.973 2159.11 148.284C2251.02 156.539 2348.5 115.372 2414.74 51.9334C2481.06 -11.5695 2520.1 -94.2049 2541.35 -179.205" stroke="url(#paint14_linear_2_53)" stroke-width="0.8669" stroke-miterlimit="10"/>
<path opacity="0.54" d="M1236.76 900.41C1205.41 864.101 1218.03 808.789 1251.8 774.909C1254.83 771.878 1257.99 768.997 1261.28 766.267C1294.84 738.364 1339.83 724.67 1384.51 715.104C1393.1 713.276 1401.74 711.578 1410.41 709.923C1451.04 702.162 1492.41 695.004 1530.24 678.988C1542.45 673.829 1554.04 667.831 1565.01 660.974C1639.4 614.368 1678.89 531.431 1703.84 451.741C1705.65 445.958 1707.41 440.154 1709.15 434.328C1734.85 348.447 1761.3 263.446 1809.91 196.504C1830.07 168.73 1850.85 139.3 1886.96 124.101C1930 105.915 1982.68 111.267 2027.83 122.575C2058.59 130.271 2087.86 140.439 2117.95 147.684C2132.09 151.08 2146.4 153.81 2161.16 155.401C2254.99 165.462 2355.16 123.607 2422.64 58.6636C2490.2 -6.34405 2529.31 -91.1292 2550.59 -178.043" stroke="url(#paint15_linear_2_53)" stroke-width="0.8669" stroke-miterlimit="10"/>
<path opacity="0.54" d="M1242.45 911.91C1211.1 875.666 1223.26 820.461 1256.64 786.28C1259.61 783.227 1262.73 780.325 1265.99 777.552C1299.2 749.326 1343.92 735.16 1388.46 725.121C1397.03 723.186 1405.65 721.402 1414.26 719.66C1454.75 711.491 1496.03 703.967 1533.71 687.801C1545.88 682.577 1557.44 676.558 1568.37 669.658C1642.59 622.794 1681.72 539.879 1705.96 460.038C1707.72 454.234 1709.43 448.429 1711.1 442.604C1735.92 356.615 1760.7 271.335 1807 203.146C1826.71 174.125 1847.26 143.362 1883.94 127.454C1927.69 108.407 1981.65 114.276 2027.62 126.53C2058.92 134.871 2088.63 145.899 2119.24 153.874C2133.62 157.636 2148.21 160.689 2163.25 162.559C2259.01 174.404 2361.87 131.904 2430.59 65.4344C2499.38 -1.09959 2538.57 -88.013 2559.87 -176.84" stroke="url(#paint16_linear_2_53)" stroke-width="0.8669" stroke-miterlimit="10"/>
<path opacity="0.54" d="M1248.14 923.39C1216.79 887.189 1228.5 832.134 1261.44 797.653C1264.4 794.579 1267.47 791.634 1270.7 788.839C1303.55 760.312 1348.02 745.629 1392.41 735.117C1400.96 733.097 1409.53 731.226 1418.12 729.399C1458.47 720.822 1499.65 712.954 1537.19 696.616C1549.3 691.349 1560.85 685.287 1571.75 678.343C1645.8 631.221 1684.58 548.328 1708.1 468.336C1709.81 462.532 1711.46 456.706 1713.07 450.881C1737.02 364.784 1760.04 279.204 1804.12 209.81C1823.36 179.521 1843.66 147.425 1880.91 130.83C1925.38 110.945 1980.63 117.308 2027.38 130.529C2059.21 139.514 2089.36 151.381 2120.52 160.109C2135.16 164.215 2150.02 167.611 2165.37 169.761C2263.06 183.412 2368.61 140.224 2438.57 72.2496C2508.6 4.21075 2547.85 -84.8524 2569.15 -175.592" stroke="url(#paint17_linear_2_53)" stroke-width="0.8669" stroke-miterlimit="10"/>
<path opacity="0.54" d="M1253.8 934.871C1222.43 898.734 1233.73 843.809 1266.25 809.005C1269.15 805.888 1272.2 802.921 1275.39 800.105C1307.91 771.256 1352.09 756.1 1396.34 745.115C1404.84 743.008 1413.41 741.031 1421.95 739.139C1462.16 730.153 1503.22 721.941 1540.66 705.431C1552.73 700.121 1564.23 693.995 1575.11 687.029C1648.97 639.628 1687.41 556.756 1710.22 476.636C1711.88 470.81 1713.48 464.984 1715.02 459.159C1738.09 372.955 1759.32 287.03 1801.22 216.455C1819.95 184.897 1840.04 151.49 1877.89 134.163C1923.07 113.418 1979.6 120.276 2027.14 134.464C2059.51 144.116 2090.12 156.8 2121.78 166.302C2136.66 170.752 2151.78 174.492 2167.44 176.921C2267.08 192.356 2375.29 148.523 2446.49 79.0012C2517.76 9.45762 2557.08 -81.7552 2578.41 -174.408" stroke="url(#paint18_linear_2_53)" stroke-width="0.8669" stroke-miterlimit="10"/>
<path opacity="0.54" d="M1259.49 946.349C1228.12 910.255 1238.98 855.48 1271.06 820.354C1273.92 817.215 1276.94 814.227 1280.08 811.368C1312.24 782.196 1356.16 766.546 1400.27 755.088C1408.74 752.895 1417.27 750.832 1425.81 748.832C1465.87 739.46 1506.84 730.861 1544.14 714.179C1556.16 708.805 1567.63 702.656 1578.47 695.67C1652.16 648.01 1690.22 565.16 1712.36 484.889C1713.96 479.064 1715.53 473.216 1717.03 467.369C1739.21 381.058 1758.59 294.811 1798.37 223.053C1816.55 190.226 1836.48 155.487 1874.92 137.472C1920.81 115.868 1978.63 123.241 2026.95 138.375C2059.87 148.672 2090.91 162.194 2123.1 172.448C2138.24 177.264 2153.61 181.327 2169.59 184.035C2271.16 201.255 2382.06 156.755 2454.49 85.7283C2527 14.6584 2566.42 -78.6826 2587.75 -173.249" stroke="url(#paint19_linear_2_53)" stroke-width="0.8669" stroke-miterlimit="10"/>
<path opacity="0.54" d="M1265.19 957.849C1233.79 921.82 1244.22 867.174 1275.88 831.725C1278.71 828.565 1281.68 825.534 1284.8 822.653C1316.63 793.18 1360.26 777.036 1404.2 765.084C1412.65 762.783 1421.15 760.655 1429.65 758.57C1469.57 748.789 1510.44 739.846 1547.6 722.992C1559.57 717.575 1571 711.383 1581.8 704.354C1655.33 656.436 1693.04 573.586 1714.46 493.186C1716.01 487.339 1717.51 481.492 1718.96 475.645C1740.24 389.226 1757.74 302.656 1795.44 229.716C1813.08 195.621 1832.86 159.571 1871.85 140.825C1918.46 118.382 1977.56 126.25 2026.7 142.351C2060.14 153.293 2091.63 167.654 2124.36 178.66C2139.74 183.819 2155.4 188.226 2171.66 191.214C2275.16 210.24 2388.75 165.074 2462.42 92.5206C2536.17 19.9459 2575.66 -75.5664 2597.01 -172.025" stroke="url(#paint20_linear_2_53)" stroke-width="0.8669" stroke-miterlimit="10"/>
<path opacity="0.54" d="M1270.87 969.329C1239.47 933.342 1249.47 878.825 1280.7 843.097C1283.49 839.915 1286.44 836.841 1289.51 833.939C1320.98 804.144 1364.35 787.505 1408.15 775.101C1416.57 772.715 1425.03 770.479 1433.5 768.308C1473.3 758.118 1514.03 748.831 1551.07 731.806C1562.99 726.324 1574.39 720.111 1585.18 713.039C1658.54 664.842 1695.89 582.034 1716.6 501.484C1718.1 495.637 1719.55 489.768 1720.93 483.921C1741.33 397.373 1756.87 310.481 1792.56 236.359C1809.6 200.974 1829.26 163.612 1868.85 144.178C1916.17 120.875 1976.56 129.259 2026.48 146.307C2060.47 157.894 2092.39 173.114 2125.64 184.851C2141.26 190.354 2157.18 195.105 2173.75 198.373C2279.18 219.182 2395.44 173.35 2470.37 99.2921C2545.35 25.1911 2584.91 -72.4494 2606.29 -170.821" stroke="url(#paint21_linear_2_53)" stroke-width="0.8669" stroke-miterlimit="10"/>
<path opacity="0.54" d="M1276.54 980.809C1245.12 944.887 1254.69 890.499 1285.49 854.448C1288.25 851.224 1291.15 848.15 1294.18 845.205C1325.29 815.087 1368.4 797.975 1412.05 785.077C1420.43 782.605 1428.88 780.283 1437.31 778.026C1476.97 767.428 1517.6 757.797 1554.49 740.599C1566.37 735.074 1577.75 728.818 1588.49 721.703C1661.68 673.248 1698.67 590.441 1718.67 509.761C1720.12 503.893 1721.5 498.024 1722.84 492.177C1742.35 405.521 1755.88 318.307 1789.61 243.002C1806.03 206.349 1825.6 167.676 1865.78 147.511C1913.84 123.348 1975.49 132.248 2026.19 150.241C2060.71 162.495 2093.08 178.532 2126.88 191.022C2142.76 196.89 2158.95 201.964 2175.82 205.511C2283.18 228.104 2402.12 181.627 2478.3 106.043C2554.52 30.4372 2594.15 -69.353 2615.53 -169.638" stroke="url(#paint22_linear_2_53)" stroke-width="0.8669" stroke-miterlimit="10"/>
<path opacity="0.54" d="M1282.23 992.289C1250.81 956.41 1259.92 902.172 1290.32 865.799C1293.03 862.553 1295.89 859.436 1298.91 856.469C1329.69 826.029 1372.51 808.423 1416.03 795.073C1424.38 792.515 1432.79 790.085 1441.19 787.764C1480.7 776.779 1521.24 766.761 1557.99 749.413C1569.82 743.823 1581.16 737.546 1591.87 730.388C1664.87 681.675 1701.53 598.889 1720.81 518.059C1722.22 512.191 1723.55 506.3 1724.81 500.432C1743.45 413.669 1754.95 326.153 1786.72 249.623C1802.48 211.68 1822 171.696 1862.75 150.843C1911.53 125.842 1974.47 135.236 2025.98 154.175C2061.04 167.074 2093.84 183.949 2128.17 197.191C2144.28 203.404 2160.73 208.8 2177.92 212.648C2287.2 237.047 2408.84 189.882 2486.25 112.793C2563.68 35.661 2603.41 -66.2575 2624.81 -168.455" stroke="url(#paint23_linear_2_53)" stroke-width="0.8669" stroke-miterlimit="10"/>
<path opacity="0.54" d="M1287.92 1003.79C1256.47 967.975 1265.18 913.866 1295.13 877.192C1297.79 873.924 1300.63 870.764 1303.6 867.776C1334.02 837.035 1376.59 818.934 1419.93 805.09C1428.26 802.446 1436.64 799.93 1445.02 797.501C1484.39 786.108 1524.81 775.746 1561.45 758.226C1573.23 752.593 1584.54 746.273 1595.22 739.072C1668.06 690.08 1704.36 607.337 1722.93 526.356C1724.29 520.466 1725.55 514.576 1726.76 508.707C1744.52 421.837 1753.92 334.02 1783.85 256.286C1798.94 217.075 1818.43 175.758 1859.76 154.196C1909.24 128.335 1973.47 138.245 2025.76 158.151C2061.35 171.695 2094.6 189.408 2129.45 203.403C2145.83 209.981 2162.54 215.7 2180.04 219.827C2291.25 246.011 2415.57 198.201 2494.22 119.585C2572.89 40.9484 2612.69 -63.1198 2634.12 -167.231" stroke="url(#paint24_linear_2_53)" stroke-width="0.8669" stroke-miterlimit="10"/>
<path opacity="0.54" d="M1293.6 1015.27C1262.16 979.498 1270.42 925.54 1299.96 888.543C1302.6 885.232 1305.39 882.072 1308.34 879.02C1338.42 847.956 1380.7 829.361 1423.9 815.044C1432.19 812.292 1440.54 809.712 1448.9 807.197C1488.13 795.395 1528.45 784.69 1564.97 766.997C1576.7 761.322 1587.96 754.937 1598.62 747.736C1671.3 698.486 1707.24 615.743 1725.12 534.634C1726.43 528.743 1727.64 522.853 1728.78 516.963C1745.66 429.985 1752.94 341.889 1781.01 262.908C1795.39 222.408 1814.88 179.8 1856.8 157.529C1907 130.808 1972.51 141.234 2025.59 162.086C2061.73 176.274 2095.43 194.848 2130.81 209.574C2147.42 216.496 2164.42 222.558 2182.2 226.965C2295.34 254.954 2422.36 206.457 2502.27 126.315C2582.17 46.1731 2622.05 -60.0448 2643.49 -166.069" stroke="url(#paint25_linear_2_53)" stroke-width="0.8669" stroke-miterlimit="10"/>
<path opacity="0.54" d="M1299.27 1026.75C1267.8 991.041 1275.66 937.19 1304.75 899.893C1307.34 896.56 1310.1 893.357 1313.01 890.283C1342.74 858.897 1384.75 839.829 1427.81 825.039C1436.07 822.201 1444.4 819.514 1452.71 816.935C1491.8 804.724 1532.02 793.653 1568.4 775.81C1580.08 770.071 1591.32 763.664 1601.94 756.42C1674.44 706.912 1710.03 624.19 1727.19 542.931C1728.43 537.019 1729.6 531.129 1730.69 525.217C1746.69 438.132 1751.83 349.778 1778.06 269.55C1791.72 227.781 1811.22 183.841 1853.71 160.86C1904.63 133.301 1971.42 144.221 2025.29 166.019C2061.95 180.853 2096.1 200.265 2132 215.743C2148.85 223.009 2166.11 229.415 2184.2 234.101C2299.27 263.875 2428.98 214.711 2510.12 133.064C2591.27 51.3961 2631.21 -56.95 2652.68 -164.888" stroke="url(#paint26_linear_2_53)" stroke-width="0.8669" stroke-miterlimit="10"/>
<path opacity="0.54" d="M1304.96 1038.23C1273.49 1002.56 1280.89 948.864 1309.55 911.244C1312.12 907.89 1314.84 904.644 1317.69 901.549C1347.09 869.862 1388.82 850.299 1431.74 835.015C1439.97 832.091 1448.26 829.318 1456.54 826.631C1495.48 814.012 1535.59 802.597 1571.85 784.582C1583.49 778.799 1594.7 772.35 1605.29 765.063C1677.63 715.296 1712.84 632.575 1729.31 551.186C1730.5 545.275 1731.62 539.363 1732.64 533.451C1747.76 446.258 1750.71 357.668 1775.15 276.151C1788.06 233.113 1807.62 187.861 1850.68 164.171C1902.31 135.752 1970.39 147.167 2025.07 169.954C2062.28 185.454 2096.86 205.683 2133.31 221.913C2150.42 229.545 2167.94 236.273 2186.34 241.239C2303.34 272.797 2435.73 222.988 2518.12 139.815C2600.5 56.6422 2640.52 -53.8536 2662.01 -163.705" stroke="url(#paint27_linear_2_53)" stroke-width="0.8669" stroke-miterlimit="10"/>
<path opacity="0.54" d="M1310.65 1049.73C1279.16 1014.13 1286.13 960.56 1314.39 922.639C1316.91 919.264 1319.6 915.996 1322.43 912.857C1351.47 880.848 1392.94 860.791 1435.71 845.055C1443.93 842.046 1452.19 839.165 1460.42 836.413C1499.25 823.407 1539.24 811.627 1575.35 793.44C1586.94 787.593 1598.1 781.122 1608.67 773.792C1680.82 723.746 1715.69 641.068 1731.45 559.529C1732.6 553.595 1733.64 547.684 1734.62 541.772C1748.85 454.472 1749.59 365.667 1772.28 282.859C1784.42 238.553 1804.03 191.969 1847.69 167.569C1900.03 138.29 1969.4 150.221 2024.86 173.954C2062.61 190.098 2097.63 211.166 2134.59 228.149C2151.95 236.124 2169.75 243.197 2188.44 248.442C2307.36 281.806 2442.45 231.309 2526.07 146.631C2609.69 61.9319 2649.78 -50.6922 2671.28 -162.456" stroke="url(#paint28_linear_2_53)" stroke-width="0.8669" stroke-miterlimit="10"/>
<path opacity="0.54" d="M1316.32 1061.21C1284.82 1025.65 1291.37 972.231 1319.17 933.988C1321.65 930.57 1324.32 927.281 1327.1 924.121C1355.78 891.789 1396.99 871.259 1439.6 855.028C1447.76 851.911 1456 848.966 1464.23 846.107C1502.92 832.693 1542.81 820.547 1578.78 802.21C1590.32 796.319 1601.46 789.806 1611.98 782.432C1683.97 732.129 1718.48 649.45 1733.53 567.782C1734.62 561.849 1735.62 555.916 1736.53 550.004C1749.88 462.596 1748.38 373.597 1769.33 289.457C1780.66 243.904 1800.37 195.987 1844.6 170.878C1897.65 140.761 1968.3 153.186 2024.55 177.865C2062.83 194.654 2098.3 216.56 2135.79 234.317C2153.4 242.636 2171.45 250.053 2190.44 255.578C2311.29 290.726 2449.07 239.584 2533.93 153.38C2618.79 67.1756 2658.95 -47.5982 2680.47 -161.276" stroke="url(#paint29_linear_2_53)" stroke-width="0.8669" stroke-miterlimit="10"/>
<path opacity="0.54" d="M1322 1072.69C1290.51 1037.2 1296.6 983.905 1324 945.339C1326.45 941.899 1329.05 938.567 1331.83 935.386C1360.18 902.731 1401.1 881.707 1443.57 865.025C1451.71 861.822 1459.92 858.791 1468.11 855.846C1506.65 842.023 1546.42 829.533 1582.27 811.024C1593.79 805.091 1604.86 798.534 1615.38 791.139C1687.2 740.578 1721.36 657.921 1735.71 576.102C1736.76 570.147 1737.69 564.214 1738.55 558.281C1751.02 470.744 1747.28 381.595 1766.49 296.122C1777.01 249.322 1796.82 200.051 1841.64 174.233C1895.41 143.255 1967.35 156.196 2024.38 181.821C2063.21 199.255 2099.1 222.021 2137.14 240.509C2154.99 249.193 2173.32 256.932 2192.63 262.737C2315.41 299.669 2455.87 247.861 2541.97 160.152C2628.07 72.4216 2668.32 -44.4805 2689.84 -160.071" stroke="url(#paint30_linear_2_53)" stroke-width="0.8669" stroke-miterlimit="10"/>
<path opacity="0.54" d="M1327.69 1084.17C1293.37 1045.56 1303.15 985.945 1336.52 946.648C1369.9 907.372 1421.22 884.349 1471.94 865.56C1522.67 846.772 1575.63 830.369 1618.74 799.8C1695.58 745.283 1728.91 654.156 1740.47 566.533C1752.07 478.889 1746.04 389.59 1763.56 302.762C1773.25 254.716 1793.2 204.111 1838.59 177.584C1893.08 145.746 1966.3 159.204 2024.14 185.796C2081.99 212.388 2133.33 250.846 2194.7 269.914C2319.41 308.652 2462.56 256.178 2549.9 166.943C2637.24 77.7074 2677.56 -41.3443 2699.1 -158.848" stroke="url(#paint31_linear_2_53)" stroke-width="0.8669" stroke-miterlimit="10"/>
<path opacity="0.54" d="M373.503 57.4245C397.834 86.3919 382.939 131.143 351.569 153.904C320.199 176.682 277.946 182.469 237.754 184.532C197.562 186.612 156.237 185.975 118.571 198.773C40.6204 225.274 -0.778688 300.586 -32.6127 370.095C-64.4468 439.603 -99.9026 515.804 -174.139 549.937C-232.346 576.691 -301.605 571.139 -365.644 582.712C-477.435 602.907 -574.219 680.567 -609.545 778.473" stroke="url(#paint32_linear_2_53)" stroke-width="0.8669" stroke-miterlimit="10"/>
<path opacity="0.54" d="M369.065 48.4681C393.396 77.3852 378.835 122.036 347.799 145.048C345.032 147.112 342.153 149.024 339.218 150.835C309.242 169.152 271.149 174.502 234.69 176.75C227.651 177.186 220.574 177.538 213.498 177.891C180.271 179.534 146.821 181.245 115.879 191.93C105.849 195.385 96.4142 199.662 87.5364 204.627C27.62 238.09 -7.07425 303.002 -34.2465 363.654C-36.2152 368.066 -38.2025 372.494 -40.2084 376.939C-69.9065 442.74 -104.564 510.94 -171.835 544.789C-191.077 554.467 -211.525 561.109 -233.349 565.235C-259.109 570.116 -286.207 571.475 -312.785 573.068C-330.931 574.158 -348.928 575.383 -366.628 577.916C-374.949 579.107 -383.214 580.616 -391.404 582.461C-443.557 594.186 -492.348 619.58 -531.463 653.68C-570.671 687.864 -600.369 730.619 -616.787 777.551" stroke="url(#paint33_linear_2_53)" stroke-width="0.8669" stroke-miterlimit="10"/>
<path opacity="0.54" d="M364.623 39.5109C388.972 68.3944 374.746 112.927 344.045 136.192C341.296 138.272 338.454 140.217 335.538 142.046C305.84 160.597 267.951 166.333 231.604 168.967C224.583 169.47 217.544 169.889 210.486 170.309C177.371 172.271 143.995 174.25 113.164 185.069C103.172 188.575 93.7554 192.869 84.8961 197.867C25.1097 231.548 -9.30595 296.443 -35.921 357.196C-37.8526 361.608 -39.8028 366.052 -41.7529 370.497C-70.7639 436.383 -104.567 503.979 -169.609 539.605C-188.609 550.021 -208.742 557.955 -231.011 562.635C-257.329 568.17 -285.43 569.143 -312.621 569.998C-331.175 570.585 -349.525 571.156 -367.634 573.101C-376.159 574.024 -384.61 575.265 -393.042 576.892C-446.699 587.225 -497.589 613.139 -537.669 648.43C-577.843 683.788 -607.597 728.22 -624.015 776.645" stroke="url(#paint34_linear_2_53)" stroke-width="0.8669" stroke-miterlimit="10"/>
<path opacity="0.54" d="M360.204 30.5533C384.553 59.3866 370.679 103.819 340.294 127.318C337.582 129.415 334.778 131.394 331.88 133.239C302.442 152.042 264.776 158.164 228.541 161.167C221.557 161.737 214.518 162.24 207.497 162.727C174.493 165.008 141.211 167.255 110.472 178.208C100.517 181.747 91.1378 186.075 82.2971 191.09C22.6593 224.972 -11.4963 289.851 -37.5542 350.721C-39.4486 355.149 -41.3431 359.594 -43.2561 364.039C-71.5798 430.025 -104.547 497.068 -167.323 534.422C-186.101 545.593 -205.899 554.785 -228.633 560.018C-255.508 566.224 -284.612 566.794 -312.415 566.895C-331.397 566.979 -350.081 566.878 -368.599 568.253C-377.309 568.891 -385.983 569.88 -394.638 571.289C-449.799 580.23 -502.788 606.647 -543.834 643.129C-584.973 679.678 -614.783 725.771 -631.22 775.688" stroke="url(#paint35_linear_2_53)" stroke-width="0.8669" stroke-miterlimit="10"/>
<path opacity="0.54" d="M355.767 21.5785C380.116 50.3782 366.577 94.6931 336.544 118.444C333.851 120.574 331.084 122.553 328.224 124.432C299.064 143.486 261.602 149.978 225.478 153.349C218.513 154.003 211.511 154.557 204.491 155.11C171.598 157.71 138.389 160.243 107.744 171.313C97.8261 174.903 88.4653 179.247 79.6617 184.296C20.154 218.379 -13.7045 283.258 -39.2423 344.229C-41.0996 348.657 -42.9569 353.118 -44.8142 357.58C-72.4508 423.65 -104.563 490.257 -165.093 529.221C-183.629 541.163 -203.13 551.613 -226.309 557.383C-253.76 564.26 -283.848 564.428 -312.265 563.791C-331.655 563.354 -350.692 562.616 -369.637 563.405C-378.533 563.774 -387.43 564.512 -396.326 565.686C-452.992 573.217 -508.079 600.172 -550.091 637.828C-592.196 675.551 -622.062 723.321 -638.517 774.731" stroke="url(#paint36_linear_2_53)" stroke-width="0.8669" stroke-miterlimit="10"/>
<path opacity="0.54" d="M351.325 12.6243C375.693 41.3736 362.488 85.6047 332.789 109.59C330.134 111.737 327.385 113.75 324.543 115.646C295.662 134.952 258.405 141.812 222.392 145.569C215.446 146.29 208.462 146.911 201.479 147.532C168.697 150.45 135.563 153.251 105.029 164.456C95.1485 168.079 85.8249 172.457 77.0213 177.539C17.6436 211.84 -15.9363 276.686 -40.9169 337.774C-42.7371 342.219 -44.5387 346.664 -46.3589 351.142C-73.3082 417.296 -104.548 483.55 -162.848 524.057C-181.18 536.788 -200.329 548.463 -223.953 554.803C-251.961 562.334 -283.053 562.116 -312.101 560.741C-331.918 559.801 -351.308 558.409 -370.643 558.61C-379.743 558.711 -388.826 559.181 -397.963 560.137C-456.134 566.276 -513.32 593.734 -556.298 632.58C-599.35 671.494 -629.29 720.925 -645.764 773.828" stroke="url(#paint37_linear_2_53)" stroke-width="0.8669" stroke-miterlimit="10"/>
<path opacity="0.54" d="M346.89 3.6668C371.258 32.3826 358.406 76.4963 329.023 100.734C326.404 102.897 323.674 104.944 320.87 106.856C292.249 126.397 255.214 133.659 219.331 137.769C212.404 138.557 205.457 139.262 198.492 139.949C165.823 143.17 132.781 146.256 102.34 157.595C92.4965 161.268 83.1915 165.68 74.425 170.779C15.1773 205.281 -18.124 270.127 -42.5474 331.315C-44.3304 335.76 -46.0949 340.222 -47.8593 344.7C-74.1215 410.938 -104.488 476.924 -160.56 518.874C-178.669 532.41 -197.483 545.309 -221.572 552.186C-250.137 560.388 -282.231 559.767 -311.892 557.637C-332.118 556.194 -351.861 554.148 -371.604 553.762C-380.891 553.578 -390.196 553.796 -399.575 554.534C-459.25 559.281 -518.535 587.258 -562.479 627.279C-606.497 667.368 -636.492 718.476 -652.985 772.871" stroke="url(#paint38_linear_2_53)" stroke-width="0.8669" stroke-miterlimit="10"/>
<path opacity="0.54" d="M342.468 -5.29051C366.855 23.375 354.318 67.388 325.288 91.8602C322.688 94.0407 319.995 96.1038 317.209 98.0495C288.867 117.842 252.037 125.474 216.265 129.969C209.375 130.824 202.428 131.596 195.501 132.351C162.924 135.89 129.975 139.261 99.6456 150.718C89.839 154.424 80.5526 158.869 71.8233 164.002C12.7056 198.706 -20.3171 263.534 -44.1834 324.841C-45.9107 329.302 -47.638 333.764 -49.3653 338.242C-74.9402 404.564 -104.378 470.365 -158.277 513.691C-176.163 528.065 -194.643 542.138 -219.196 549.585C-248.319 558.458 -281.416 557.435 -311.69 554.567C-332.343 552.621 -352.42 549.921 -372.59 548.948C-382.081 548.495 -391.572 548.445 -401.193 548.965C-462.372 552.303 -523.756 580.8 -568.665 622.012C-613.649 663.291 -643.7 716.06 -660.193 771.948" stroke="url(#paint39_linear_2_53)" stroke-width="0.8669" stroke-miterlimit="10"/>
<path opacity="0.54" d="M338.029 -14.2639C362.415 14.3513 350.232 58.2636 321.518 82.9874C318.955 85.2015 316.28 87.2814 313.531 89.2438C285.449 109.288 248.86 117.305 213.182 122.17C206.31 123.109 199.401 123.948 192.491 124.77C160.026 128.627 127.152 132.267 96.9336 143.858C87.1456 147.598 77.9148 152.076 69.1856 157.226C10.2164 192.148 -22.5462 256.96 -45.8553 318.366C-47.5454 322.828 -49.2356 327.307 -50.9071 331.802C-75.7763 398.207 -104.286 463.874 -156.03 508.508C-173.693 523.738 -191.857 538.985 -216.838 546.969C-246.517 556.496 -280.617 555.087 -311.504 551.481C-332.566 549.032 -352.996 545.661 -373.575 544.101C-383.252 543.38 -392.965 543.061 -402.809 543.363C-465.493 545.308 -528.956 574.326 -574.85 616.712C-620.8 659.165 -650.906 713.628 -667.418 770.993" stroke="url(#paint40_linear_2_53)" stroke-width="0.8669" stroke-miterlimit="10"/>
<path opacity="0.54" d="M333.593 -23.2197C357.998 5.3619 346.13 49.1569 317.769 74.1322C315.224 76.3631 312.587 78.4765 309.875 80.4557C282.072 100.735 245.687 109.138 210.12 114.371C203.267 115.378 196.376 116.283 189.486 117.172C157.132 121.349 124.35 125.257 94.2249 136.982C84.4741 140.772 75.2619 145.268 66.5698 150.451C7.73065 185.574 -24.7534 250.369 -47.5239 311.893C-49.1769 316.355 -50.8113 320.85 -52.4458 325.345C-76.6277 391.834 -104.153 457.451 -153.78 503.309C-171.201 519.412 -189.05 535.816 -214.495 544.353C-244.732 554.552 -279.834 552.757 -311.353 548.396C-332.842 545.427 -353.606 541.418 -374.612 539.271C-384.474 538.265 -394.411 537.694 -404.496 537.778C-468.684 538.315 -534.247 567.853 -581.106 611.43C-628.022 655.057 -658.203 711.197 -674.714 770.054" stroke="url(#paint41_linear_2_53)" stroke-width="0.8669" stroke-miterlimit="10"/>
<path opacity="0.54" d="M329.152 -32.1778C353.557 -3.64647 342.042 40.0646 314.015 65.258C311.508 67.5056 308.908 69.6358 306.196 71.6486C278.652 92.179 242.491 100.968 207.035 106.57C200.219 107.644 193.347 108.617 186.475 109.573C154.232 114.051 121.525 118.261 91.5114 130.103C81.7977 133.928 72.6227 138.456 63.9491 143.673C5.24 178.997 -26.9655 243.776 -49.1788 305.417C-50.7946 309.896 -52.3919 314.391 -53.9706 318.886C-77.4653 385.459 -103.969 451.093 -151.516 498.125C-168.696 515.117 -186.229 532.645 -212.138 541.736C-242.932 552.605 -279.038 550.407 -311.169 545.292C-333.085 541.82 -354.184 537.157 -375.598 534.423C-385.665 533.148 -395.787 532.309 -406.114 532.175C-471.806 531.319 -539.468 561.377 -587.293 606.145C-635.174 650.963 -665.411 708.764 -681.941 769.114" stroke="url(#paint42_linear_2_53)" stroke-width="0.8669" stroke-miterlimit="10"/>
<path opacity="0.54" d="M324.733 -41.1359C349.157 -12.6382 337.976 30.9555 310.265 56.4006C307.795 58.6817 305.213 60.8287 302.539 62.8582C275.274 83.6403 239.316 92.7985 203.991 98.7698C197.193 99.9104 190.339 100.967 183.505 101.99C151.373 106.787 118.741 111.266 88.8196 123.242C79.1431 127.117 69.9867 131.662 61.3317 136.912C2.75257 172.455 -29.1557 237.216 -50.8304 298.959C-52.4091 303.437 -53.9506 307.949 -55.4922 312.461C-78.2998 379.118 -103.726 444.802 -149.248 492.958C-166.168 510.855 -183.404 529.507 -209.759 539.151C-241.11 550.675 -278.219 548.092 -310.963 542.238C-333.288 538.262 -354.74 532.945 -376.563 529.624C-386.815 528.064 -397.16 526.974 -407.728 526.622C-474.925 524.374 -544.685 554.952 -593.476 600.894C-642.323 646.886 -672.616 706.364 -689.164 768.207" stroke="url(#paint43_linear_2_53)" stroke-width="0.8669" stroke-miterlimit="10"/>
<path opacity="0.54" d="M320.293 -50.1083C344.716 -21.6609 333.87 21.8321 306.512 47.5287C304.06 49.8267 301.515 52.0072 298.86 54.0703C271.873 75.1039 236.12 84.6479 200.906 90.9882C194.127 92.2126 187.31 93.3197 180.494 94.4099C148.474 99.5258 115.935 104.273 86.1064 116.383C76.467 120.291 67.3291 124.887 58.7113 130.154C0.262185 165.898 -31.3675 230.642 -52.485 292.502C-54.0266 296.997 -55.531 301.509 -57.0168 306.021C-79.1372 372.779 -103.431 438.563 -146.984 487.793C-163.644 506.613 -180.601 526.355 -207.402 536.553C-239.31 548.747 -277.422 545.761 -310.798 539.169C-333.549 534.691 -355.354 528.703 -377.586 524.812C-388.043 522.983 -398.592 521.625 -409.383 521.054C-478.084 517.398 -549.943 548.495 -599.7 595.628C-649.513 642.811 -679.861 703.95 -696.409 767.286" stroke="url(#paint44_linear_2_53)" stroke-width="0.8669" stroke-miterlimit="10"/>
<path opacity="0.54" d="M315.853 -59.0658C340.295 -30.6519 329.783 12.7237 302.741 38.6719C300.326 40.9867 297.8 43.1839 295.182 45.2806C268.455 66.549 232.925 76.4788 197.822 83.1881C191.062 84.4797 184.283 85.6706 177.485 86.8111C145.576 92.2457 113.111 97.2776 83.3942 109.505C73.792 113.447 64.6913 118.077 56.092 123.377C-2.20849 159.322 -33.5782 224.067 -54.1385 286.027C-55.6243 290.522 -57.0916 295.051 -58.5403 299.563C-79.9735 366.404 -103.097 432.323 -144.737 482.593C-161.1 502.352 -177.797 523.184 -205.062 533.936C-237.528 546.801 -276.642 543.413 -310.631 536.066C-333.791 531.067 -355.949 524.442 -378.589 519.964C-389.232 517.867 -399.985 516.257 -411.018 515.452C-481.224 510.403 -555.181 542.02 -605.904 590.327C-656.682 638.685 -687.086 701.5 -703.653 766.329" stroke="url(#paint45_linear_2_53)" stroke-width="0.8669" stroke-miterlimit="10"/>
<path opacity="0.54" d="M311.434 -68.0224C335.876 -39.6588 325.717 3.61612 299.009 29.7992C296.631 32.1306 294.124 34.3615 291.542 36.4749C265.094 57.995 229.769 68.3105 194.777 75.3888C188.054 76.7475 181.275 78.0055 174.496 79.2299C142.68 84.9664 110.307 90.2835 80.7022 102.645C71.1371 106.637 62.0549 111.284 53.4742 116.601C-4.69626 152.747 -35.7874 217.475 -55.809 279.553C-57.2577 284.065 -58.6878 288.594 -60.0808 293.106C-80.8268 360.031 -102.743 426.134 -142.489 477.41C-158.555 498.125 -174.992 520.014 -202.702 531.319C-235.725 544.839 -275.824 541.065 -310.444 532.98C-334.032 527.478 -356.524 520.199 -379.591 515.133C-390.419 512.751 -401.396 510.89 -412.67 509.866C-484.38 503.425 -560.436 535.546 -612.125 585.044C-663.869 634.592 -694.329 699.069 -710.914 765.39" stroke="url(#paint46_linear_2_53)" stroke-width="0.8669" stroke-miterlimit="10"/>
<path opacity="0.54" d="M306.996 -76.9796C331.456 -48.6496 321.612 -5.492 295.257 20.9426C292.899 23.3077 290.428 25.5553 287.865 27.6855C261.678 49.4572 226.575 60.1417 191.713 67.6058C185.008 69.0316 178.266 70.3566 171.506 71.6481C139.802 77.7033 107.522 83.2888 78.0096 95.7849C68.4817 99.8105 59.4367 104.49 50.8745 109.841C-7.16595 146.205 -37.9785 210.916 -57.443 273.095C-58.8545 277.607 -60.2289 282.136 -61.5847 286.681C-81.6435 353.69 -102.278 420.012 -140.204 472.244C-155.935 493.915 -172.15 516.877 -200.325 528.736C-233.905 542.926 -275.007 538.75 -310.239 529.927C-334.236 523.922 -357.08 515.988 -380.557 510.336C-391.589 507.686 -402.751 505.555 -414.267 504.314C-487.481 496.464 -565.636 529.122 -618.29 579.794C-671 630.516 -701.516 696.67 -718.12 764.484" stroke="url(#paint47_linear_2_53)" stroke-width="0.8669" stroke-miterlimit="10"/>
<path opacity="0.54" d="M302.557 -85.9536C327.017 -57.6739 317.526 -14.6002 291.487 12.0693C289.165 14.4511 286.732 16.7155 284.188 18.8792C258.279 40.9025 223.38 51.956 188.63 59.7891C181.944 61.2987 175.22 62.6908 168.497 64.0495C136.904 70.4233 104.699 76.2939 75.2979 88.9074C65.8071 92.9833 56.7807 97.6798 48.2557 103.064C-9.6548 139.63 -40.1887 204.324 -59.096 266.62C-60.4704 271.149 -61.8077 275.678 -63.1078 280.223C-82.4794 347.316 -101.814 413.856 -137.938 467.06C-153.317 489.704 -169.345 513.707 -197.966 526.119C-232.103 540.98 -274.208 536.401 -310.072 526.84C-334.496 520.332 -357.675 511.727 -381.56 505.505C-392.778 502.569 -404.163 500.187 -415.901 498.728C-490.62 489.486 -570.874 522.647 -624.494 574.51C-678.17 626.423 -708.741 694.237 -725.364 763.544" stroke="url(#paint48_linear_2_53)" stroke-width="0.8669" stroke-miterlimit="10"/>
<path opacity="0.54" d="M298.117 -94.9104C322.578 -66.6643 313.44 -23.708 287.735 3.19628C285.432 5.59485 283.036 7.89285 280.51 10.0734C254.88 32.3315 220.185 43.7875 185.547 51.9897C178.879 53.5663 172.193 55.0256 165.488 56.4513C134.007 63.1439 101.876 69.2829 72.586 82.0305C63.1324 86.14 54.1246 90.87 45.6181 96.2878C-12.1623 133.055 -42.4177 197.732 -60.7677 260.146C-62.105 264.674 -63.3865 269.22 -64.6495 273.766C-83.3339 340.942 -101.294 407.717 -135.691 461.861C-150.698 485.494 -166.541 510.537 -195.607 523.486C-230.302 539.001 -273.409 534.036 -309.887 523.721C-334.719 516.709 -358.251 507.45 -382.563 500.641C-393.985 497.437 -405.575 494.787 -417.554 493.109C-493.778 482.458 -576.13 516.156 -630.716 569.193C-685.358 622.28 -715.984 691.772 -732.607 762.572" stroke="url(#paint49_linear_2_53)" stroke-width="0.8669" stroke-miterlimit="10"/>
<path opacity="0.54" d="M293.698 -103.868C318.177 -75.6719 309.355 -32.8162 283.984 -5.6603C281.718 -3.22818 279.341 -0.913546 276.852 1.28375C251.482 23.7934 217.01 35.6186 182.483 44.1897C175.852 45.8335 169.166 47.3766 162.498 48.8527C131.129 55.8639 99.0904 62.2713 69.8752 75.1532C60.4587 79.2962 51.4879 84.0766 43.0001 89.5111C-14.6318 126.496 -44.6271 191.157 -62.42 253.671C-63.7201 258.216 -64.9645 262.762 -66.1717 267.308C-84.1689 334.568 -100.736 401.611 -133.424 456.677C-148.041 481.301 -163.717 507.366 -193.248 520.885C-228.499 537.072 -272.61 531.721 -309.7 520.651C-334.96 513.119 -358.844 503.223 -383.546 495.809C-395.154 492.337 -406.948 489.419 -419.169 487.523C-496.916 475.48 -581.348 509.681 -636.9 563.926C-692.508 618.187 -723.19 689.356 -739.831 761.649" stroke="url(#paint50_linear_2_53)" stroke-width="0.8669" stroke-miterlimit="10"/>
<path opacity="0.54" d="M289.257 -112.824C313.736 -84.6619 305.267 -41.9237 280.231 -14.5162C278.002 -12.0673 275.643 -9.73587 273.191 -7.50503C248.099 15.2563 213.832 27.4672 179.417 36.4074C172.805 38.1182 166.156 39.7285 159.488 41.2884C128.23 48.6015 96.2655 55.3108 67.1617 68.3269C57.7823 72.5202 48.8302 77.3173 40.3795 82.7686C-17.1224 119.955 -46.8206 184.599 -64.0934 247.23C-65.3378 251.776 -66.5636 256.338 -67.7337 260.901C-85.0437 328.245 -100.162 395.539 -131.198 451.528C-145.387 477.141 -160.933 504.247 -190.928 518.303C-226.737 535.16 -271.85 529.407 -309.554 517.598C-335.24 509.564 -359.459 499.014 -384.57 491.013C-396.382 487.256 -408.38 484.085 -420.843 481.972C-500.093 468.537 -586.625 503.257 -643.142 558.676C-699.716 614.128 -730.472 686.958 -747.114 760.743" stroke="url(#paint51_linear_2_53)" stroke-width="0.8669" stroke-miterlimit="10"/>
<path opacity="0.54" d="M284.815 -121.797C309.313 -93.685 301.178 -51.0473 276.476 -23.3882C274.266 -20.9226 271.944 -18.5576 269.511 -16.31C244.679 6.68615 210.635 19.2829 176.349 28.6088C169.756 30.4036 163.125 32.0641 156.495 33.6911C125.348 41.323 93.458 48.3006 64.4656 61.4508C55.1234 65.6777 46.2084 70.5084 37.7763 75.9933C-19.5956 113.381 -49.0151 178.025 -65.7308 240.757C-66.938 245.319 -68.1081 249.882 -69.241 254.444C-85.8453 321.872 -99.4964 389.418 -128.916 446.33C-142.679 472.932 -158.113 501.061 -188.535 515.687C-224.901 533.198 -271.018 527.06 -309.352 514.496C-335.447 505.959 -360.019 494.754 -385.557 486.166C-397.555 482.141 -409.776 478.702 -422.462 476.371C-503.217 461.526 -591.847 496.767 -649.33 553.377C-706.869 610.003 -737.682 684.527 -754.342 759.788" stroke="url(#paint52_linear_2_53)" stroke-width="0.8669" stroke-miterlimit="10"/>
<path opacity="0.54" d="M280.379 -130.754C304.877 -102.676 297.076 -60.1389 272.709 -32.2618C270.536 -29.7793 268.233 -27.3807 265.837 -25.1163C241.283 -1.86861 207.443 11.1139 173.269 20.792C166.694 22.6539 160.101 24.3983 153.489 26.0924C122.435 34.043 90.6566 41.289 61.7571 54.5734C52.4521 58.8506 43.5557 63.6981 35.1421 69.2165C-22.0997 106.822 -51.2407 171.433 -67.3992 234.282C-68.5693 238.844 -69.7022 243.423 -70.7795 247.986C-86.6965 315.515 -98.8246 383.312 -126.665 441.146C-139.964 468.755 -155.305 497.907 -186.192 513.07C-223.115 531.252 -270.234 524.711 -309.182 511.41C-335.704 502.369 -360.61 490.493 -386.557 481.335C-398.741 477.041 -411.166 473.334 -424.093 470.785C-506.352 454.548 -597.063 490.309 -655.53 548.093C-714.035 605.91 -744.903 682.094 -761.582 758.849" stroke="url(#paint53_linear_2_53)" stroke-width="0.8669" stroke-miterlimit="10"/>
<path opacity="0.54" d="M275.959 -139.712C300.475 -111.683 293.009 -69.2471 268.975 -41.1184C266.821 -38.6024 264.555 -36.2038 262.196 -33.9059C237.921 -10.4066 204.286 2.94498 170.223 13.0089C163.685 14.9378 157.092 16.7493 150.517 18.5105C119.575 26.7797 87.8705 34.2942 59.0825 47.7128C49.8146 52.0235 40.9367 56.9045 32.5603 62.4564C-24.5516 100.263 -53.4139 164.874 -69.0152 227.824C-70.1482 232.403 -71.2254 236.982 -72.2655 241.544C-87.4953 309.157 -98.0448 377.206 -124.363 435.963C-137.178 464.562 -152.445 494.737 -183.796 510.47C-221.295 529.323 -269.399 522.379 -308.959 508.34C-335.89 498.779 -361.149 486.266 -387.523 476.521C-399.911 471.942 -412.541 467.983 -425.709 465.216C-509.473 447.587 -602.282 483.851 -661.715 542.826C-721.186 601.817 -752.11 679.678 -768.788 757.926" stroke="url(#paint54_linear_2_53)" stroke-width="0.8669" stroke-miterlimit="10"/>
<path opacity="0.54" d="M271.519 -148.668C296.035 -120.674 288.922 -78.3547 265.204 -49.9744C263.087 -47.4416 260.858 -45.0095 258.499 -42.6947C234.485 -18.9438 201.072 -5.20654 167.12 5.20965C160.601 7.20567 154.045 9.10109 147.489 10.9126C116.658 19.4837 85.028 27.3 56.3513 40.836C47.1206 45.1971 38.2798 50.0949 29.922 55.6804C-27.0413 93.6885 -55.6436 158.282 -70.6877 221.35C-71.7835 225.929 -72.8236 230.525 -73.808 235.104C-88.3506 302.801 -97.3213 371.085 -122.116 430.797C-134.412 460.402 -149.641 491.6 -181.438 507.87C-219.494 527.378 -268.601 520.048 -308.793 505.271C-336.151 495.207 -361.744 482.04 -388.527 471.707C-401.101 466.86 -413.934 462.65 -427.344 459.647C-512.613 440.61 -607.521 477.41 -667.92 537.559C-728.338 597.741 -759.336 677.263 -776.033 757.003" stroke="url(#paint55_linear_2_53)" stroke-width="0.8669" stroke-miterlimit="10"/>
<path opacity="0.54" d="M267.081 -157.642C291.615 -129.698 284.818 -87.4799 261.453 -58.8647C259.373 -56.3152 257.163 -53.8495 254.841 -51.518C231.105 -27.5323 197.896 -13.4091 164.075 -2.60715C157.574 -0.544036 151.037 1.41838 144.499 3.31376C113.779 12.2036 82.2425 20.2883 53.6587 33.9585C44.4651 38.3531 35.6429 43.2844 27.3037 48.9034C-29.5296 87.1297 -57.8533 151.69 -72.3402 214.875C-73.3989 219.471 -74.3832 224.067 -75.3304 228.646C-89.1859 296.426 -96.5222 364.945 -119.868 425.597C-131.644 456.192 -146.855 488.43 -179.098 505.253C-217.711 525.432 -267.821 517.699 -308.625 502.167C-336.392 491.6 -362.338 477.779 -389.529 466.859C-402.307 461.727 -415.346 457.265 -428.997 454.045C-515.77 433.615 -612.776 470.918 -674.141 532.258C-735.525 593.615 -766.579 674.814 -783.294 756.047" stroke="url(#paint56_linear_2_53)" stroke-width="0.8669" stroke-miterlimit="10"/>
<path opacity="0.54" d="M262.644 -166.599C287.179 -138.688 280.734 -96.5872 257.685 -67.7204C255.623 -65.1373 253.45 -62.6717 251.147 -60.2899C227.671 -36.0525 194.686 -21.5437 160.976 -10.3727C154.512 -8.2257 147.993 -6.21297 141.474 -4.2505C110.866 4.95801 79.4033 13.3111 50.9123 27.1155C41.7559 31.5436 32.9709 36.5253 24.6502 42.1443C-32.0531 80.5718 -60.0982 145.132 -74.0465 208.418C-75.068 213.013 -76.0152 217.609 -76.9067 222.205C-90.075 290.07 -95.7583 358.806 -117.656 420.431C-128.874 452.032 -144.085 485.277 -176.792 502.654C-215.962 523.503 -267.075 515.368 -308.493 499.098C-336.687 488.028 -362.986 473.536 -390.585 462.046C-403.549 456.645 -416.81 451.915 -430.684 448.476C-518.962 426.637 -618.067 464.478 -680.416 527.009C-742.766 589.539 -773.876 672.416 -790.61 755.142" stroke="url(#paint57_linear_2_53)" stroke-width="0.8669" stroke-miterlimit="10"/>
<path opacity="0.54" d="M258.221 -175.555C282.774 -147.695 276.645 -105.678 253.949 -76.5763C251.924 -73.9765 249.77 -71.4772 247.504 -69.0786C224.306 -44.5897 191.525 -29.7118 157.927 -18.1718C151.482 -15.9578 144.981 -13.8611 138.499 -11.8483C108.003 -2.32109 76.6142 6.31714 48.2347 20.2389C39.1154 24.7174 30.349 29.7158 22.0655 35.3684C-34.5078 73.9972 -62.2744 138.541 -75.6655 201.944C-76.6313 206.556 -77.5413 211.152 -78.3957 215.765C-90.8767 283.713 -94.8885 352.651 -115.356 415.249C-126.017 447.839 -141.228 482.124 -174.381 500.054C-214.108 521.558 -266.224 513.037 -308.255 496.029C-336.857 484.455 -363.509 469.309 -391.517 457.232C-404.667 451.563 -418.132 446.565 -432.248 442.908C-522.029 419.677 -623.233 458.037 -686.549 521.742C-749.864 585.464 -781.029 670.001 -797.782 754.219" stroke="url(#paint58_linear_2_53)" stroke-width="0.8669" stroke-miterlimit="10"/>
<path opacity="0.54" d="M253.783 -184.513C278.337 -156.686 272.561 -114.786 250.199 -85.4329C248.193 -82.8163 246.076 -80.2836 243.847 -77.8683C220.909 -53.1445 188.351 -37.8808 154.864 -25.9551C148.438 -23.6739 141.974 -21.5101 135.511 -19.4134C105.126 -9.56755 73.8301 -0.660961 45.5435 13.395C36.4613 17.907 27.7134 22.939 19.4485 28.6252C-36.9947 67.4552 -64.4641 131.999 -77.3166 195.502C-78.2453 200.115 -79.1182 204.727 -79.9168 209.34C-91.7106 277.372 -94.0137 346.495 -113.088 410.099C-123.155 443.679 -138.422 478.987 -172.02 497.471C-212.305 519.645 -265.423 510.739 -308.086 492.959C-337.115 480.865 -364.102 465.082 -392.537 452.418C-405.891 446.464 -419.56 441.214 -433.917 437.339C-525.203 412.716 -628.506 451.579 -692.787 516.475C-757.068 581.371 -788.289 667.585 -805.061 753.297" stroke="url(#paint59_linear_2_53)" stroke-width="0.8669" stroke-miterlimit="10"/>
<path opacity="0.54" d="M249.343 -193.487C273.915 -165.71 268.473 -123.911 246.427 -94.3234C244.458 -91.69 242.359 -89.1404 240.149 -86.6915C217.49 -61.7161 185.136 -46.0667 151.76 -33.7887C145.353 -31.4405 138.908 -29.1928 132.482 -27.0458C102.189 -16.898 70.9867 -7.70629 42.8115 6.48388C33.7665 11.0462 25.0558 16.095 16.8094 21.8147C-39.4852 60.8628 -66.6946 125.373 -78.9899 188.994C-79.8814 193.623 -80.6986 198.236 -81.4601 202.848C-92.5667 270.964 -93.1425 340.255 -110.843 404.865C-120.315 439.435 -135.619 475.783 -169.682 494.82C-210.524 517.665 -264.645 508.356 -307.92 489.839C-337.377 477.242 -364.698 460.804 -393.541 447.553C-407.081 441.33 -420.974 435.812 -435.553 431.719C-528.344 405.687 -633.745 445.088 -698.992 511.157C-764.239 577.244 -795.516 665.119 -812.287 752.323" stroke="url(#paint60_linear_2_53)" stroke-width="0.8669" stroke-miterlimit="10"/>
<path opacity="0.54" d="M244.92 -202.443C269.492 -174.7 264.385 -133.019 242.692 -103.179C240.76 -100.512 238.68 -97.946 236.507 -95.4803C214.126 -70.2534 181.977 -54.2349 148.731 -41.5711C142.36 -39.139 135.934 -36.841 129.508 -34.6101C99.3269 -24.1436 68.1987 -14.6668 40.1349 -0.359193C31.127 4.23668 22.4349 9.31899 14.2257 15.0722C-41.9389 54.3216 -68.8697 118.832 -80.6078 182.553C-81.4622 187.183 -82.2422 191.812 -82.948 196.425C-93.3674 264.625 -92.1973 334.066 -108.542 399.716C-117.382 435.259 -132.761 472.646 -167.269 492.238C-208.668 515.737 -263.793 506.042 -307.681 486.786C-337.546 473.686 -365.22 456.594 -394.472 442.74C-408.216 436.248 -422.294 430.462 -437.116 426.151C-531.411 398.727 -638.911 438.63 -705.123 505.891C-771.336 573.152 -802.669 662.704 -819.458 751.401" stroke="url(#paint61_linear_2_53)" stroke-width="0.8669" stroke-miterlimit="10"/>
<path opacity="0.54" d="M240.486 -211.401C265.058 -183.708 260.303 -142.127 238.926 -112.036C237.013 -109.352 234.988 -106.752 232.815 -104.27C210.695 -78.7914 178.768 -62.3871 145.634 -49.371C139.282 -46.8718 132.874 -44.5069 126.485 -42.2089C96.4153 -31.4237 65.3799 -21.6784 37.409 -7.23664C28.4197 -2.60723 19.7833 2.50861 11.5741 8.27861C-44.4605 47.7293 -71.1127 112.222 -82.3122 176.061C-83.1294 180.708 -83.8538 185.337 -84.5224 189.966C-94.2546 258.267 -91.3387 327.826 -106.327 394.516C-114.536 431.032 -129.989 469.476 -164.962 489.62C-206.918 513.791 -263.046 503.693 -307.546 483.7C-337.839 470.096 -365.847 452.334 -395.527 437.909C-409.456 431.132 -423.757 425.094 -438.82 420.565C-534.619 391.749 -644.218 432.172 -711.397 500.607C-778.575 569.059 -809.982 660.271 -826.772 750.461" stroke="url(#paint62_linear_2_53)" stroke-width="0.8669" stroke-miterlimit="10"/>
<path opacity="0.54" d="M236.045 -220.356C262.827 -190.231 255.194 -143.719 229.155 -113.057C203.115 -82.4127 163.072 -64.4485 123.493 -49.7887C83.9142 -35.1289 42.5893 -22.3309 8.95372 1.52064C-50.9998 44.0576 -77.0019 115.159 -86.0284 183.527C-95.0734 251.912 -90.3745 321.588 -104.044 389.335C-111.603 426.823 -127.167 466.307 -162.586 487.006C-205.1 511.847 -262.23 501.347 -307.362 480.598C-352.495 459.85 -392.556 429.842 -440.437 414.965C-537.741 384.739 -649.439 425.683 -717.583 495.308C-785.727 564.934 -817.19 657.824 -833.998 749.507" stroke="url(#paint63_linear_2_53)" stroke-width="0.8669" stroke-miterlimit="10"/>
</g>
<defs>
<linearGradient id="paint0_linear_2_53" x1="2378.92" y1="-229.778" x2="1274.78" y2="855.001" gradientUnits="userSpaceOnUse">
<stop stop-color="#7ED4EF"/>
<stop offset="0.2294" stop-color="#66BFE6"/>
<stop offset="0.711" stop-color="#298BD0"/>
<stop offset="1" stop-color="#0169C2"/>
</linearGradient>
<linearGradient id="paint1_linear_2_53" x1="2391.29" y1="-225.444" x2="1280.18" y2="866.192" gradientUnits="userSpaceOnUse">
<stop stop-color="#7ED4EF"/>
<stop offset="0.2294" stop-color="#66BFE6"/>
<stop offset="0.711" stop-color="#298BD0"/>
<stop offset="1" stop-color="#0169C2"/>
</linearGradient>
<linearGradient id="paint2_linear_2_53" x1="2403.66" y1="-221.112" x2="1285.57" y2="877.381" gradientUnits="userSpaceOnUse">
<stop stop-color="#7ED4EF"/>
<stop offset="0.2294" stop-color="#66BFE6"/>
<stop offset="0.711" stop-color="#298BD0"/>
<stop offset="1" stop-color="#0169C2"/>
</linearGradient>
<linearGradient id="paint3_linear_2_53" x1="2415.06" y1="-217.768" x2="1289.99" y2="887.58" gradientUnits="userSpaceOnUse">
<stop stop-color="#7ED4EF"/>
<stop offset="0.2294" stop-color="#66BFE6"/>
<stop offset="0.711" stop-color="#298BD0"/>
<stop offset="1" stop-color="#0169C2"/>
</linearGradient>
<linearGradient id="paint4_linear_2_53" x1="2424.79" y1="-216.118" x2="1292.74" y2="896.087" gradientUnits="userSpaceOnUse">
<stop stop-color="#7ED4EF"/>
<stop offset="0.2294" stop-color="#66BFE6"/>
<stop offset="0.711" stop-color="#298BD0"/>
<stop offset="1" stop-color="#0169C2"/>
</linearGradient>
<linearGradient id="paint5_linear_2_53" x1="2434.43" y1="-214.572" x2="1295.4" y2="904.488" gradientUnits="userSpaceOnUse">
<stop stop-color="#7ED4EF"/>
<stop offset="0.2294" stop-color="#66BFE6"/>
<stop offset="0.711" stop-color="#298BD0"/>
<stop offset="1" stop-color="#0169C2"/>
</linearGradient>
<linearGradient id="paint6_linear_2_53" x1="2443.95" y1="-213.129" x2="1297.95" y2="912.786" gradientUnits="userSpaceOnUse">
<stop stop-color="#7ED4EF"/>
<stop offset="0.2294" stop-color="#66BFE6"/>
<stop offset="0.711" stop-color="#298BD0"/>
<stop offset="1" stop-color="#0169C2"/>
</linearGradient>
<linearGradient id="paint7_linear_2_53" x1="2453.37" y1="-211.801" x2="1300.39" y2="920.969" gradientUnits="userSpaceOnUse">
<stop stop-color="#7ED4EF"/>
<stop offset="0.2294" stop-color="#66BFE6"/>
<stop offset="0.711" stop-color="#298BD0"/>
<stop offset="1" stop-color="#0169C2"/>
</linearGradient>
<linearGradient id="paint8_linear_2_53" x1="2462.54" y1="-210.725" x2="1302.58" y2="928.9" gradientUnits="userSpaceOnUse">
<stop stop-color="#7ED4EF"/>
<stop offset="0.2294" stop-color="#66BFE6"/>
<stop offset="0.711" stop-color="#298BD0"/>
<stop offset="1" stop-color="#0169C2"/>
</linearGradient>
<linearGradient id="paint9_linear_2_53" x1="2471.5" y1="-209.85" x2="1304.57" y2="936.63" gradientUnits="userSpaceOnUse">
<stop stop-color="#7ED4EF"/>
<stop offset="0.2294" stop-color="#66BFE6"/>
<stop offset="0.711" stop-color="#298BD0"/>
<stop offset="1" stop-color="#0169C2"/>
</linearGradient>
<linearGradient id="paint10_linear_2_53" x1="2480.35" y1="-209.097" x2="1306.44" y2="944.237" gradientUnits="userSpaceOnUse">
<stop stop-color="#7ED4EF"/>
<stop offset="0.2294" stop-color="#66BFE6"/>
<stop offset="0.711" stop-color="#298BD0"/>
<stop offset="1" stop-color="#0169C2"/>
</linearGradient>
<linearGradient id="paint11_linear_2_53" x1="2489.12" y1="-208.43" x2="1308.23" y2="951.758" gradientUnits="userSpaceOnUse">
<stop stop-color="#7ED4EF"/>
<stop offset="0.2294" stop-color="#66BFE6"/>
<stop offset="0.711" stop-color="#298BD0"/>
<stop offset="1" stop-color="#0169C2"/>
</linearGradient>
<linearGradient id="paint12_linear_2_53" x1="2497.82" y1="-207.827" x2="1309.96" y2="959.215" gradientUnits="userSpaceOnUse">
<stop stop-color="#7ED4EF"/>
<stop offset="0.2294" stop-color="#66BFE6"/>
<stop offset="0.711" stop-color="#298BD0"/>
<stop offset="1" stop-color="#0169C2"/>
</linearGradient>
<linearGradient id="paint13_linear_2_53" x1="2506.48" y1="-207.267" x2="1311.64" y2="966.629" gradientUnits="userSpaceOnUse">
<stop stop-color="#7ED4EF"/>
<stop offset="0.2294" stop-color="#66BFE6"/>
<stop offset="0.711" stop-color="#298BD0"/>
<stop offset="1" stop-color="#0169C2"/>
</linearGradient>
<linearGradient id="paint14_linear_2_53" x1="2515.1" y1="-206.746" x2="1313.29" y2="974.004" gradientUnits="userSpaceOnUse">
<stop stop-color="#7ED4EF"/>
<stop offset="0.2294" stop-color="#66BFE6"/>
<stop offset="0.711" stop-color="#298BD0"/>
<stop offset="1" stop-color="#0169C2"/>
</linearGradient>
<linearGradient id="paint15_linear_2_53" x1="2523.7" y1="-206.25" x2="1314.9" y2="981.354" gradientUnits="userSpaceOnUse">
<stop stop-color="#7ED4EF"/>
<stop offset="0.2294" stop-color="#66BFE6"/>
<stop offset="0.711" stop-color="#298BD0"/>
<stop offset="1" stop-color="#0169C2"/>
</linearGradient>
<linearGradient id="paint16_linear_2_53" x1="2532.27" y1="-205.779" x2="1316.5" y2="988.679" gradientUnits="userSpaceOnUse">
<stop stop-color="#7ED4EF"/>
<stop offset="0.2294" stop-color="#66BFE6"/>
<stop offset="0.711" stop-color="#298BD0"/>
<stop offset="1" stop-color="#0169C2"/>
</linearGradient>
<linearGradient id="paint17_linear_2_53" x1="2540.82" y1="-205.325" x2="1318.08" y2="995.986" gradientUnits="userSpaceOnUse">
<stop stop-color="#7ED4EF"/>
<stop offset="0.2294" stop-color="#66BFE6"/>
<stop offset="0.711" stop-color="#298BD0"/>
<stop offset="1" stop-color="#0169C2"/>
</linearGradient>
<linearGradient id="paint18_linear_2_53" x1="2549.36" y1="-204.885" x2="1319.64" y2="1003.28" gradientUnits="userSpaceOnUse">
<stop stop-color="#7ED4EF"/>
<stop offset="0.2294" stop-color="#66BFE6"/>
<stop offset="0.711" stop-color="#298BD0"/>
<stop offset="1" stop-color="#0169C2"/>
</linearGradient>
<linearGradient id="paint19_linear_2_53" x1="2557.89" y1="-204.46" x2="1321.19" y2="1010.56" gradientUnits="userSpaceOnUse">
<stop stop-color="#7ED4EF"/>
<stop offset="0.2294" stop-color="#66BFE6"/>
<stop offset="0.711" stop-color="#298BD0"/>
<stop offset="1" stop-color="#0169C2"/>
</linearGradient>
<linearGradient id="paint20_linear_2_53" x1="2566.41" y1="-204.045" x2="1322.74" y2="1017.83" gradientUnits="userSpaceOnUse">
<stop stop-color="#7ED4EF"/>
<stop offset="0.2294" stop-color="#66BFE6"/>
<stop offset="0.711" stop-color="#298BD0"/>
<stop offset="1" stop-color="#0169C2"/>
</linearGradient>
<linearGradient id="paint21_linear_2_53" x1="2574.91" y1="-203.638" x2="1324.27" y2="1025.09" gradientUnits="userSpaceOnUse">
<stop stop-color="#7ED4EF"/>
<stop offset="0.2294" stop-color="#66BFE6"/>
<stop offset="0.711" stop-color="#298BD0"/>
<stop offset="1" stop-color="#0169C2"/>
</linearGradient>
<linearGradient id="paint22_linear_2_53" x1="2583.41" y1="-203.238" x2="1325.79" y2="1032.34" gradientUnits="userSpaceOnUse">
<stop stop-color="#7ED4EF"/>
<stop offset="0.2294" stop-color="#66BFE6"/>
<stop offset="0.711" stop-color="#298BD0"/>
<stop offset="1" stop-color="#0169C2"/>
</linearGradient>
<linearGradient id="paint23_linear_2_53" x1="2591.91" y1="-202.845" x2="1327.31" y2="1039.59" gradientUnits="userSpaceOnUse">
<stop stop-color="#7ED4EF"/>
<stop offset="0.2294" stop-color="#66BFE6"/>
<stop offset="0.711" stop-color="#298BD0"/>
<stop offset="1" stop-color="#0169C2"/>
</linearGradient>
<linearGradient id="paint24_linear_2_53" x1="2600.39" y1="-202.459" x2="1328.82" y2="1046.82" gradientUnits="userSpaceOnUse">
<stop stop-color="#7ED4EF"/>
<stop offset="0.2294" stop-color="#66BFE6"/>
<stop offset="0.711" stop-color="#298BD0"/>
<stop offset="1" stop-color="#0169C2"/>
</linearGradient>
<linearGradient id="paint25_linear_2_53" x1="2608.87" y1="-202.076" x2="1330.33" y2="1054.06" gradientUnits="userSpaceOnUse">
<stop stop-color="#7ED4EF"/>
<stop offset="0.2294" stop-color="#66BFE6"/>
<stop offset="0.711" stop-color="#298BD0"/>
<stop offset="1" stop-color="#0169C2"/>
</linearGradient>
<linearGradient id="paint26_linear_2_53" x1="2617.35" y1="-201.699" x2="1331.83" y2="1061.29" gradientUnits="userSpaceOnUse">
<stop stop-color="#7ED4EF"/>
<stop offset="0.2294" stop-color="#66BFE6"/>
<stop offset="0.711" stop-color="#298BD0"/>
<stop offset="1" stop-color="#0169C2"/>
</linearGradient>
<linearGradient id="paint27_linear_2_53" x1="2625.83" y1="-201.325" x2="1333.33" y2="1068.52" gradientUnits="userSpaceOnUse">
<stop stop-color="#7ED4EF"/>
<stop offset="0.2294" stop-color="#66BFE6"/>
<stop offset="0.711" stop-color="#298BD0"/>
<stop offset="1" stop-color="#0169C2"/>
</linearGradient>
<linearGradient id="paint28_linear_2_53" x1="2634.3" y1="-200.953" x2="1334.83" y2="1075.74" gradientUnits="userSpaceOnUse">
<stop stop-color="#7ED4EF"/>
<stop offset="0.2294" stop-color="#66BFE6"/>
<stop offset="0.711" stop-color="#298BD0"/>
<stop offset="1" stop-color="#0169C2"/>
</linearGradient>
<linearGradient id="paint29_linear_2_53" x1="2642.77" y1="-200.587" x2="1336.32" y2="1082.96" gradientUnits="userSpaceOnUse">
<stop stop-color="#7ED4EF"/>
<stop offset="0.2294" stop-color="#66BFE6"/>
<stop offset="0.711" stop-color="#298BD0"/>
<stop offset="1" stop-color="#0169C2"/>
</linearGradient>
<linearGradient id="paint30_linear_2_53" x1="2651.23" y1="-200.223" x2="1337.81" y2="1090.18" gradientUnits="userSpaceOnUse">
<stop stop-color="#7ED4EF"/>
<stop offset="0.2294" stop-color="#66BFE6"/>
<stop offset="0.711" stop-color="#298BD0"/>
<stop offset="1" stop-color="#0169C2"/>
</linearGradient>
<linearGradient id="paint31_linear_2_53" x1="2659.69" y1="-199.863" x2="1339.3" y2="1097.39" gradientUnits="userSpaceOnUse">
<stop stop-color="#7ED4EF"/>
<stop offset="0.2294" stop-color="#66BFE6"/>
<stop offset="0.711" stop-color="#298BD0"/>
<stop offset="1" stop-color="#0169C2"/>
</linearGradient>
<linearGradient id="paint32_linear_2_53" x1="-584.173" y1="804.85" x2="277.328" y2="-41.5502" gradientUnits="userSpaceOnUse">
<stop stop-color="#7ED4EF"/>
<stop offset="0.2294" stop-color="#66BFE6"/>
<stop offset="0.711" stop-color="#298BD0"/>
<stop offset="1" stop-color="#0169C2"/>
</linearGradient>
<linearGradient id="paint33_linear_2_53" x1="-593.826" y1="801.469" x2="273.12" y2="-50.2816" gradientUnits="userSpaceOnUse">
<stop stop-color="#7ED4EF"/>
<stop offset="0.2294" stop-color="#66BFE6"/>
<stop offset="0.711" stop-color="#298BD0"/>
<stop offset="1" stop-color="#0169C2"/>
</linearGradient>
<linearGradient id="paint34_linear_2_53" x1="-603.481" y1="798.088" x2="268.911" y2="-59.0118" gradientUnits="userSpaceOnUse">
<stop stop-color="#7ED4EF"/>
<stop offset="0.2294" stop-color="#66BFE6"/>
<stop offset="0.711" stop-color="#298BD0"/>
<stop offset="1" stop-color="#0169C2"/>
</linearGradient>
<linearGradient id="paint35_linear_2_53" x1="-612.372" y1="795.48" x2="265.464" y2="-66.9697" gradientUnits="userSpaceOnUse">
<stop stop-color="#7ED4EF"/>
<stop offset="0.2294" stop-color="#66BFE6"/>
<stop offset="0.711" stop-color="#298BD0"/>
<stop offset="1" stop-color="#0169C2"/>
</linearGradient>
<linearGradient id="paint36_linear_2_53" x1="-619.965" y1="794.192" x2="263.317" y2="-73.6069" gradientUnits="userSpaceOnUse">
<stop stop-color="#7ED4EF"/>
<stop offset="0.2294" stop-color="#66BFE6"/>
<stop offset="0.711" stop-color="#298BD0"/>
<stop offset="1" stop-color="#0169C2"/>
</linearGradient>
<linearGradient id="paint37_linear_2_53" x1="-627.485" y1="792.985" x2="261.241" y2="-80.1622" gradientUnits="userSpaceOnUse">
<stop stop-color="#7ED4EF"/>
<stop offset="0.2294" stop-color="#66BFE6"/>
<stop offset="0.711" stop-color="#298BD0"/>
<stop offset="1" stop-color="#0169C2"/>
</linearGradient>
<linearGradient id="paint38_linear_2_53" x1="-634.916" y1="791.86" x2="259.254" y2="-86.6366" gradientUnits="userSpaceOnUse">
<stop stop-color="#7ED4EF"/>
<stop offset="0.2294" stop-color="#66BFE6"/>
<stop offset="0.711" stop-color="#298BD0"/>
<stop offset="1" stop-color="#0169C2"/>
</linearGradient>
<linearGradient id="paint39_linear_2_53" x1="-642.263" y1="790.824" x2="257.351" y2="-93.0208" gradientUnits="userSpaceOnUse">
<stop stop-color="#7ED4EF"/>
<stop offset="0.2294" stop-color="#66BFE6"/>
<stop offset="0.711" stop-color="#298BD0"/>
<stop offset="1" stop-color="#0169C2"/>
</linearGradient>
<linearGradient id="paint40_linear_2_53" x1="-649.418" y1="789.983" x2="255.64" y2="-99.2101" gradientUnits="userSpaceOnUse">
<stop stop-color="#7ED4EF"/>
<stop offset="0.2294" stop-color="#66BFE6"/>
<stop offset="0.711" stop-color="#298BD0"/>
<stop offset="1" stop-color="#0169C2"/>
</linearGradient>
<linearGradient id="paint41_linear_2_53" x1="-656.414" y1="789.301" x2="254.087" y2="-105.24" gradientUnits="userSpaceOnUse">
<stop stop-color="#7ED4EF"/>
<stop offset="0.2294" stop-color="#66BFE6"/>
<stop offset="0.711" stop-color="#298BD0"/>
<stop offset="1" stop-color="#0169C2"/>
</linearGradient>
<linearGradient id="paint42_linear_2_53" x1="-663.32" y1="788.714" x2="252.625" y2="-111.176" gradientUnits="userSpaceOnUse">
<stop stop-color="#7ED4EF"/>
<stop offset="0.2294" stop-color="#66BFE6"/>
<stop offset="0.711" stop-color="#298BD0"/>
<stop offset="1" stop-color="#0169C2"/>
</linearGradient>
<linearGradient id="paint43_linear_2_53" x1="-670.157" y1="788.193" x2="251.231" y2="-117.045" gradientUnits="userSpaceOnUse">
<stop stop-color="#7ED4EF"/>
<stop offset="0.2294" stop-color="#66BFE6"/>
<stop offset="0.711" stop-color="#298BD0"/>
<stop offset="1" stop-color="#0169C2"/>
</linearGradient>
<linearGradient id="paint44_linear_2_53" x1="-676.95" y1="787.722" x2="249.882" y2="-122.863" gradientUnits="userSpaceOnUse">
<stop stop-color="#7ED4EF"/>
<stop offset="0.2294" stop-color="#66BFE6"/>
<stop offset="0.711" stop-color="#298BD0"/>
<stop offset="1" stop-color="#0169C2"/>
</linearGradient>
<linearGradient id="paint45_linear_2_53" x1="-683.705" y1="787.286" x2="248.57" y2="-128.647" gradientUnits="userSpaceOnUse">
<stop stop-color="#7ED4EF"/>
<stop offset="0.2294" stop-color="#66BFE6"/>
<stop offset="0.711" stop-color="#298BD0"/>
<stop offset="1" stop-color="#0169C2"/>
</linearGradient>
<linearGradient id="paint46_linear_2_53" x1="-690.432" y1="786.879" x2="247.287" y2="-134.402" gradientUnits="userSpaceOnUse">
<stop stop-color="#7ED4EF"/>
<stop offset="0.2294" stop-color="#66BFE6"/>
<stop offset="0.711" stop-color="#298BD0"/>
<stop offset="1" stop-color="#0169C2"/>
</linearGradient>
<linearGradient id="paint47_linear_2_53" x1="-697.137" y1="786.493" x2="246.024" y2="-140.136" gradientUnits="userSpaceOnUse">
<stop stop-color="#7ED4EF"/>
<stop offset="0.2294" stop-color="#66BFE6"/>
<stop offset="0.711" stop-color="#298BD0"/>
<stop offset="1" stop-color="#0169C2"/>
</linearGradient>
<linearGradient id="paint48_linear_2_53" x1="-703.826" y1="786.124" x2="244.778" y2="-145.852" gradientUnits="userSpaceOnUse">
<stop stop-color="#7ED4EF"/>
<stop offset="0.2294" stop-color="#66BFE6"/>
<stop offset="0.711" stop-color="#298BD0"/>
<stop offset="1" stop-color="#0169C2"/>
</linearGradient>
<linearGradient id="paint49_linear_2_53" x1="-710.5" y1="785.77" x2="243.547" y2="-151.554" gradientUnits="userSpaceOnUse">
<stop stop-color="#7ED4EF"/>
<stop offset="0.2294" stop-color="#66BFE6"/>
<stop offset="0.711" stop-color="#298BD0"/>
<stop offset="1" stop-color="#0169C2"/>
</linearGradient>
<linearGradient id="paint50_linear_2_53" x1="-717.163" y1="785.428" x2="242.328" y2="-157.244" gradientUnits="userSpaceOnUse">
<stop stop-color="#7ED4EF"/>
<stop offset="0.2294" stop-color="#66BFE6"/>
<stop offset="0.711" stop-color="#298BD0"/>
<stop offset="1" stop-color="#0169C2"/>
</linearGradient>
<linearGradient id="paint51_linear_2_53" x1="-723.817" y1="785.096" x2="241.116" y2="-162.923" gradientUnits="userSpaceOnUse">
<stop stop-color="#7ED4EF"/>
<stop offset="0.2294" stop-color="#66BFE6"/>
<stop offset="0.711" stop-color="#298BD0"/>
<stop offset="1" stop-color="#0169C2"/>
</linearGradient>
<linearGradient id="paint52_linear_2_53" x1="-730.465" y1="784.772" x2="239.911" y2="-168.594" gradientUnits="userSpaceOnUse">
<stop stop-color="#7ED4EF"/>
<stop offset="0.2294" stop-color="#66BFE6"/>
<stop offset="0.711" stop-color="#298BD0"/>
<stop offset="1" stop-color="#0169C2"/>
</linearGradient>
<linearGradient id="paint53_linear_2_53" x1="-737.1" y1="784.454" x2="238.718" y2="-174.259" gradientUnits="userSpaceOnUse">
<stop stop-color="#7ED4EF"/>
<stop offset="0.2294" stop-color="#66BFE6"/>
<stop offset="0.711" stop-color="#298BD0"/>
<stop offset="1" stop-color="#0169C2"/>
</linearGradient>
<linearGradient id="paint54_linear_2_53" x1="-743.732" y1="784.142" x2="237.529" y2="-179.918" gradientUnits="userSpaceOnUse">
<stop stop-color="#7ED4EF"/>
<stop offset="0.2294" stop-color="#66BFE6"/>
<stop offset="0.711" stop-color="#298BD0"/>
<stop offset="1" stop-color="#0169C2"/>
</linearGradient>
<linearGradient id="paint55_linear_2_53" x1="-750.36" y1="783.836" x2="236.343" y2="-185.571" gradientUnits="userSpaceOnUse">
<stop stop-color="#7ED4EF"/>
<stop offset="0.2294" stop-color="#66BFE6"/>
<stop offset="0.711" stop-color="#298BD0"/>
<stop offset="1" stop-color="#0169C2"/>
</linearGradient>
<linearGradient id="paint56_linear_2_53" x1="-756.981" y1="783.534" x2="235.164" y2="-191.221" gradientUnits="userSpaceOnUse">
<stop stop-color="#7ED4EF"/>
<stop offset="0.2294" stop-color="#66BFE6"/>
<stop offset="0.711" stop-color="#298BD0"/>
<stop offset="1" stop-color="#0169C2"/>
</linearGradient>
<linearGradient id="paint57_linear_2_53" x1="-763.598" y1="783.236" x2="233.99" y2="-196.866" gradientUnits="userSpaceOnUse">
<stop stop-color="#7ED4EF"/>
<stop offset="0.2294" stop-color="#66BFE6"/>
<stop offset="0.711" stop-color="#298BD0"/>
<stop offset="1" stop-color="#0169C2"/>
</linearGradient>
<linearGradient id="paint58_linear_2_53" x1="-770.215" y1="782.941" x2="232.815" y2="-202.507" gradientUnits="userSpaceOnUse">
<stop stop-color="#7ED4EF"/>
<stop offset="0.2294" stop-color="#66BFE6"/>
<stop offset="0.711" stop-color="#298BD0"/>
<stop offset="1" stop-color="#0169C2"/>
</linearGradient>
<linearGradient id="paint59_linear_2_53" x1="-776.825" y1="782.65" x2="231.647" y2="-208.146" gradientUnits="userSpaceOnUse">
<stop stop-color="#7ED4EF"/>
<stop offset="0.2294" stop-color="#66BFE6"/>
<stop offset="0.711" stop-color="#298BD0"/>
<stop offset="1" stop-color="#0169C2"/>
</linearGradient>
<linearGradient id="paint60_linear_2_53" x1="-783.436" y1="782.36" x2="230.479" y2="-213.782" gradientUnits="userSpaceOnUse">
<stop stop-color="#7ED4EF"/>
<stop offset="0.2294" stop-color="#66BFE6"/>
<stop offset="0.711" stop-color="#298BD0"/>
<stop offset="1" stop-color="#0169C2"/>
</linearGradient>
<linearGradient id="paint61_linear_2_53" x1="-790.045" y1="782.074" x2="229.312" y2="-219.415" gradientUnits="userSpaceOnUse">
<stop stop-color="#7ED4EF"/>
<stop offset="0.2294" stop-color="#66BFE6"/>
<stop offset="0.711" stop-color="#298BD0"/>
<stop offset="1" stop-color="#0169C2"/>
</linearGradient>
<linearGradient id="paint62_linear_2_53" x1="-796.645" y1="781.789" x2="228.154" y2="-225.046" gradientUnits="userSpaceOnUse">
<stop stop-color="#7ED4EF"/>
<stop offset="0.2294" stop-color="#66BFE6"/>
<stop offset="0.711" stop-color="#298BD0"/>
<stop offset="1" stop-color="#0169C2"/>
</linearGradient>
<linearGradient id="paint63_linear_2_53" x1="-803.249" y1="781.509" x2="226.992" y2="-230.673" gradientUnits="userSpaceOnUse">
<stop stop-color="#7ED4EF"/>
<stop offset="0.2294" stop-color="#66BFE6"/>
<stop offset="0.711" stop-color="#298BD0"/>
<stop offset="1" stop-color="#0169C2"/>
</linearGradient>
</defs>
</svg>
