<svg width="82" height="100" viewBox="0 0 82 100" fill="none" xmlns="http://www.w3.org/2000/svg">
<g opacity="0.2">
<path d="M23.7001 35.2916C24.4907 33.029 25.0444 30.7273 25.4237 28.7877C25.8031 30.7273 26.3567 33.029 27.1473 35.2916C28.1511 38.1641 29.5621 41.0483 31.545 43.0312C33.5279 45.0142 36.4121 46.4251 39.2846 47.4289C41.5472 48.2195 43.8489 48.7731 45.7886 49.1525C43.8489 49.5319 41.5472 50.0855 39.2846 50.8761C36.4121 51.8798 33.5279 53.2908 31.545 55.2738C29.562 57.2567 28.1511 60.1409 27.1473 63.0134C26.3567 65.2759 25.8031 67.5777 25.4237 69.5173C25.0443 67.5777 24.4907 65.2759 23.7001 63.0134C22.6964 60.1409 21.2854 57.2567 19.3025 55.2738C17.3195 53.2908 14.4354 51.8798 11.5629 50.8761C9.30029 50.0855 6.99854 49.5319 5.05889 49.1525C6.99854 48.7731 9.30029 48.2195 11.5629 47.4289C14.4354 46.4251 17.3195 45.0142 19.3025 43.0312C21.2854 41.0483 22.6964 38.1641 23.7001 35.2916Z" fill="#F4F6FF" stroke="#F24C63" stroke-width="1.5"/>
<path d="M58.7196 67.6728C59.3682 65.8924 59.8366 64.0652 60.1696 62.473C60.5025 64.0652 60.971 65.8924 61.6195 67.6728C62.4481 69.9474 63.5941 72.2126 65.1823 73.8007C66.7704 75.3888 69.0356 76.5349 71.3102 77.3634C73.0906 78.012 74.9178 78.4804 76.5099 78.8134C74.9178 79.1463 73.0906 79.6148 71.3102 80.2633C69.0356 81.0919 66.7704 82.2379 65.1823 83.8261C63.5941 85.4142 62.4481 87.6793 61.6195 89.954C60.971 91.7344 60.5025 93.5616 60.1696 95.1537C59.8366 93.5616 59.3682 91.7344 58.7196 89.954C57.8911 87.6793 56.7451 85.4142 55.1569 83.8261C53.5688 82.2379 51.3036 81.0919 49.029 80.2633C47.2486 79.6148 45.4214 79.1463 43.8292 78.8134C45.4214 78.4804 47.2486 78.012 49.029 77.3634C51.3036 76.5349 53.5688 75.3888 55.1569 73.8007C56.745 72.2126 57.8911 69.9474 58.7196 67.6728Z" fill="#F4F6FF" stroke="#F24C63" stroke-width="1.5"/>
<path d="M58.7196 10.0458C59.3682 8.26543 59.8366 6.43828 60.1696 4.84609C60.5025 6.43828 60.971 8.26543 61.6195 10.0458C62.4481 12.3205 63.5941 14.5856 65.1823 16.1738C66.7704 17.7619 69.0356 18.9079 71.3102 19.7365C73.0906 20.385 74.9178 20.8535 76.5099 21.1864C74.9178 21.5194 73.0906 21.9879 71.3102 22.6364C69.0356 23.4649 66.7704 24.611 65.1823 26.1991C63.5941 27.7872 62.4481 30.0524 61.6195 32.327C60.971 34.1075 60.5025 35.9346 60.1696 37.5268C59.8366 35.9346 59.3682 34.1075 58.7196 32.327C57.8911 30.0524 56.7451 27.7872 55.1569 26.1991C53.5688 24.611 51.3036 23.4649 49.029 22.6364C47.2486 21.9879 45.4214 21.5194 43.8292 21.1864C45.4214 20.8535 47.2486 20.385 49.029 19.7365C51.3036 18.9079 53.5688 17.7619 55.1569 16.1738C56.745 14.5857 57.8911 12.3205 58.7196 10.0458Z" fill="#F4F6FF" stroke="#F24C63" stroke-width="1.5"/>
</g>
</svg>
